<?xml version="1.0" standalone="no"?>
<!DOCTYPE svg PUBLIC "-//W3C//DTD SVG 1.1//EN" "http://www.w3.org/Graphics/SVG/1.1/DTD/svg11.dtd" >
<svg>
<metadata>
Created by FontForge 20090914 at Fri Nov 12 10:26:22 2021
 By www-data
Copyright 2004-2021 The Shalimar Project Authors (https://github.com/googlefonts/shalimar)
</metadata>
<defs>
<font id="Shalimar-Regular" horiz-adv-x="0" >
  <font-face 
    font-family="Shalimar"
    font-weight="400"
    font-stretch="normal"
    units-per-em="1000"
    panose-1="0 0 0 0 0 0 0 0 0 0"
    ascent="800"
    descent="-200"
    x-height="275.999"
    cap-height="546.001"
    bbox="-350.003 -638.939 1693 993.998"
    underline-thickness="50"
    underline-position="-75"
    unicode-range="U+000D-U+FB02"
  />
<missing-glyph horiz-adv-x="595" 
d="M74 770h447v-770h-447v770zM299 447l116 249h-232zM149 122l122 263l-122 259v-522zM446 644l-117 -263l117 -259v522zM412 74l-113 244l-116 -244h229z" />
    <glyph glyph-name="fi" unicode="fi" horiz-adv-x="358" 
d="M1 -329c-16 0 -34.335 7.33301 -55.002 22s-31 29.334 -31 44.001c0 5.33301 1.66699 8 5 8l26 -25c17.333 -17.333 32.333 -26 45 -26c42 0 66.333 77 73 231c0.666992 29.333 2 70.666 4 123.999l7 195c-21.333 -2.66699 -38.666 -4.5 -51.999 -5.5
s-22.333 -1.5 -27 -1.5c-7.33301 0 -11 1.33301 -11 4c0 8.66699 5.33301 15.334 16 20.001c9.33301 5.33301 18 8 26 8c4.66699 0 7.33398 -1.16699 8.00098 -3.5s2 -3.5 4 -3.5c14 0 26.667 2.33301 38 7l11 175c2.66699 50.667 15.667 98 39 142c29.333 56 66 84 110 84
c23.333 0 45 -11.333 65 -34c20.667 -22.667 31 -46 31 -70c0 -4.66699 -1 -7.66699 -3 -9c-0.666992 0.666992 -1.33398 1.5 -2.00098 2.5l-3 4.5c-24 53.333 -56.333 80 -97 80c-81.333 0 -122 -119.333 -122 -358v-22c18.667 0.666992 40 1.5 64 2.5
s44.333 4.16699 61 9.5c24 8 39 12 45 12c10 0 15 -14.667 15 -44c0 -7.33301 -0.5 -17 -1.5 -29l-3.5 -41c-1.33301 -15.333 -2.33301 -28.833 -3 -40.5s-1 -21.167 -1 -28.5c0 -61.333 10 -92 30 -92c15.333 0 32 10.667 50 32c2 0 3 -1.66699 3 -5
c0 -8.66699 -10.667 -20 -32 -34c-20.667 -14 -36.334 -21 -47.001 -21c-20.667 0 -31 23 -31 69c0 16 1 38.333 3 67c2 30 3 52.667 3 68c0 14.667 -1.16699 27.667 -3.5 39s-5.83301 18.333 -10.5 21h-37h-62c-22 0 -36.667 -0.333008 -44 -1
c-0.666992 -4.66699 -1.16699 -17.834 -1.5 -39.501s-1.16602 -52.167 -2.49902 -91.5c-0.666992 -45.333 -1.5 -82.833 -2.5 -112.5s-1.83301 -51.167 -2.5 -64.5c-1.33301 -35.333 -3.66602 -67.5 -6.99902 -96.5s-7.33301 -54.833 -12 -77.5
c-13.333 -63.333 -38.333 -95 -75 -95zM261.998 386c-15.333 0 -22.999 6.66699 -22.999 20c0 12.667 7 22 21 28l34 15c2.66699 1.33301 4.66699 2 6 2c4.66699 0 7 -3 7 -9c0 -2 -4.33301 -8.33301 -13 -19s-13.667 -18.667 -15 -24
c-2.66699 -8.66699 -8.33398 -13 -17.001 -13z" />
    <glyph glyph-name="fl" unicode="fl" horiz-adv-x="395" 
d="M323 -52c-24 0 -36.0068 30.001 -36.0068 90.001c0 8.66699 0.166992 17 0.5 25s0.833008 16.333 1.5 25c7.33301 94 13 172 17 234s6 108.333 6 139c0 66.667 -13 100 -39 100c-6 0 -12 -1 -18 -3c-0.666992 -0.666992 -1.66699 -1 -3 -1c-2.66699 0 -4 1.66699 -4 5
c0 4.66699 11.667 11 35 19c10.667 4 20 7.33301 28 10c-22 35.333 -49.667 53 -83 53c-81.333 0 -122 -119.333 -122 -358v-22c7.33301 0.666992 14.333 1 21 1h18c41.333 0 64.333 -5 69 -15c-3.33301 -3.33301 -6 -5.33301 -8 -6c-8.66699 1.33301 -17.667 2.5 -27 3.5
s-19.666 1.5 -30.999 1.5h-20c-7.33301 0 -15.333 -0.333008 -24 -1c-0.666992 -4.66699 -1.16699 -17.834 -1.5 -39.501s-1.16602 -52.167 -2.49902 -91.5c-0.666992 -45.333 -1.5 -82.833 -2.5 -112.5s-1.83301 -51.167 -2.5 -64.5
c-1.33301 -35.333 -3.66602 -67.5 -6.99902 -96.5s-7.33301 -54.833 -12 -77.5c-13.333 -63.333 -38.333 -95 -75 -95c-16 0 -34.333 7.33301 -55 22s-31 29.334 -31 44.001c0 5.33301 1.66699 8 5 8l26 -25c17.333 -17.333 32.333 -26 45 -26c42 0 66.333 77 73 231
c0.666992 29.333 2 70.666 4 123.999l7 195c-21.333 -2.66699 -38.666 -4.5 -51.999 -5.5s-22.333 -1.5 -27 -1.5c-7.33301 0 -11 1.33301 -11 4c0 8.66699 5.33301 15.334 16 20.001c9.33301 5.33301 18 8 26 8c4.66699 0 7.33398 -1.16699 8.00098 -3.5s2 -3.5 4 -3.5
c14 0 26.667 2.33301 38 7l11 175c2.66699 50.667 15.667 98 39 142c29.333 56 66 84 110 84c23.333 0 45 -11.333 65 -34c12.667 -14 21.334 -28 26.001 -42h1c15.333 0 23 -13.667 23 -41c0 -14.667 -0.833008 -34.334 -2.5 -59.001s-4.16699 -54 -7.5 -88
c-16 -162.667 -24 -265.667 -24 -309c0 -79.333 10.667 -119 32 -119c10.667 0 20.334 6 29.001 18l15 17c2 0 3 -2 3 -6c0 -8.66699 -10 -20.667 -30 -36c-19.333 -15.333 -34 -23 -44 -23z" />
    <glyph glyph-name="f_f" unicode="ff" horiz-adv-x="390" 
d="M1 -329c-16 0 -34.3398 7.33301 -55.0068 22s-31 29.334 -31 44.001c0 5.33301 1.66699 8 5 8l26 -25c17.333 -17.333 32.333 -26 45 -26c42 0 66.333 77 73 231c0.666992 29.333 2 70.666 4 123.999l7 195c-21.333 -2.66699 -38.666 -4.5 -51.999 -5.5
s-22.333 -1.5 -27 -1.5c-7.33301 0 -11 1.33301 -11 4c0 8.66699 5.33301 15.334 16 20.001c9.33301 5.33301 18 8 26 8c4.66699 0 7.33398 -1.16699 8.00098 -3.5s2 -3.5 4 -3.5c14 0 26.667 2.33301 38 7l11 175c2.66699 50.667 15.667 98 39 142c29.333 56 66 84 110 84
c23.333 0 45 -11.333 65 -34c12 -13.333 20.333 -26.666 25 -39.999c28.667 49.333 63.667 74 105 74c23.333 0 45 -11.333 65 -34c20.667 -22.667 31 -46 31 -70c0 -4.66699 -1 -7.66699 -3 -9c-0.666992 0.666992 -1.33398 1.5 -2.00098 2.5l-3 4.5
c-24 53.333 -56.333 80 -97 80c-81.333 0 -122 -119.333 -122 -358v-22c7.33301 0.666992 14.333 1 21 1h18c41.333 0 64.333 -5 69 -15c-3.33301 -3.33301 -6 -5.33301 -8 -6c-8.66699 1.33301 -17.667 2.5 -27 3.5s-19.666 1.5 -30.999 1.5h-20
c-7.33301 0 -15.333 -0.333008 -24 -1c-0.666992 -4.66699 -1.16699 -17.834 -1.5 -39.501s-1.16602 -52.167 -2.49902 -91.5c-0.666992 -45.333 -1.5 -82.833 -2.5 -112.5s-1.83301 -51.167 -2.5 -64.5c-1.33301 -35.333 -3.66602 -67.5 -6.99902 -96.5
s-7.33301 -54.833 -12 -77.5c-13.333 -63.333 -38.333 -95 -75 -95c-16 0 -34.333 7.33301 -55 22s-31 29.334 -31 44.001c0 5.33301 1.66699 8 5 8l26 -25c17.333 -17.333 32.333 -26 45 -26c42 0 66.333 77 73 231c0.666992 29.333 2 70.666 4 123.999l7 195
c-21.333 -2.66699 -38.666 -4.5 -51.999 -5.5s-22.333 -1.5 -27 -1.5c-7.33301 0 -11 1.33301 -11 4s0.333008 4.66699 1 6c-10.667 1.33301 -21.667 2 -33 2h-20c-7.33301 0 -15.333 -0.333008 -24 -1c-0.666992 -4.66699 -1.16699 -17.834 -1.5 -39.501
s-1.16602 -52.167 -2.49902 -91.5c-0.666992 -45.333 -1.5 -82.833 -2.5 -112.5s-1.83301 -51.167 -2.5 -64.5c-1.33301 -35.333 -3.66602 -67.5 -6.99902 -96.5s-7.33301 -54.833 -12 -77.5c-13.333 -63.333 -38.333 -95 -75 -95zM144.993 265
c22 0 38.665 -1.33301 49.998 -4h1c9.33301 5.33301 18 8 26 8c4.66699 0 7.33398 -1.16699 8.00098 -3.5s2 -3.5 4 -3.5c14 0 26.667 2.33301 38 7l11 175c2.66699 48 14.334 92.667 35.001 134c-23.333 44 -53.333 66 -90 66c-81.333 0 -122 -119.333 -122 -358v-22
c7.33301 0.666992 14.333 1 21 1h18z" />
    <glyph glyph-name="f_f_i" unicode="ffi" horiz-adv-x="596" 
d="M1 -329c-16 0 -34.3369 7.33008 -55.0039 21.9971s-31 29.334 -31 44.001c0 5.33301 1.66699 8 5 8l26 -25c17.333 -17.333 32.333 -26 45 -26c42 0 66.333 77 73 231c0.666992 29.333 2 70.666 4 123.999l7 195c-21.333 -2.66699 -38.666 -4.5 -51.999 -5.5
s-22.333 -1.5 -27 -1.5c-7.33301 0 -11 1.33301 -11 4c0 8.66699 5.33301 15.334 16 20.001c9.33301 5.33301 18 8 26 8c4.66699 0 7.33398 -1.16699 8.00098 -3.5s2 -3.5 4 -3.5c14 0 26.667 2.33301 38 7l11 175c2.66699 50.667 15.667 98 39 142c29.333 56 66 84 110 84
c23.333 0 45 -11.333 65 -34c20.667 -22.667 31 -46 31 -70c0 -4.66699 -1 -7.66699 -3 -9c-0.666992 0.666992 -1.33398 1.5 -2.00098 2.5l-3 4.5c-24 53.333 -56.333 80 -97 80c-81.333 0 -122 -119.333 -122 -358v-20h11c-8.66699 0 -10.167 0 -4.5 0
s15.667 -0.166992 30 -0.5s30.5 -0.5 48.5 -0.5s36.167 0.166992 54.5 0.5s34 0.833008 47 1.5s20.5 1.33398 22.5 2.00098l11 175c2.66699 50.667 15.667 98 39 142c29.333 56 66 84 110 84c23.333 0 45 -11.333 65 -34c20.667 -22.667 31 -46 31 -70
c0 -4.66699 -1 -7.66699 -3 -9c-0.666992 0.666992 -1.33398 1.5 -2.00098 2.5l-3 4.5c-24 53.333 -56.333 80 -97 80c-81.333 0 -122 -119.333 -122 -358v-22c18.667 0.666992 40 1.5 64 2.5s44.333 4.16699 61 9.5c24 8 39 12 45 12c10 0 15 -14.667 15 -44
c0 -7.33301 -0.5 -17 -1.5 -29l-3.5 -41c-1.33301 -15.333 -2.33301 -28.833 -3 -40.5s-1 -21.167 -1 -28.5c0 -61.333 10 -92 30 -92c15.333 0 32 10.667 50 32c2 0 3 -1.66699 3 -5c0 -8.66699 -10.667 -20 -32 -34c-20.667 -14 -36.334 -21 -47.001 -21
c-20.667 0 -31 23 -31 69c0 16 1 38.333 3 67c2 30 3 52.667 3 68c0 14.667 -1.16699 27.667 -3.5 39s-5.83301 18.333 -10.5 21h-37h-62c-22 0 -36.667 -0.333008 -44 -1c-0.666992 -4.66699 -1.16699 -17.834 -1.5 -39.501s-1.16602 -52.167 -2.49902 -91.5
c-0.666992 -45.333 -1.5 -82.833 -2.5 -112.5s-1.83301 -51.167 -2.5 -64.5c-1.33301 -35.333 -3.66602 -67.5 -6.99902 -96.5s-7.33301 -54.833 -12 -77.5c-13.333 -63.333 -38.333 -95 -75 -95c-16 0 -34.333 7.33301 -55 22s-31 29.334 -31 44.001
c0 5.33301 1.66699 8 5 8l26 -25c17.333 -17.333 32.333 -26 45 -26c42 0 66.333 77 73 231c0.666992 29.333 2 70.666 4 123.999l7 195c-50 0 -89.333 -0.166992 -118 -0.5s-49.667 -0.666016 -63 -0.999023s-22.666 -0.833008 -27.999 -1.5
c-0.666992 -8.66699 -1.16699 -23.167 -1.5 -43.5s-1.16602 -47.166 -2.49902 -80.499c-0.666992 -45.333 -1.5 -82.833 -2.5 -112.5s-1.83301 -51.167 -2.5 -64.5c-1.33301 -35.333 -3.66602 -67.5 -6.99902 -96.5s-7.33301 -54.833 -12 -77.5
c-13.333 -63.333 -38.333 -95 -75 -95zM499.996 385.997c-15.333 0 -22.999 6.66699 -22.999 20c0 12.667 7 22 21 28l34 15c2.66699 1.33301 4.66699 2 6 2c4.66699 0 7 -3 7 -9c0 -2 -4.33301 -8.33301 -13 -19s-13.667 -18.667 -15 -24
c-2.66699 -8.66699 -8.33398 -13 -17.001 -13z" />
    <glyph glyph-name="f_f_l" unicode="ffl" horiz-adv-x="641" 
d="M1 -329c-16 0 -34.3398 7.33008 -55.0068 21.9971s-31 29.334 -31 44.001c0 5.33301 1.66699 8 5 8l26 -25c17.333 -17.333 32.333 -26 45 -26c42 0 66.333 77 73 231c0.666992 29.333 2 70.666 4 123.999l7 195c-21.333 -2.66699 -38.666 -4.5 -51.999 -5.5
s-22.333 -1.5 -27 -1.5c-7.33301 0 -11 1.33301 -11 4c0 8.66699 5.33301 15.334 16 20.001c9.33301 5.33301 18 8 26 8c4.66699 0 7.33398 -1.16699 8.00098 -3.5s2 -3.5 4 -3.5c14 0 26.667 2.33301 38 7l11 175c2.66699 50.667 15.667 98 39 142c29.333 56 66 84 110 84
c23.333 0 45 -11.333 65 -34c20.667 -22.667 31 -46 31 -70c0 -4.66699 -1 -7.66699 -3 -9c-0.666992 0.666992 -1.33398 1.5 -2.00098 2.5l-3 4.5c-24 53.333 -56.333 80 -97 80c-81.333 0 -122 -119.333 -122 -358v-20h11c-8.66699 0 -10.167 0 -4.5 0
s15.667 -0.166992 30 -0.5s30.5 -0.5 48.5 -0.5s36.167 0.166992 54.5 0.5s34 0.833008 47 1.5s20.5 1.33398 22.5 2.00098l11 175c2.66699 50.667 15.667 98 39 142c29.333 56 66 84 110 84c23.333 0 45 -11.333 65 -34c12.667 -14 21.667 -28.333 27 -43
c3.33301 0.666992 6 1 8 1c15.333 0 23 -13.667 23 -41c0 -14.667 -0.833008 -34.334 -2.5 -59.001s-4.16699 -54 -7.5 -88c-16 -162.667 -24 -265.667 -24 -309c0 -79.333 10.667 -119 32 -119c10.667 0 20.334 6 29.001 18l15 17c2 0 3 -2 3 -6
c0 -8.66699 -10 -20.667 -30 -36c-19.333 -15.333 -34 -23 -44 -23c-24 0 -36 30 -36 90c0 8.66699 0.166992 17 0.5 25s0.833008 16.333 1.5 25c7.33301 94 13 172 17 234s6 108.333 6 139c0 66.667 -13 100 -39 100c-6 0 -12 -1 -18 -3
c-0.666992 -0.666992 -1.66699 -1 -3 -1c-2.66699 0 -4 1.66699 -4 5c0 4.66699 11.667 11 35 19l21 8c-22 36.667 -50 55 -84 55c-81.333 0 -122 -119.333 -122 -358v-22c18.667 0.666992 40 1.5 64 2.5s44.333 4.16699 61 9.5c8 -2 15.333 -5.16699 22 -9.5
s10 -8.16602 10 -11.499c0 -4 -5.33301 -6 -16 -6h-37h-62c-22 0 -36.667 -0.333008 -44 -1c-0.666992 -4.66699 -1.16699 -17.834 -1.5 -39.501s-1.16602 -52.167 -2.49902 -91.5c-0.666992 -45.333 -1.5 -82.833 -2.5 -112.5s-1.83301 -51.167 -2.5 -64.5
c-1.33301 -35.333 -3.66602 -67.5 -6.99902 -96.5s-7.33301 -54.833 -12 -77.5c-13.333 -63.333 -38.333 -95 -75 -95c-16 0 -34.333 7.33301 -55 22s-31 29.334 -31 44.001c0 5.33301 1.66699 8 5 8l26 -25c17.333 -17.333 32.333 -26 45 -26c42 0 66.333 77 73 231
c0.666992 29.333 2 70.666 4 123.999l7 195c-50 0 -89.333 -0.166992 -118 -0.5s-49.667 -0.666016 -63 -0.999023s-22.666 -0.833008 -27.999 -1.5c-0.666992 -8.66699 -1.16699 -23.167 -1.5 -43.5s-1.16602 -47.166 -2.49902 -80.499
c-0.666992 -45.333 -1.5 -82.833 -2.5 -112.5s-1.83301 -51.167 -2.5 -64.5c-1.33301 -35.333 -3.66602 -67.5 -6.99902 -96.5s-7.33301 -54.833 -12 -77.5c-13.333 -63.333 -38.333 -95 -75 -95z" />
    <glyph glyph-name=".notdef" horiz-adv-x="595" 
d="M74 770h447v-770h-447v770zM299 447l116 249h-232zM149 122l122 263l-122 259v-522zM446 644l-117 -263l117 -259v522zM412 74l-113 244l-116 -244h229z" />
    <glyph glyph-name="CR" unicode="&#xd;" horiz-adv-x="184" 
 />
    <glyph glyph-name="space" unicode=" " horiz-adv-x="184" 
 />
    <glyph glyph-name="exclam" unicode="!" horiz-adv-x="223" 
d="M86 108c-3.33301 0 -6.33203 2.33301 -8.99902 7c0 42 7 98.333 21 169l33 169c-7.33301 6 -11 14 -11 24s3.66699 20.5 11 31.5s15.666 16.5 24.999 16.5s14 -10 14 -30c0 -36.667 -8 -85.667 -24 -147l-39 -146c-4 -14.667 -8 -39 -12 -73c-2 -14 -5 -21 -9 -21z
M64.001 -26c-4.66699 1.33301 -10.166 5.33301 -16.499 12s-9.5 12 -9.5 16c0 7.33301 4.16699 14.666 12.5 21.999s16.166 10.333 23.499 9c5.33301 2 9.33301 3 12 3c5.33301 0 8 -2.66699 8 -8c0 -3.33301 -1.33301 -8.16602 -4 -14.499s-4 -10.833 -4 -13.5
c0 -9.33301 -7.33301 -18 -22 -26z" />
    <glyph glyph-name="quotedbl" unicode="&#x22;" horiz-adv-x="223" 
d="M154 336c-2.66699 0 -4.33301 1.33496 -5 4.00195c1.33301 10.667 2.33301 21.334 3 32.001s1 21.667 1 33c0 9.33301 -0.5 21.166 -1.5 35.499s-2.83301 30.833 -5.5 49.5c-3.33301 33.333 -5.33301 50 -6 50c0.666992 7.33301 4.5 13.833 11.5 19.5
s14.167 8.5 21.5 8.5c16.667 0 25 -9.33301 25 -28c0 -10.667 -1.16699 -25.334 -3.5 -44.001s-5.83301 -41.334 -10.5 -68.001c-11.333 -61.333 -21.333 -92 -30 -92zM65.001 336.002c-2.66699 0 -4.33301 1.33594 -5 4.00293c1.33301 11.333 2.33301 22.666 3 33.999
s1 23.333 1 36c0 18 -2 45 -6 81c-3.33301 32.667 -5.33301 49 -6 49c0.666992 7.33301 4.5 13.833 11.5 19.5s14.167 8.5 21.5 8.5c15.333 0 23 -9.33301 23 -28c0 -10.667 -1 -25.334 -3 -44.001s-5.33301 -41.334 -10 -68.001c-10 -61.333 -20 -92 -30 -92z
M52.002 539.005v1v-1v0zM140.002 539.005v1v-1v0z" />
    <glyph glyph-name="numbersign" unicode="#" horiz-adv-x="577" 
d="M217 69c-14.667 0 -22.0039 20.6631 -22.0039 61.9961c0 18 1.33301 37.5 4 58.5s6.66699 43.833 12 68.5l-193 -66c-8.66699 0 -13 1.66699 -13 5c0 4.66699 5.66699 10.667 17 18c10 8 17.667 12.333 23 13l71.5 23.5l98.5 30.5c1.33301 22 7.33301 53.333 18 94
l-75 -26c-36 -12.667 -59.667 -19 -71 -19c-8 0 -12 2.33301 -12 7c0 13.333 30 27.333 90 42c36.667 8.66699 63 16.334 79 23.001l25 86c12 39.333 24.333 64.333 37 75h14l-44 -145c7.33301 0.666992 16.166 1.83398 26.499 3.50098s21.833 4.16699 34.5 7.5l60 15
l40 112c23.333 59.333 41 89 53 89c8.66699 0 13.334 -3 14.001 -9l-2 -2c-14.667 -24.667 -37.667 -83.334 -69 -176.001l54 10c11.333 2.66699 21.5 4.5 30.5 5.5s16.833 1.5 23.5 1.5c10.667 0 16 -1.66699 16 -5c0 -1.33301 -3.66699 -3.66602 -11 -6.99902
c-34.667 -12 -74.667 -24 -120 -36l-10 -35.5c-4 -14.333 -9 -30.833 -15 -49.5c6.66699 1.33301 16.834 3.83301 30.501 7.5s31.167 8.83398 52.5 15.501c37.333 11.333 64.333 17 81 17c8.66699 0 13 -1.33301 13 -4c0 -7.33301 -26 -17 -78 -29
c-41.333 -10 -75.666 -22.333 -102.999 -37c-3.33301 -16 -5.83301 -31.167 -7.5 -45.5s-2.5 -28.166 -2.5 -41.499c0 -46.667 11.333 -78 34 -94c-2.66699 -10.667 -8.66699 -16 -18 -16c-3.33301 0 -7 1 -11 3c-26.667 12.667 -40 45.667 -40 99
c0 29.333 3.33301 57 10 83c-15.333 -4 -33.166 -9 -53.499 -15s-43.166 -13.333 -68.499 -22c-8.66699 -35.333 -13 -70 -13 -104c0 -11.333 0.5 -23 1.5 -35s2.83301 -24.333 5.5 -37l1 -3c0 -10.667 -6 -16 -18 -16zM247.996 291.996c13.333 3.33301 29.833 8 49.5 14
l69.5 22c2 10.667 5.16699 23.667 9.5 39s9.83301 33 16.5 53c-26.667 0 -68 -11.333 -124 -34c-6.66699 -20 -13.667 -51.333 -21 -94z" />
    <glyph glyph-name="dollar" unicode="$" horiz-adv-x="312" 
d="M71 -156c-38 0 -57.002 34.001 -57.002 102.001c0 9.33301 0.333008 18.666 1 27.999s1.66699 19.333 3 30c-1.33301 -0.666992 -3.66602 -1.16699 -6.99902 -1.5s-6.66602 -0.5 -9.99902 -0.5c-10.667 0 -22.334 5.33301 -35.001 16c2.66699 15.333 22 23 58 23
c5.33301 29.333 11.5 58.666 18.5 87.999s14.833 58.333 23.5 87c-60 48 -90 86.333 -90 115c0 37.333 25.333 78 76 122c19.333 17.333 39.333 33 60 47s42.334 26 65.001 36l37 98c2.66699 14.667 7.66699 29 15 43c10.667 25.333 23.667 38 39 38
c4.66699 0 7 -3.33301 7 -10l-19 -48l-41 -105c10 2.66699 19.667 4.83398 29 6.50098s18 2.5 26 2.5c34.667 0 52 -14.333 52 -43c0 -52.667 -12.333 -102.667 -37 -150c-14.667 -26 -26 -39 -34 -39c-2.66699 0 -4 3.66699 -4 11c0 3.33301 0.333008 7.33301 1 12
s1.66699 10 3 16c4 18 7.33301 34.667 10 50s4 28.333 4 39c0 45.333 -16.333 68 -49 68h-11l-53 -143.5c-16.667 -47 -31.667 -93.167 -45 -138.5c53.333 -43.333 80 -74.666 80 -93.999c0 -15.333 -6.66699 -31.666 -20 -48.999
c-14.667 -18.667 -32.167 -35.167 -52.5 -49.5s-42.833 -26.833 -67.5 -37.5c-2.66699 -16.667 -5 -32.334 -7 -47.001s-3 -27.667 -3 -39c0 -42 11.667 -65 35 -69c6 -0.666992 9 -3.33398 9 -8.00098c0 -4 -3.33301 -6 -10 -6zM79.998 266.001l41.499 121.5
c14.333 41 29.833 82.167 46.5 123.5c-73.333 -29.333 -122.666 -67 -147.999 -113c-3.33301 -8 -5 -20.667 -5 -38c0 -26 21.667 -57.333 65 -94zM51.9971 44.001c14.667 0 33.333 9.33203 56 27.999c24 18 36 33.667 36 47c0 22.667 -17.333 48.334 -52 77.001l-24 -87
c-6.66699 -25.333 -12 -47 -16 -65z" />
    <glyph glyph-name="percent" unicode="%" horiz-adv-x="425" 
d="M99 56c-7.33301 0 -11.001 6.33691 -11.001 19.0039c0 37.333 22.667 88.666 68 153.999c8.66699 12.667 23.667 32.167 45 58.5l83 100.5c45.333 54.667 68 88 68 100c0 18 -10 29 -30 33c-11.333 2.66699 -40 4 -86 4c12.667 -10.667 19 -23.667 19 -39
c0 -28 -16 -51.667 -48 -71c-26.667 -16.667 -55.667 -25 -87 -25c-32.667 0 -49 15 -49 45c0 44.667 21.667 76.667 65 96c2 -0.666992 3 -2.33398 3 -5.00098c0 -2 -5 -7.66699 -15 -17c-19.333 -18 -29 -41.667 -29 -71c0 -22 11.333 -33 34 -33
c19.333 0 40.333 7.66699 63 23c22.667 16 34 33.333 34 52c0 14.667 -5.66699 26.334 -17 35.001s-24.666 13 -39.999 13c-2 0 -4.83301 -0.333008 -8.5 -1s-6.5 -1 -8.5 -1c-5.33301 0 -8 2 -8 6c0 7.33301 7.66699 11 23 11c4 0 9.83301 -0.333008 17.5 -1
s13.5 -1 17.5 -1c7.33301 0 16.833 0.333008 28.5 1s24.834 1.66699 39.501 3l40 3.5c11.333 1 20.666 1.5 27.999 1.5c46.667 0 70 -11.667 70 -35c0 -20 -49.333 -87.333 -148 -202c-98 -114.667 -147 -183.334 -147 -206.001c0 -2.66699 0.833008 -6.83398 2.5 -12.501
s2.5 -9.83398 2.5 -12.501c0 -17.333 -6.33301 -26 -19 -26zM250.999 75.0039c-33.333 0 -50.001 14.667 -50.001 44c0 45.333 21.333 77.333 64 96c2.66699 -0.666992 4 -2 4 -4s-4.66699 -7.66699 -14 -17c-19.333 -18 -29 -41.333 -29 -70c0 -22.667 11.333 -34 34 -34
c18.667 0 39.667 7.66699 63 23c22.667 14.667 34 31.667 34 51c0 14 -5.83301 25.5 -17.5 34.5s-24.834 13.5 -39.501 13.5c-3.33301 0 -7.66602 -1 -12.999 -3s-8.66602 -3 -9.99902 -3c-4 0 -6 2.33301 -6 7c0 9.33301 13.667 14 41 14c20 0 36.667 -4.33301 50 -13
c16 -10.667 24 -25 24 -43c0 -28 -16 -51.667 -48 -71c-26.667 -16.667 -55.667 -25 -87 -25z" />
    <glyph glyph-name="ampersand" unicode="&#x26;" horiz-adv-x="650" 
d="M527 -48c-54.667 0 -104.668 63.667 -150.001 191l-142 -46c-72.667 -24 -115.667 -36 -129 -36c-30.667 0 -46 19.667 -46 59c0 20 44.667 66.667 134 140c89.333 74 134 117 134 129c0 6.66699 -0.833008 15.167 -2.5 25.5s-4.16699 22.166 -7.5 35.499
c-3.33301 14 -5.83301 26.167 -7.5 36.5s-2.5 18.833 -2.5 25.5c0 23.333 26.333 35 79 35c49.333 0 74 -11 74 -33c0 -20.667 -16.333 -47.667 -49 -81c-32 -32.667 -48 -49.667 -48 -51c0 -51.333 14.333 -120 43 -206c29.333 5.33301 71.333 16.333 126 33
c-13.333 13.333 -20 28 -20 44c0 18.667 5 28 15 28c4.66699 0 9 -3.66699 13 -11c14 -25.333 32.333 -42.333 55 -51c10 -4 15 -7.33301 15 -10c0 -6 -11.333 -9 -34 -9c-2.66699 0 -7 0.5 -13 1.5s-10.333 1.5 -13 1.5c-9.33301 0 -55.666 -17.333 -138.999 -52
c44 -108.667 89 -163 135 -163c20.667 0 35.334 4.33301 44.001 13c7.33301 7.33301 14.333 21.333 21 42c3.33301 10 6.66602 15 9.99902 15c2.66699 0 4 -2.33301 4 -7c0 -1.33301 -0.166992 -3.16602 -0.5 -5.49902s-0.833008 -4.83301 -1.5 -7.5
c-22 -57.333 -54.333 -86 -97 -86zM356.999 408c6 4 12.167 8.83496 18.5 14.502s12.833 12.167 19.5 19.5c14.667 17.333 22 32 22 44c0 19.333 -12.667 29 -38 29c-10 0 -18 -1.33301 -24 -4c-0.666992 -2.66699 -1.16699 -5.83398 -1.5 -9.50098
s-0.5 -7.83398 -0.5 -12.501c0 -9.33301 0.666992 -22.833 2 -40.5s2 -31.167 2 -40.5zM155.999 102.002c19.333 0 54.666 7.66699 105.999 23l109 34l-16.5 83.5c-6.33301 33 -13.166 70.833 -20.499 113.5l-60 -48l-69 -58c-67.333 -59.333 -101 -96.333 -101 -111
c0 -11.333 6.33301 -20.333 19 -27c10.667 -6.66699 21.667 -10 33 -10z" />
    <glyph glyph-name="quotesingle" unicode="'" horiz-adv-x="137" 
d="M54 282l27.001 89.001c6.66699 20.667 11.5 38.167 14.5 52.5s4.5 25.166 4.5 32.499c0 12 -7.66699 25 -23 39c4 18.667 13.667 28 29 28c20.667 0 31 -12.333 31 -37c0 -20 -10 -57.667 -30 -113c-20.667 -58.667 -38.334 -89 -53.001 -91z" />
    <glyph glyph-name="parenleft" unicode="(" horiz-adv-x="209" 
d="M118 0c-21.333 0 -39.334 22.332 -54.001 66.999c-12.667 36 -19 67.333 -19 94v17c0 142 37 263.333 111 364c15.333 20 29.333 37 42 51c2 2 4.33301 3 7 3c0.666992 0 1 -0.666992 1 -2c0 -7.33301 -7.66699 -22.333 -23 -45
c-57.333 -83.333 -89 -166.666 -95 -249.999c-0.666992 -4.66699 -1 -11 -1 -19v-29c0 -118.667 21.667 -187.667 65 -207c-3.33301 -29.333 -14.666 -44 -33.999 -44z" />
    <glyph glyph-name="parenright" unicode=")" horiz-adv-x="270" 
d="M71 3c-2.66699 0 -4 1 -4 3c0 6 9.33301 19.333 28 40l34 38c56.667 68.667 85 159.667 85 273c0 44.667 -7.33301 85 -22 121c-18 45.333 -43.667 75.666 -77 90.999c2.66699 28.667 14.667 43 36 43c34.667 0 61 -28.667 79 -86c6.66699 -20.667 11.5 -41.667 14.5 -63
s4.5 -42.666 4.5 -63.999c0 -10.667 -0.333008 -21.167 -1 -31.5s-1.66699 -20.833 -3 -31.5c-12.667 -107.333 -54.667 -203.666 -126 -288.999c-2.66699 -2.66699 -6 -6.83398 -10 -12.501s-9.33301 -12.167 -16 -19.5c-8.66699 -8 -16 -12 -22 -12z" />
    <glyph glyph-name="asterisk" unicode="*" horiz-adv-x="397" 
d="M184 217c-7.33301 0 -10.998 24.0029 -10.998 72.0029c0 11.333 0.333008 22.666 1 33.999s1.66699 22.666 3 33.999c-24.667 -12 -60.667 -33 -108 -63c-6.66699 -6 -12.334 -9 -17.001 -9c-3.33301 0 -5 1.33301 -5 4c0 4 3.66699 9.66699 11 17
c10 9.33301 22.333 21.833 37 37.5l51 55.5l-106 77c-4 1.33301 -6 2.66602 -6 3.99902c0 2 3 3 9 3c22.667 0 67 -15.333 133 -46c2.66699 6.66699 15.667 51.334 39 134.001c0.666992 4.66699 2 7 4 7c6 0 9 -30.667 9 -92c0 -9.33301 -0.166992 -18 -0.5 -26
s-0.833008 -15 -1.5 -21c43.333 14 92.333 21 147 21c2 0 3 -0.666992 3 -2s-0.666992 -4 -2 -8c-32.667 -8.66699 -80.667 -24.667 -144 -48l41.5 -40l60.5 -55c1.33301 -2.66699 2 -4.66699 2 -6c0 -4.66699 -2.66699 -7 -8 -7c-6 0 -24.333 8.33301 -55 25l-34.5 19
c-9.66699 5.33301 -17.167 9.66602 -22.5 12.999c-1.33301 -14.667 -2.83301 -27.667 -4.5 -39s-3.83398 -21.333 -6.50098 -30c-2.66699 -9.33301 -5.16699 -19.333 -7.5 -30l-7.5 -35h-4z" />
    <glyph glyph-name="plus" unicode="+" horiz-adv-x="378" 
d="M144 -13c-3.33301 0 -4.99805 4.99902 -4.99805 14.999c0 10.667 1.33301 19.667 4 27c22.667 66.667 34.667 108.334 36 125.001h-118c-2 1.33301 -3 3.33301 -3 6c0 5.33301 3.33301 10.5 10 15.5s13 7.5 19 7.5l99 -2c11.333 37.333 24.333 76.333 39 117
c5.33301 13.333 15 20 29 20c5.33301 0 8 -2 8 -6c0 -22 -12.667 -66 -38 -132h17c5.33301 0.666992 10.166 1 14.499 1h11.5h44c35.333 0 53 -3.66699 53 -11c0 -6.66699 -18.667 -11 -56 -13c-15.333 -0.666992 -30.833 -1.5 -46.5 -2.5s-31.167 -1.83301 -46.5 -2.5
c-6.66699 -22.667 -17.667 -53.667 -33 -93c-18.667 -48 -31.334 -72 -38.001 -72z" />
    <glyph glyph-name="comma" unicode="," horiz-adv-x="181" 
d="M41 -113c-4 0 -6.00195 2.00098 -6.00195 6.00098c0.666992 4 4.33398 12.167 11.001 24.5s13.334 26.166 20.001 41.499s10 30 10 44c0 6 -1.66699 10.167 -5 12.5s-6.66602 5 -9.99902 8s-5 7.5 -5 13.5c0.666992 6.66699 4.5 12 11.5 16s15.167 6 24.5 6
c7.33301 0 12.666 -2.33301 15.999 -7s5 -10.667 5 -18c0 -8 -1.33301 -16.5 -4 -25.5s-6.33398 -18.167 -11.001 -27.5c-5.33301 -11.333 -12.666 -25.333 -21.999 -42l-25 -45c-2.66699 -4.66699 -6 -7 -10 -7z" />
    <glyph glyph-name="hyphen" unicode="-" horiz-adv-x="325" 
d="M79 191c-8.66699 0 -16.332 0.333008 -22.999 1s-12.334 1.66699 -17.001 3c0 20.667 14 31 42 31h40c13.333 -0.666992 25.5 -1 36.5 -1h29.5l106 -1c0 -2 0.333008 -3 1 -3v-2c0 -4.66699 -25.667 -10 -77 -16c-66 -8 -112 -12 -138 -12z" />
    <glyph glyph-name="period" unicode="." horiz-adv-x="181" 
d="M80 -5c-9.33301 0 -14 8.33301 -14 25c0 10.667 5.16699 21 15.5 31s20.833 15 31.5 15c3.33301 0 5 -0.666992 5 -2c0 -6 -1.83301 -14.667 -5.5 -26s-5.5 -19.333 -5.5 -24c0 -12.667 -9 -19 -27 -19z" />
    <glyph glyph-name="slash" unicode="/" horiz-adv-x="605" 
d="M44 -124c-11.333 0 -16.999 9.66699 -16.999 29c0 28.667 7.33301 61 22 97c13.333 34 46.333 89.667 99 167l58 83l70 97c171.333 233.333 266.666 350 285.999 350c15.333 0 23 -6.66699 23 -20c0 -5.33301 -3 -11.666 -9 -18.999l-40 -47l-43 -52l-185.5 -234.5
c-55.667 -73.667 -105.167 -142.167 -148.5 -205.5l-30.5 -45.5l-23.5 -36.5c-34 -54.667 -51 -94.334 -51 -119.001c0 -8.66699 2.33301 -15.834 7 -21.501s7 -8.16699 7 -7.5c0 -3.33301 -3 -6.66602 -9 -9.99902s-11 -5 -15 -5z" />
    <glyph glyph-name="zero" unicode="0" horiz-adv-x="640" 
d="M137 -16c-31.333 0 -56.001 10.001 -74.001 30.001s-27 45.667 -27 77c0 59.333 25.333 127.333 76 204c21.333 33.333 44.333 63.833 69 91.5s50.667 52.834 78 75.501c40.667 32.667 69 49 85 49c5.33301 0 8 -1 8 -3c0 -10.667 -10 -18 -30 -22
c-50 -31.333 -103.333 -87 -160 -167c-60 -84.667 -90 -153 -90 -205c0 -57.333 36.333 -86 109 -86c89.333 0 187.333 44.333 294 133c34.667 28 60.334 54.833 77.001 80.5s25 49.834 25 72.501c0 49.333 -29.667 86.666 -89 111.999c-46 20 -97.333 30 -154 30
c-10.667 0.666992 -16 3 -16 7c0 8 26.333 12 79 12c25.333 0 49.333 -2.33301 72 -7s44 -12.334 64 -23.001c50 -24.667 75 -60.334 75 -107.001c0 -76.667 -60 -156 -180 -238c-111.333 -77.333 -208.333 -116 -291 -116z" />
    <glyph glyph-name="one" unicode="1" horiz-adv-x="284" 
d="M168 -59c-10.667 0 -17 3.99805 -19 11.998v28c0 32 6 96.333 18 193l20 164c3.33301 29.333 5.83301 57.666 7.5 84.999s2.5 54.333 2.5 81c-100 -115.333 -152 -173 -156 -173c-2.66699 0 -4 1.33301 -4 4c0 4.66699 3.33301 10.334 10 17.001
c21.333 22.667 45 51.334 71 86.001l39 53.5c10.667 15 20 27.167 28 36.5c11.333 13.333 29 25 53 35c0 -57.333 -6 -143.666 -18 -258.999c-5.33301 -56.667 -9.5 -106.667 -12.5 -150s-4.5 -79.333 -4.5 -108c0 -8.66699 1 -21.5 3 -38.5s3 -30.167 3 -39.5
c0 -18 -13.667 -27 -41 -27z" />
    <glyph glyph-name="two" unicode="2" horiz-adv-x="505" 
d="M6 -14c-12 0 -17.9971 4.66699 -17.9971 14c0 4.66699 35.667 35 107 91c42 33.333 79.5 64.5 112.5 93.5s61.167 55.167 84.5 78.5c70 71.333 105 127.333 105 168c0 36.667 -23 55 -69 55c-19.333 0 -40 -3.16699 -62 -9.5s-42.833 -14.833 -62.5 -25.5
s-35.834 -22.667 -48.501 -36l-18 -25c-5.33301 -6.66699 -10.666 -10 -15.999 -10c-8 0 -12 5.33301 -12 16c0 4.66699 1.33301 8.66699 4 12c20.667 30.667 57 58 109 82c51.333 24.667 96.666 37 135.999 37c60.667 0 91 -21.333 91 -64c0 -53.333 -48 -125 -144 -215
l-52.5 -46.5l-156.5 -140.5c85.333 22 182 33 290 33c72 0 108 -8.66699 108 -26c0 -8 -6 -12 -18 -12c-0.666992 0 -1.66699 0.166992 -3 0.5s-3 0.833008 -5 1.5c-14.667 2 -31.334 3.66699 -50.001 5s-39.334 2 -62.001 2c-64 0 -124.167 -6.33301 -180.5 -19
s-108.833 -32 -157.5 -58c-2 -0.666992 -4 -1.16699 -6 -1.5s-4 -0.5 -6 -0.5z" />
    <glyph glyph-name="three" unicode="3" horiz-adv-x="421" 
d="M90 -58c-48.667 0 -73 9.33594 -73 28.0029c0 4 2 8 6 12c5.33301 -0.666992 10.5 -1 15.5 -1h15.5c69.333 0 130 12 182 36c68 30.667 102 76.667 102 138c0 78 -43.333 117 -130 117c-14 0 -35.667 -3 -65 -9c-28 -6 -49.333 -9 -64 -9c-8 0 -12 2 -12 6
c0 8.66699 26 21.667 78 39c36.667 12 67 22.5 91 31.5s41.667 16.167 53 21.5c52 25.333 78 53.666 78 84.999c0 45.333 -39 68 -117 68c-42.667 0 -76 -8 -100 -24c-14.667 -9.33301 -24.334 -14 -29.001 -14c-3.33301 0 -5 2.33301 -5 7c0 23.333 16 40 48 50
c11.333 4 23.5 6.83301 36.5 8.5s26.833 2.5 41.5 2.5c32.667 0 68.334 -5 107.001 -15c52 -14 78 -33 78 -57c0 -21.333 -21 -48 -63 -80l-90 -67c74.667 -32.667 112 -81.334 112 -146.001c0 -48.667 -38 -99.667 -114 -153c-36 -24.667 -69.167 -43.334 -99.5 -56.001
s-57.833 -19 -82.5 -19z" />
    <glyph glyph-name="four" unicode="4" horiz-adv-x="566" 
d="M368 -58c-44.667 0 -66.999 44.999 -66.999 134.999c0 16 0.666992 31.833 2 47.5s3 30.834 5 45.501c-10 3.33301 -22.667 5.83301 -38 7.5s-33.333 2.5 -54 2.5c-32.667 0 -63.834 -1.83301 -93.501 -5.5s-57.167 -9.5 -82.5 -17.5c-8.66699 -2 -15.667 -3 -21 -3
c-12.667 0 -19 2.33301 -19 7c0.666992 1.33301 1.33398 2.5 2.00098 3.5s1.66699 1.83301 3 2.5l72 56c52 41.333 101.167 83 147.5 125s89.5 84 129.5 126l5 60c2.66699 34.667 20.667 52 54 52c8.66699 0 13 -5.66699 13 -17c0 -8 -1.16699 -18.667 -3.5 -32
s-5.83301 -29.666 -10.5 -48.999l-39 -136c-7.33301 -28.667 -13 -54.167 -17 -76.5s-6 -42.166 -6 -59.499c5.33301 -2.66699 10 -4 14 -4c33.333 0 63.5 3.66699 90.5 11s51.5 17.666 73.5 30.999c3.33301 2.66699 6.66602 4 9.99902 4c2 0 3 -1.33301 3 -4
c0 -4 -2.66699 -8.66699 -8 -14c-33.333 -32.667 -81 -52.334 -143 -59.001c-20 -2.66699 -32.833 -7.66699 -38.5 -15s-9.5 -22 -11.5 -44c-2 -14.667 -3 -31 -3 -49c0 -66 15.667 -99 47 -99c16.667 0 34 10.333 52 31c18.667 20.667 27 31 25 31l3 -5
c0 -2.66699 -1 -5.66699 -3 -9c-23.333 -53.333 -54.333 -80 -93 -80zM89.001 208.999c32 0 75 1 129 3h95l41 232z" />
    <glyph glyph-name="five" unicode="5" horiz-adv-x="474" 
d="M106 -11c-45.333 0 -67.9961 5.66895 -67.9961 17.002c0 7.33301 9.66699 11 29 11c5.33301 0 13.333 -0.5 24 -1.5s18.667 -1.5 24 -1.5c33.333 0 64.666 4 93.999 12s57.333 19.333 84 34c62 36 93 84.333 93 145c0 33.333 -10.333 61.166 -31 83.499
s-47.667 33.5 -81 33.5c-36.667 0 -68.667 -13.667 -96 -41c-12.667 -12.667 -23.167 -26.834 -31.5 -42.501s-14.833 -32.834 -19.5 -51.501c-6 -22 -16 -33 -30 -33c-12 0 -18 18.667 -18 56c0 27.333 4 68 12 122c4.66699 28 8 52.167 10 72.5s3 37.5 3 51.5h-3
c-12 0 -18 6 -18 18s8.33301 22 25 30c4 33.333 13.667 50 29 50c12.667 0 19 -11 19 -33c0 -10 -1.66699 -17 -5 -21c8.66699 -2.66699 20 -4.66699 34 -6s30.667 -2 50 -2c33.333 0 82.333 2 147 6c33.333 2.66699 62.166 4.5 86.499 5.5s44.5 1.5 60.5 1.5
c4.66699 0 7 -2 7 -6c0 -4.66699 -8 -8.66699 -24 -12l-110 -11c-48.667 -4 -94 -7.33301 -136 -10s-80.333 -4.66699 -115 -6c-6.66699 -15.333 -15.334 -79.333 -26.001 -192c9.33301 11.333 21.166 21.833 35.499 31.5s30.833 17.834 49.5 24.501c36 13.333 70 20 102 20
c79.333 0 119 -34.333 119 -103c0 -44.667 -17.333 -87.334 -52 -128.001c-30.667 -37.333 -67.667 -65.666 -111 -84.999c-54 -26 -108 -39 -162 -39z" />
    <glyph glyph-name="six" unicode="6" horiz-adv-x="566" 
d="M152 -10c-72.667 0 -109 40.668 -109 122.001c0 65.333 33.333 144.333 100 237c29.333 41.333 59.5 77.666 90.5 108.999s62.833 58.333 95.5 81c5.33301 3.33301 10.333 5 15 5c20 0 30 -6 30 -18l-27.5 -26.5l-52.5 -51.5c-151.333 -152.667 -227 -267.667 -227 -345
c0 -33.333 15.667 -55 47 -65c4 51.333 41.333 101.333 112 150c66.667 45.333 126.667 68 180 68c68.667 0 103 -17 103 -51c0 -49.333 -47.667 -99 -143 -149c-84.667 -44 -156 -66 -214 -66zM175 16.001c39.333 0 95.667 18.667 169 56c81.333 42 122 78.667 122 110
c0 20 -24 30 -72 30c-101.333 0 -177.333 -38.333 -228 -115c-17.333 -25.333 -26 -45 -26 -59c0 -14.667 11.667 -22 35 -22z" />
    <glyph glyph-name="seven" unicode="7" horiz-adv-x="458" 
d="M205 -54c-41.333 0 -62.002 48.3301 -62.002 144.997c0 60.667 14.333 128 43 202c30 77.333 66.333 134.333 109 171c-7.33301 4.66699 -21.166 7.83398 -41.499 9.50098s-46.5 2.5 -78.5 2.5c-8.66699 0 -19.667 -0.166992 -33 -0.5s-29 -0.833008 -47 -1.5
s-33.667 -1.16699 -47 -1.5s-24.666 -0.5 -33.999 -0.5c-4 0 -6 0.666992 -6 2c0 5.33301 7.66699 12.666 23 21.999c11.333 5.33301 30.166 9.83301 56.499 13.5s60.5 5.83398 102.5 6.50098l128 4c64 6 91.667 9 83 9c32.667 0 49 -7.66699 49 -23
c0 -8.66699 -4.33301 -16.5 -13 -23.5s-17.667 -10.5 -27 -10.5h-25c-10 0 -18.5 -0.666992 -25.5 -2s-12.167 -2.66602 -15.5 -3.99902c-6 -4.66699 -13 -10.667 -21 -18s-17.667 -16.666 -29 -27.999c-74.667 -78.667 -112 -173 -112 -283c0 -32 3.33301 -63 10 -93
s16.334 -58.667 29.001 -86c-4.66699 -8 -10 -12 -16 -12z" />
    <glyph glyph-name="eight" unicode="8" horiz-adv-x="461" 
d="M161 -30c-76.667 0 -114.999 28.6689 -114.999 86.002c0 68 44.667 124 134 168c1.33301 1.33301 3.33301 2 6 2s4 -1 4 -3l-54 -43c-34.667 -30 -52 -64.333 -52 -103c0 -54.667 32.667 -82 98 -82c34.667 0 72 9 112 27c48 21.333 72 47.333 72 78
c0 39.333 -41.667 77.666 -125 114.999c-4.66699 1.33301 -10.334 3.33301 -17.001 6s-13.667 6.33398 -21 11.001l-93 66c-42 32 -63 59.333 -63 82c0 36.667 46.667 76 140 118c86 37.333 150 56 192 56c18.667 0 35.667 -4.33301 51 -13
c18.667 -10.667 28 -24.334 28 -41.001c0 -13.333 -7.33301 -20 -22 -20c-2.66699 0 -14.667 6 -36 18c-21.333 12.667 -41 19 -59 19c-20 0 -42.167 -2.66699 -66.5 -8s-50.5 -13 -78.5 -23c-69.333 -25.333 -104 -54 -104 -86c0 -20.667 20 -47.334 60 -80.001
c32.667 -24.667 62 -42 88 -52l124 97c64 50 103.333 75 118 75c3.33301 0 5 -1 5 -3c0 -5.33301 -3.66699 -10.333 -11 -15l-220 -158l90 -55c42.667 -26.667 64 -53 64 -79c0 -44 -31.333 -83 -94 -117c-53.333 -28.667 -105 -43 -155 -43z" />
    <glyph glyph-name="nine" unicode="9" horiz-adv-x="518" 
d="M343 -104c-48 0 -71.998 29.998 -71.998 89.998c0 23.333 4.33301 51.833 13 85.5s21.667 72.167 39 115.5l84 197l-155 -107c-68.667 -47.333 -123 -71 -163 -71c-34.667 0 -52 17 -52 51c0 61.333 45 128.333 135 201c66.667 54.667 130 82 190 82
c42.667 0 64 -17.333 64 -52c0 -9.33301 -3.66699 -14 -11 -14c-4.66699 0 -14.334 6.66699 -29.001 20c-12.667 14 -28 21 -46 21c-48 0 -103.667 -27.667 -167 -83c-62.667 -54.667 -94 -106 -94 -154c0 -26 13.667 -39 41 -39c21.333 0 48.333 8.33301 81 25
s71 42.334 115 77.001c78 61.333 134 114.333 168 159c12 16 21 24 27 24c4.66699 0 6.66699 -4 6 -12c-20.667 -31.333 -41.667 -68.166 -63 -110.499s-43 -90.166 -65 -143.499c-26 -60.667 -45.333 -113.334 -58 -158.001s-19 -81.334 -19 -110.001
c0 -46.667 16.667 -70 50 -70c21.333 0 40.666 8.66699 57.999 26s27 26 29 26s3 -2 3 -6c0 -14 -18.333 -32.333 -55 -55c-8.66699 -5.33301 -17.5 -9.16602 -26.5 -11.499s-18.167 -3.5 -27.5 -3.5z" />
    <glyph glyph-name="colon" unicode=":" horiz-adv-x="181" 
d="M129 257c-3.33301 1.33301 -7.5 4.16699 -12.5 8.5s-10.833 9.83301 -17.5 16.5c3.33301 18 16.333 28.333 39 31l10 -15c4.66699 -6.66699 7 -11.667 7 -15c0 -10 -8.66699 -18.667 -26 -26zM93 0.000976562c-4.66699 1.33301 -10.167 5.33105 -16.5 11.998
s-9.5 12.334 -9.5 17.001c0 6.66699 4 13.334 12 20.001c8.66699 8 16 12.167 22 12.5s10.667 0.5 14 0.5c5.33301 0 8 -2.66699 8 -8c0 -24 -10 -42 -30 -54z" />
    <glyph glyph-name="semicolon" unicode=";" horiz-adv-x="181" 
d="M95 257c-6 3.33301 -16 11.667 -30 25c3.33301 18 16.333 28.333 39 31l17 -30c0 -10 -8.66699 -18.667 -26 -26zM36 -186.999c0.666992 3.33301 3.16699 12.167 7.5 26.5l18.5 59.5c12 38 18 65.667 18 83v11c0 4 -0.333008 8.66699 -1 14
c-4 2.66699 -10.333 8.66699 -19 18c3.33301 18 16 28.333 38 31l17 -30c0 -18.667 -7 -47.667 -21 -87l-33 -89c-8 -24 -16.333 -36.333 -25 -37z" />
    <glyph glyph-name="less" unicode="&#x3c;" horiz-adv-x="318" 
d="M217 136l-8 2.99805c-22.667 31.333 -63 68.333 -121 111c-2.66699 2 -4 4 -4 6c0 6.66699 17.667 35.334 53 86.001c30 43.333 52 73.333 66 90c6 7.33301 12.667 11 20 11c3.33301 0 5 -2 5 -6c0 -12 -32.667 -63.333 -98 -154c64.667 -79.333 97 -124 97 -134
c0 -9.33301 -3.33301 -13.666 -10 -12.999z" />
    <glyph glyph-name="equal" unicode="=" horiz-adv-x="369" 
d="M124 221c-38.667 0 -64.002 2.00098 -76.002 6.00098c0 21.333 13.667 32 41 32c15.333 0 34.333 -0.5 57 -1.5l80 -3.5l80.5 -3.5c23 -1 42.167 -1.5 57.5 -1.5v-4c0.666992 -0.666992 1 -1.33398 1 -2.00098c0 -4.66699 -6 -7.66699 -18 -9l-71 -6
c-29.333 -2.66699 -56.666 -4.5 -81.999 -5.5s-48.666 -1.5 -69.999 -1.5zM112.998 128.001c-40 0 -66.667 2.00098 -80 6.00098c0 20.667 14 31 42 31c15.333 0 34.5 -0.5 57.5 -1.5l80.5 -3.5c30.667 -1.33301 57.5 -2.33301 80.5 -3s42.167 -1 57.5 -1
c-0.666992 -0.666992 -1 -1.33398 -1 -2.00098s0.333008 -1.33398 1 -2.00098v-2c0 -3.33301 -5.66699 -6 -17 -8c-3.33301 -0.666992 -11 -1.66699 -23 -3s-27.667 -2.66602 -47 -3.99902c-28.667 -2.66699 -55.5 -4.5 -80.5 -5.5s-48.5 -1.5 -70.5 -1.5z" />
    <glyph glyph-name="greater" unicode="&#x3e;" horiz-adv-x="318" 
d="M92 129c-5.33301 0 -7.99902 1.66699 -7.99902 5c0 4 33 55.333 99 154c-64.667 79.333 -97 124 -97 134c0 9.33301 4 14 12 14l7 -4c19.333 -27.333 59.666 -64.333 120.999 -111c1.33301 -1.33301 2 -3.33301 2 -6c0 -8.66699 -17.333 -37.667 -52 -87l-38 -53.5
c-10.667 -15 -19.667 -26.833 -27 -35.5c-6.66699 -6.66699 -13 -10 -19 -10z" />
    <glyph glyph-name="question" unicode="?" horiz-adv-x="428" 
d="M134 188c-9.33301 0 -13.998 5.99902 -13.998 17.999c0 14.667 22.333 37.334 67 68.001l84 59.5c20.667 15 33.667 24.833 39 29.5c44 39.333 66 74.666 66 105.999c0 52.667 -37 79 -111 79c-33.333 0 -69 -6 -107 -18c-20.667 -6.66699 -38.834 -14 -54.501 -22
s-28.834 -17.333 -39.501 -28c5.33301 -10 8.33301 -20 9 -30c-4.66699 -4 -10.667 -6 -18 -6c-15.333 0 -23 6.33301 -23 19c0 7.33301 11.333 19.333 34 36c9.33301 7.33301 17.833 13.333 25.5 18s14.167 8.33398 19.5 11.001c66 28 131.333 42 196 42
c71.333 0 107 -27 107 -81c0 -34 -22.333 -71 -67 -111c-9.33301 -8.66699 -24.333 -20.5 -45 -35.5l-79 -56.5c-44 -30.667 -66 -52 -66 -64c0 -4.66699 5 -12.667 15 -24c0 -6.66699 -12.667 -10 -38 -10zM136.002 18.999c-18 8 -27 17.666 -27 28.999
c0 6.66699 4.16699 13.667 12.5 21s15.833 11.333 22.5 12h14c5.33301 0 8 -2.33301 8 -7c0 -3.33301 -1.33301 -8.16602 -4 -14.499s-4 -11.166 -4 -14.499c0 -8.66699 -7.33301 -17.334 -22 -26.001z" />
    <glyph glyph-name="at" unicode="@" horiz-adv-x="666" 
d="M277 -92c-66.667 0 -121.668 20.333 -165.001 61c-43.333 41.333 -65 94.666 -65 159.999c0 57.333 19 111 57 161c34 45.333 78.333 82.333 133 111h-21c-4 -0.666992 -7.5 -1 -10.5 -1h-7.5h-31c-14.667 0 -22 1.66699 -22 5c0 12 51.667 18 155 18
c0.666992 0.666992 5.33398 2 14.001 4c24 6.66699 47.5 11.5 70.5 14.5s45.167 4.5 66.5 4.5c110 0 165 -40 165 -120c0 -20 -4.66699 -42 -14 -66c15.333 -27.333 23 -55.333 23 -84c0 -73.333 -40.667 -137.666 -122 -192.999c-74 -50 -149.333 -75 -226 -75z
M586.999 277c4 15.333 6 29.667 6 43c0 70.667 -47 106 -141 106c-32 0 -65 -4.33301 -99 -13c97.333 -22.667 175.333 -68 234 -136zM254.999 -68.999c70.667 0 142.335 23.0029 215.002 69.0029c81.333 51.333 122 110.333 122 177c0 7.33301 -0.666992 14.666 -2 21.999
s-3.33301 14.666 -6 21.999c-7.33301 -19.333 -16.166 -39 -26.499 -59s-22.166 -39.667 -35.499 -59c-36 -53.333 -67.333 -80 -94 -80c-23.333 0 -41.333 18.333 -54 55c-10 28 -15 56 -15 84c-64.667 -98 -112 -147 -142 -147c-20 0 -30 12 -30 36
c0 34.667 22.667 82.667 68 144c47.333 63.333 87.666 95 120.999 95c10 0 18.333 -4.16699 25 -12.5s10 -17.5 10 -27.5c0 -4.66699 -1.33301 -7 -4 -7c0.666992 0 -1.83301 2.33301 -7.5 7s-13.167 7 -22.5 7c-15.333 0 -28.666 -3.66699 -39.999 -11
c-30 -18.667 -57 -44.667 -81 -78c-28.667 -37.333 -43 -71 -43 -101c0 -16 5.33301 -24 16 -24c17.333 0 44.666 25.667 81.999 77c15.333 22 28.166 41.833 38.499 59.5s17.833 33.167 22.5 46.5c5.33301 4.66699 11 7 17 7c3.33301 0 5.33301 -1.33301 6 -4
c-4.66699 -8.66699 -7 -24.667 -7 -48c0 -27.333 3 -52.666 9 -75.999c9.33301 -34 23.333 -51 42 -51c21.333 0 48.666 25.667 81.999 77c13.333 21.333 24.666 41.166 33.999 59.499s16.333 35.166 21 50.499c-54 87.333 -147.667 139 -281 155
c-59.333 -20 -110 -56 -152 -108c-43.333 -55.333 -65 -113 -65 -173c0 -54 16 -98.167 48 -132.5s75 -51.5 129 -51.5z" />
    <glyph glyph-name="A" unicode="A" horiz-adv-x="558" 
d="M55 -76c-34.667 0 -52.001 22.3359 -52.001 67.0029c0 54 26.333 124.333 79 211c-44.667 4.66699 -67 13.334 -67 26.001c0 12 13.333 18 40 18c6.66699 0 24.334 -1 53.001 -3c117.333 175.333 211.333 282.666 282 321.999c0.666992 0.666992 2.66699 1 6 1
c17.333 0 26 -16.333 26 -49c0 -21.333 -3 -35.666 -9 -42.999c-0.666992 -2.66699 -1.16699 -6.33398 -1.5 -11.001s-0.5 -10.334 -0.5 -17.001c0 -35.333 1.33301 -69.833 4 -103.5s6.66699 -66.5 12 -98.5l50 6l28.5 3.5c8.33301 1 15.833 1.5 22.5 1.5
c3.33301 0 5 -0.666992 5 -2c0 -4 -16 -9 -48 -15c-32 -4.66699 -50 -10.334 -54 -17.001c9.33301 -72.667 24.666 -126 45.999 -160c13.333 -21.333 26 -32 38 -32c4 0 9 1.5 15 4.5s9.33301 4.5 10 4.5l2 -2l-30 -41c-8 -8.66699 -16.333 -13 -25 -13
c-27.333 0 -49.666 35.667 -66.999 107c-4.66699 21.333 -8.83398 43.666 -12.501 66.999s-6.16699 47.333 -7.5 72c-82.667 -8 -148.667 -14 -198 -18s-81.666 -6.33301 -96.999 -7c-48 -86 -72 -152.333 -72 -199c0 -36.667 16.667 -55 50 -55c14.667 0 33 4 55 12v-2
c0 -4.66699 -12 -11.667 -36 -21s-39.667 -14 -47 -14zM280.999 239.003c40.667 0 80.333 1.00098 119 3.00098c-3.33301 15.333 -6.83301 34.166 -10.5 56.499s-7.16699 48.5 -10.5 78.5l-14 138c-70 -49.333 -148.333 -140 -235 -272
c27.333 -1.33301 53.5 -2.33301 78.5 -3s49.167 -1 72.5 -1z" />
    <glyph glyph-name="B" unicode="B" horiz-adv-x="551" 
d="M161 -99c-25.333 0 -37.999 33.668 -37.999 101.001c0 23.333 2 58 6 104c2.66699 23.333 4.5 43.833 5.5 61.5s1.5 32.167 1.5 43.5c-8.66699 -4.66699 -15.667 -7 -21 -7c-2.66699 0 -4 2.33301 -4 7c0 17.333 12.333 33 37 47c14 59.333 21 119 21 179v25
c0 8 -0.333008 16 -1 24c12.667 22.667 25 34 37 34c8.66699 0 13 -8.33301 13 -25c0 -12.667 -1.5 -28.834 -4.5 -48.501s-7.83301 -42.167 -14.5 -67.5c-12 -50.667 -18 -89 -18 -115c4.66699 -3.33301 10.667 -5 18 -5c34 0 85.333 23.333 154 70
c72.667 48.667 109 88.667 109 120c0 50 -74 75 -222 75c-34.667 0 -69.167 -1 -103.5 -3s-69.166 -5.33301 -104.499 -10c11.333 34 27.333 51 48 51h43h11.5c4.33301 0 9.16602 0.333008 14.499 1h18c218 0 327 -32.333 327 -97c0 -58 -69 -121.667 -207 -191
c16.667 -2.66699 37.5 -6.5 62.5 -11.5s53.833 -11.167 86.5 -18.5c72 -18 108 -43.333 108 -76c0 -30.667 -42 -74.667 -126 -132c-34 -22.667 -65.5 -42.334 -94.5 -59.001s-55.833 -29.667 -80.5 -39c-2.66699 -0.666992 -4.83398 -1.16699 -6.50098 -1.5
s-3.16699 -0.5 -4.5 -0.5c-7.33301 0 -11 3.66699 -11 11c0 8.66699 9 17.334 27 26.001l38 15c130.667 54.667 196 105.667 196 153c0 32.667 -30.667 58 -92 76c-42.667 12.667 -86.667 19 -132 19c-38.667 0 -66.334 -4.33301 -83.001 -13c-10 -40.667 -15 -92 -15 -154
c0 -82 11.667 -127.667 35 -137c-11.333 -21.333 -22.666 -32 -33.999 -32z" />
    <glyph glyph-name="C" unicode="C" horiz-adv-x="625" 
d="M295 -56c-75.333 0 -139.002 23.998 -191.002 71.998c-54 49.333 -81 111 -81 185c0 107.333 45.333 197.333 136 270c84.667 68.667 181.667 103 291 103c38 0 68.667 -8.66699 92 -26c17.333 34 29.666 51 36.999 51c2 0 3 -1 3 -3c0 -2.66699 -4 -11.667 -12 -27
l-8 -14.5l-8 -15.5c17.333 -17.333 26 -34.666 26 -51.999c0 -6 -1.66699 -9.66699 -5 -11l-30 36c-3.33301 -13.333 -6.16602 -28.833 -8.49902 -46.5s-3.83301 -37.5 -4.5 -59.5c0 -4.66699 -0.5 -11.167 -1.5 -19.5s-2.16699 -18.833 -3.5 -31.5
c-2.66699 -24.667 -11 -37 -25 -37c-10.667 0 -16 13.667 -16 41c0 38.667 14.667 93 44 163c-21.333 11.333 -47.666 17 -78.999 17c-95.333 0 -183.666 -37 -264.999 -111c-84 -76 -126 -161 -126 -255c0 -70 25 -123 75 -159c42.667 -30.667 100.667 -46 174 -46
c62 0 130.667 22.667 206 68c72 42.667 126.333 91.334 163 146.001c2.66699 4.66699 5.66699 7 9 7c4.66699 0 7 -3.33301 7 -10c0 -2 -1 -4 -3 -6c-44.667 -61.333 -102.667 -114 -174 -158c-78.667 -47.333 -152.667 -71 -222 -71z" />
    <glyph glyph-name="D" unicode="D" horiz-adv-x="679" 
d="M194 -62c-50 0 -74.999 59.998 -74.999 179.998c0 126 18.333 263.333 55 412c-4.66699 2 -11.667 3 -21 3c-52.667 0 -96.667 -13 -132 -39c-5.33301 -3.33301 -10 -5 -14 -5c-16.667 0 -25 6.66699 -25 20c0 16 19.667 30.667 59 44c24.667 8.66699 51 14.667 79 18
c10 -4 15 -8 15 -12c0 -1.33301 -0.666992 -2.66602 -2 -3.99902c6.66699 1.33301 15.167 2.33301 25.5 3s22.833 1.33398 37.5 2.00098c12 14 26 21 42 21c6.66699 0 10 -2.66699 10 -8c0 -2.66699 -1 -6 -3 -10c82.667 -2 171.334 -22 266.001 -60
c119.333 -47.333 179 -103.666 179 -168.999c0 -64 -36.333 -130 -109 -198c-60.667 -56.667 -126.334 -99.334 -197.001 -128.001c-34 -14.667 -78.667 -26 -134 -34c-6 -0.666992 -15 -6.66699 -27 -18c-10.667 -12 -20.334 -18 -29.001 -18zM209.001 -32.002
c4.66699 0 10.332 6.33008 16.999 18.9971c7.33301 12 13.666 18 18.999 18c6.66699 0 12.667 -6.66699 18 -20c48 14 92.5 30.333 133.5 49s78.167 39.667 111.5 63c92 63.333 138 134 138 212c0 64 -56 119 -168 165c-92.667 38 -177 57 -253 57
c-9.33301 -21.333 -18.166 -49.166 -26.499 -83.499s-16.166 -75.166 -23.499 -122.499c-6.66699 -42.667 -11.667 -81.667 -15 -117s-5 -66.666 -5 -93.999c0 -97.333 18 -146 54 -146z" />
    <glyph glyph-name="E" unicode="E" horiz-adv-x="552" 
d="M89 517c-18 0 -26.999 1.66699 -26.999 5c0 8 7.33301 16.333 22 25s26.667 13 36 13c17.333 0 38.666 -0.5 63.999 -1.5s55 -2.83301 89 -5.5c34.667 -2.66699 64.834 -4.5 90.501 -5.5s46.834 -1.5 63.501 -1.5c44 0 84 3 120 9
c-2.66699 -8.66699 -11.334 -15 -26.001 -19c-46.667 -12.667 -129.667 -19 -249 -19h-26c-10.667 0 -23 0.333008 -37 1c-13.333 0.666992 -25.166 1 -35.499 1h-26.5c-6.66699 0 -16.334 -0.333008 -29.001 -1s-22.334 -1 -29.001 -1zM201.001 -32
c-92.667 0 -138.998 52.6699 -138.998 158.003c0 38.667 6 84.334 18 137.001c-4 0 -10.167 0.333008 -18.5 1s-14.5 1 -18.5 1c-12 0 -18 2.66699 -18 8c0 8 8.33301 16.333 25 25c7.33301 3.33301 14.166 6.16602 20.499 8.49902s11.833 3.83301 16.5 4.5
c4.66699 29.333 8 58.333 10 87s3 56.334 3 83.001c15.333 23.333 28.666 35 39.999 35c7.33301 0 11 -6.33301 11 -19c0 -8.66699 -2.66699 -28.834 -8 -60.501s-13.333 -74.834 -24 -129.501l200 -6c6 0 13.5 0.166992 22.5 0.5s19.833 0.833008 32.5 1.5
s23.5 1.16699 32.5 1.5s16.5 0.5 22.5 0.5c1.33301 0 2 -0.333008 2 -1l-2 -2c-0.666992 -0.666992 -1.66699 -1.33398 -3 -2.00098c-20 -9.33301 -40.333 -16 -61 -20c-50 -10 -133.333 -15 -250 -15c-3.33301 -17.333 -6 -33.833 -8 -49.5s-3 -30.834 -3 -45.501
c0 -115.333 58 -173 174 -173c67.333 0 136.333 18 207 54l41 24c18.667 10.667 30.667 16 36 16c4 0 6 -2.33301 6 -7c0 -19.333 -15.333 -35.333 -46 -48c-43.333 -19.333 -95.666 -35.333 -156.999 -48c-30.667 -6.66699 -59.834 -11.667 -87.501 -15
s-53.167 -5 -76.5 -5z" />
    <glyph glyph-name="F" unicode="F" horiz-adv-x="356" 
d="M123 -25c-30.667 0 -46.0049 41.333 -46.0049 124c0 20.667 1 44.334 3 71.001s5.33301 56.667 10 90l-1 -1c-1.33301 0.666992 -4.66602 1 -9.99902 1c-36 0 -55.333 1.33301 -58 4c4 14.667 19.333 28.334 46 41.001l29 -3c7.33301 45.333 12.833 86.166 16.5 122.499
s5.83398 67.833 6.50098 94.5h-6c-6.66699 0 -16.5 -0.333008 -29.5 -1s-22.833 -1 -29.5 -1c-17.333 0 -26.666 1.66699 -27.999 5c4 9.33301 12.5 18 25.5 26s24.5 12 34.5 12h27c9.33301 0 19.333 -0.333008 30 -1c7.33301 5.33301 13 8 17 8c5.33301 0 8.33301 -3 9 -9
l224 -12c44 0 84 3 120 9c-4 -10 -13 -16.333 -27 -19c-52 -13.333 -136 -20 -252 -20c-10.667 0 -21.667 0.166992 -33 0.5s-22.666 0.5 -33.999 0.5c-5.33301 -23.333 -11.666 -53 -18.999 -89l-25 -127h114h18.5c7 0 14.833 0.333008 23.5 1h29c59.333 0 89 -3 89 -9
c0 -11.333 -30.333 -19 -91 -23l-189 -8c-4 -30 -6 -57.667 -6 -83c0 -30 3 -60 9 -90c9.33301 -45.333 23 -68 41 -68c4 0 9 1.66699 15 5s9.66699 5 11 5l2 -2c0 -4 -5 -10 -15 -18l-21 -22c-9.33301 -8.66699 -18.333 -13.334 -27 -14.001h-3z" />
    <glyph glyph-name="G" unicode="G" horiz-adv-x="615" 
d="M291 -56c-75.333 0 -138.67 24.333 -190.003 73c-52 49.333 -78 110.666 -78 183.999c0 107.333 45.333 197.333 136 270c84.667 68.667 181.667 103 291 103c70.667 0 113.334 -25 128.001 -75c0.666992 -2 1.16699 -4 1.5 -6s0.5 -4 0.5 -6
c0 -6 -1.66699 -9.66699 -5 -11l-27 33c-22 20 -54.333 30 -97 30c-95.333 0 -183.666 -37 -264.999 -111c-84 -76 -126 -161 -126 -255c0 -70 25 -123 75 -159c42.667 -30.667 100.667 -46 174 -46c52.667 0 101 9.66699 145 29c52.667 24 83.667 58.667 93 104
c4 21.333 6 61.333 6 120c0 6.66699 3.83301 13.334 11.5 20.001s14.834 10 21.501 10c6 0 10.333 -2.33301 13 -7c-4.66699 -18.667 -8.16699 -43 -10.5 -73s-3.5 -65.667 -3.5 -107c0 -7.33301 0.5 -18 1.5 -32s1.5 -24.667 1.5 -32c0 -10 -3.33301 -15 -10 -15
c-14.667 0 -25.667 15 -33 45c-69.333 -57.333 -154 -86 -254 -86z" />
    <glyph glyph-name="H" unicode="H" horiz-adv-x="608" 
d="M148 -32c-29.333 0 -43.9951 40.334 -43.9951 121.001c0 16 1 39.333 3 70c1.33301 15.333 2.33301 29 3 41s1 22 1 30c-2 0.666992 -6.33301 1 -13 1s-15.5 -0.333008 -26.5 -1s-22.167 -1.5 -33.5 -2.5s-20.333 -1.5 -27 -1.5h-11c12 26 31.333 39 58 39
c5.33301 0 13.666 -0.5 24.999 -1.5s19.666 -1.5 24.999 -1.5s9 0.333008 11 1c1.33301 22 3.66602 47.833 6.99902 77.5s7.66602 63.167 12.999 100.5c-6.66699 -2 -11.334 -3 -14.001 -3c-4 0 -7.33301 2.33301 -10 7c20 94 41.333 141 64 141c11.333 0 17 -11.333 17 -34
c0 -10.667 -7 -46.667 -21 -108c-8 -34.667 -14 -67.334 -18 -98.001s-6.33301 -58.667 -7 -84h89.5c28.333 0 55.833 0.333008 82.5 1l172 2c3.33301 55.333 5.83301 99.333 7.5 132s2.5 54 2.5 64c0 11.333 -0.166992 22.833 -0.5 34.5s-0.833008 23.834 -1.5 36.501
c13.333 23.333 26 35 38 35c8 0 12 -8 12 -24c0 -8 -1 -20.5 -3 -37.5l-8 -65.5c-2.66699 -18.667 -5.66699 -42.667 -9 -72l-12 -103c33.333 0 50 -3 50 -9c0 -8.66699 -17 -14.667 -51 -18v-19c0 -36.667 4 -74.667 12 -114c11.333 -55.333 28 -83 50 -83
c4 0 9.16699 1.5 15.5 4.5s9.83301 4.5 10.5 4.5l2 -2c0 -2 -1.33301 -4.33301 -4 -7s-6 -6.33398 -10 -11.001l-21 -22c-3.33301 -4 -7 -7.33301 -11 -10s-8.33301 -4 -13 -4h-3c-38 0 -57 60 -57 180c0 13.333 0.166992 26.833 0.5 40.5s0.833008 27.167 1.5 40.5
c-16.667 -0.666992 -54 -1.16699 -112 -1.5s-136.333 -0.5 -235 -0.5c-3.33301 -18.667 -5.83301 -38 -7.5 -58s-2.5 -40.667 -2.5 -62c0 -72 12 -115 36 -129c3.33301 -2 5 -3.33301 5 -4c0 -8.66699 -9.33301 -13 -28 -13z" />
    <glyph glyph-name="I" unicode="I" horiz-adv-x="359" 
d="M168 -21c-4.66699 0 -7.33105 2.33691 -7.99805 7.00391l-4 14h-119c-2 0 -3 1.66699 -3 5c0 16 18 24 54 24c-1.33301 0 3.16699 -0.166992 13.5 -0.5s26.833 -0.833008 49.5 -1.5c-0.666992 3.33301 -1.16699 8.5 -1.5 15.5s-0.5 15.833 -0.5 26.5
c0 21.333 0.833008 52.166 2.5 92.499s4.16699 90.166 7.5 149.499c2.66699 59.333 6.66699 120.666 12 183.999l-120 -4c-0.666992 0.666992 -1 1.33398 -1 2.00098c0 4 2.33301 9.33301 7 16c4.66699 7.33301 9 11.666 13 12.999s39.333 2 106 2
c6.66699 14.667 19.667 22 39 22c2.66699 0 4 -1 4 -3s-0.333008 -5.16699 -1 -9.5s-1 -7.5 -1 -9.5h66c4.66699 0 10.167 0.166992 16.5 0.5s13.833 0.5 22.5 0.5h27c14 0 21.667 -0.666992 23 -2c0 -4 -8.33301 -9.33301 -25 -16c-18 -7.33301 -29 -11 -33 -11h-100
c-18 -110.667 -27 -219.667 -27 -327c0 -26 0.666992 -51 2 -75s3.33301 -46.667 6 -68h33c11.333 0 20 -0.166992 26 -0.5l9 -0.5c0 -0.666992 7.83301 0.166016 23.5 2.49902s34.167 3.5 55.5 3.5h2c1.33301 0 2 -0.333008 2 -1c0 -2 -9 -7 -27 -15
c-8.66699 -4 -16 -7 -22 -9s-10.333 -3.33301 -13 -4c-6.66699 -0.666992 -16.334 -1.16699 -29.001 -1.5s-28.667 -0.5 -48 -0.5c-2 -4 -7.83301 -8.5 -17.5 -13.5s-16.834 -7.5 -21.501 -7.5z" />
    <glyph glyph-name="J" unicode="J" horiz-adv-x="370" 
d="M84 -152c-24 0 -51.001 17.665 -81.001 52.998c-24 28 -42 57 -54 87v4c0 12.667 3 18 9 16c20.667 -32 44 -60 70 -84c36 -34 66.667 -51 92 -51c93.333 0 140 158.333 140 475c0 34.667 -0.5 67 -1.5 97s-2.83301 57.667 -5.5 83c-8 0 -18 -0.333008 -30 -1
s-26 -1.66699 -42 -3c-32 -2 -56 -3 -72 -3c-2.66699 0 -4 1.33301 -4 4c0 6 3 12.5 9 19.5s12 11.167 18 12.5h126c7.33301 15.333 20.333 23 39 23c2.66699 0 4 -1.33301 4 -4c0 -2 -0.333008 -5.33301 -1 -10s-1 -8 -1 -10c8 0.666992 25.5 1.33398 52.5 2.00098
s63.833 1.33398 110.5 2.00098l3 1l2 -2c0 -3.33301 -8.66699 -8.66602 -26 -15.999c-8.66699 -3.33301 -15.667 -5.83301 -21 -7.5s-9.66602 -2.83398 -12.999 -3.50098c-12.667 0 -28 -0.166992 -46 -0.5s-39 -0.833008 -63 -1.5c1.33301 -6 2.33301 -24 3 -54
c2 -38.667 3 -77 3 -115c0 -342 -73.333 -513 -220 -513z" />
    <glyph glyph-name="K" unicode="K" horiz-adv-x="525" 
d="M98 -25c-31.333 0 -46.999 40.668 -46.999 122.001c0 4.66699 0.166992 9.5 0.5 14.5s0.5 10.167 0.5 15.5h-3c-6 0 -9 4.33301 -9 13c0 11.333 5 22.333 15 33c2.66699 127.333 9.66699 216.666 21 267.999c-6.66699 -2 -11 -3 -13 -3c-4 0 -7 2.33301 -9 7
c16 94 35.667 141 59 141c12 0 18 -12 18 -36c0 -12 -7 -52.667 -21 -122c-5.33301 -28.667 -10.5 -62.5 -15.5 -101.5s-9.5 -83.833 -13.5 -134.5l98 82c-7.33301 26 -12.833 47 -16.5 63s-5.5 26.667 -5.5 32c0 4 1.66699 6 5 6c2.66699 0 4.33398 -1.33301 5.00098 -4
l10.5 -35l15.5 -50l121 104c35.333 30.667 64.666 57.667 87.999 81l86 85c4.66699 4.66699 10.334 7 17.001 7c12 0 18 -4.33301 18 -13c0 -4 -3 -8 -9 -12c-52.667 -38 -104.834 -79.5 -156.501 -124.5s-102.167 -93.833 -151.5 -146.5
c17.333 -52.667 41 -101.667 71 -147c40.667 -60.667 80.667 -91 120 -91s67.666 28.667 84.999 86c12 39.333 18 85 18 137c0 24 -1 38.333 -3 43c2 2 3.66699 3 5 3c4.66699 0 8.66699 -5.16699 12 -15.5s5 -18.5 5 -24.5c0 -56.667 -10 -113 -30 -169
c-26 -73.333 -61.667 -110 -107 -110c-44 0 -86.667 34.667 -128 104c-13.333 23.333 -26 48.833 -38 76.5s-23 57.5 -33 89.5c-20.667 -14.667 -53 -47 -97 -97c5.33301 -87.333 21.666 -131 48.999 -131c4 0 9.33301 1.66699 16 5s10.334 5 11.001 5l2 -2
c0 -3.33301 -12.667 -17 -38 -41c-8.66699 -8.66699 -18 -13 -28 -13z" />
    <glyph glyph-name="L" unicode="L" horiz-adv-x="524" 
d="M201 -32c-90.667 0 -136.001 51.334 -136.001 154.001c0 39.333 6 86 18 140c9.33301 42 16.666 76.333 21.999 103s7 45.667 5 57l-1 6c-0.666992 0.666992 -1.66699 1 -3 1s-3.5 -0.333008 -6.5 -1s-5.16699 -1 -6.5 -1c-3.33301 0 -5.66602 1.66699 -6.99902 5
c3.33301 14 7 27.833 11 41.5s8.66699 26.834 14 39.501c17.333 40 34 60 50 60c9.33301 0 14 -8 14 -24c0 -2.66699 -1.5 -11.334 -4.5 -26.001l-12.5 -61l-43 -197c-3.33301 -16.667 -6 -32.834 -8 -48.501s-3 -31.167 -3 -46.5c0 -115.333 58 -173 174 -173
c67.333 0 136.333 18 207 54l41 24c18.667 10.667 30.667 16 36 16c4 0 6 -2.33301 6 -7c0 -18 -15.333 -34 -46 -48c-43.333 -19.333 -96 -35.333 -158 -48c-30.667 -6.66699 -59.667 -11.667 -87 -15s-52.666 -5 -75.999 -5z" />
    <glyph glyph-name="M" unicode="M" horiz-adv-x="768" 
d="M709 0c-46.667 0 -85.668 136.001 -117.001 408.001c-18.667 -41.333 -37.667 -80.333 -57 -117s-38.666 -70.667 -57.999 -102c-64.667 -106.667 -116.667 -160 -156 -160c-45.333 0 -82 59.667 -110 179c-10.667 45.333 -18.667 88.666 -24 129.999s-8 80.333 -8 117
c0 56 9.66699 85.667 29 89l5 -82c5.33301 -84 15.333 -157 30 -219c26 -106.667 62 -160 108 -160c32 0 77.667 52.667 137 158c47.333 84 80.333 154 99 210l-7 65c0 32.667 10.333 49 31 49c17.333 0 26 -16.667 26 -50c0 -19.333 -3 -32.666 -9 -39.999v-17
c0 -30.667 1.33301 -62.334 4 -95.001s6.66699 -66.334 12 -101.001c3.33301 -20.667 7.33301 -41 12 -61s10 -39.667 16 -59c20 -63.333 41.667 -95 65 -95c3.33301 0 7.83301 1.5 13.5 4.5s9.16699 4.5 10.5 4.5l3 -3c0 -3.33301 -10 -16.666 -30 -39.999
c-6.66699 -8.66699 -15 -13 -25 -13zM47.999 -23.999c-16 0 -24.001 22.332 -24.001 66.999c0 84 31.667 221 95 411l11.5 32l18.5 51c6.66699 18.667 15.334 28 26.001 28c5.33301 0 8.33301 -3.33301 9 -10l-53 -136.5c-14.667 -38.333 -26 -69.5 -34 -93.5
c-30.667 -92.667 -46 -172 -46 -238c0 -10 2.66699 -26.667 8 -50c2.66699 -10.667 4.66699 -19.667 6 -27s2 -12.666 2 -15.999c0 -12 -6.33301 -18 -19 -18z" />
    <glyph glyph-name="N" unicode="N" horiz-adv-x="599" 
d="M98 -136c-48.667 0 -73.001 48.668 -73.001 146.001c0 32.667 4 69.5 12 110.5s18 83.5 30 127.5l35 129c11.333 42 20.333 80.333 27 115c0.666992 2 -0.666016 5.83301 -3.99902 11.5s-5 10.167 -5 13.5c0 8.66699 5.33301 19.334 16 32.001c11.333 13.333 21 20 29 20
c2.66699 0 4.33398 -1 5.00098 -3c14.667 -74.667 51.334 -172.667 110.001 -294c69.333 -143.333 128.333 -215 177 -215c55.333 0 83 54.333 83 163c0 107.333 -29.667 214.333 -89 321c-1.33301 4 -2 6.66699 -2 8c0 14.667 8.66699 22 26 22
c3.33301 0 5.66602 -0.666992 6.99902 -2l26 -49c12.667 -24.667 24.667 -37 36 -37c8 0 14.667 4.66699 20 14c0.666992 0.666992 1.66699 1 3 1c3.33301 0 5 -2.66699 5 -8c0 -8.66699 -4 -16.334 -12 -23.001s-16.333 -10 -25 -10c-7.33301 0 -13.666 2.66699 -18.999 8
c13.333 -16.667 24.666 -54 33.999 -112c3.33301 -22.667 5.83301 -44 7.5 -64s2.5 -39 2.5 -57c0 -48.667 -7.66699 -94.334 -23 -137.001c-20.667 -58 -51.334 -87 -92.001 -87c-67.333 0 -142.666 95.667 -225.999 287c-3.33301 7.33301 -10.333 25.333 -21 54l-44 117
c-11.333 -38 -21.833 -70.833 -31.5 -98.5l-26.5 -76c-8 -23 -14.667 -46 -20 -69s-9.5 -49 -12.5 -78s-4.5 -63.5 -4.5 -103.5c0 -96.667 18.667 -145 56 -145c4 0 8.83301 1.66699 14.5 5s9.16699 5 10.5 5c2 0 3 -1.33301 3 -4c0 -8 -5.33301 -16.333 -16 -25
s-20.334 -13 -29.001 -13z" />
    <glyph glyph-name="O" unicode="O" horiz-adv-x="643" 
d="M199 -38c-115.333 0 -173.001 59 -173.001 177c0 80.667 26 157.334 78 230.001c52 73.333 116 122.333 192 147c2.66699 -0.666992 4 -2.66699 4 -6c0 -9.33301 -17.333 -22 -52 -38c-45.333 -20.667 -87.333 -67 -126 -139c-36.667 -66.667 -55 -127.334 -55 -182.001
c0 -100.667 54 -151 162 -151c84.667 0 168.334 29 251.001 87c90.667 62.667 136 134.667 136 216c0 58 -21.667 113.667 -65 167c-46 56 -97.333 84 -154 84c-11.333 0 -25 -3.33301 -41 -10c-16 -6 -24.667 -9 -26 -9c-4.66699 0 -7 2 -7 6c0 11.333 12 19.333 36 24
c17.333 4 33.333 6 48 6c67.333 0 126 -25.333 176 -76c50.667 -50.667 76 -109.667 76 -177c0 -102 -52.667 -188.667 -158 -260c-94 -64 -194.667 -96 -302 -96z" />
    <glyph glyph-name="P" unicode="P" horiz-adv-x="487" 
d="M139 -24c-50 0 -74.999 48.0029 -74.999 144.003c0 84.667 15 191 45 319l12 45c5.33301 8.66699 13 17 23 25c-13.333 2 -20 4.33301 -20 7c0 28.667 23.667 43 71 43c42.667 0 96.667 -16.333 162 -49c74 -36.667 111 -73.334 111 -110.001
c0 -39.333 -25.667 -76.666 -77 -111.999c-17.333 -12.667 -36.833 -24 -58.5 -34s-45.167 -19.333 -70.5 -28c-36 -12 -62 -18 -78 -18c-26.667 0 -40 4 -40 12c0 0.666992 26.667 7 80 19c59.333 13.333 98.666 24.666 117.999 33.999c59.333 30 89 62.667 89 98
c0 37.333 -33.667 72.666 -101 105.999c-60 29.333 -110.333 44 -151 44c-10.667 0 -18.667 -4.66699 -24 -14c-0.666992 -0.666992 -3 -10.334 -7 -29.001c-32 -144 -48 -250.667 -48 -320c0 -105.333 21.333 -158 64 -158c8 0 17.333 2.66699 28 8v-4c0 -8 -7 -15 -21 -21
c-10 -4.66699 -20.667 -7 -32 -7z" />
    <glyph glyph-name="Q" unicode="Q" horiz-adv-x="685" 
d="M587 -232c-47.333 0 -97.667 34.6641 -151 103.997c-22 29.333 -56.333 85 -103 167l-57 -18c-54 -17.333 -97.333 -26 -130 -26c-98 0 -147 45.667 -147 137c0 49.333 27 130.333 81 243c58 120.667 107 181 147 181c10.667 0 16 -4.33301 16 -13
c0 -9.33301 -5.66699 -18.666 -17 -27.999c-18.667 -4 -36.334 -14.333 -53.001 -31c-36 -35.333 -68 -84.666 -96 -147.999c-27.333 -64 -41 -120.667 -41 -170c0 -92.667 48 -139 144 -139c22 0 70.333 10.333 145 31c-0.666992 3.33301 -2.33398 9 -5.00098 17
s-6.66699 18.667 -12 32c-8 21.333 -12 37 -12 47c0 22.667 3.33301 34 10 34c8.66699 0 20.334 -16.333 35.001 -49l7 -15.5l21 -46.5c53.333 21.333 107 55.333 161 102c64.667 56.667 97 108 97 154c0 57.333 -35.667 107.666 -107 150.999
c-62.667 38.667 -125 58 -187 58c-3.33301 0 -6 -0.333008 -8 -1h-8c-13.333 0 -20 1.66699 -20 5c0 7.33301 16.333 11 49 11c65.333 0 132.333 -18 201 -54c81.333 -43.333 122 -94 122 -152c0 -89.333 -98 -187.666 -294 -294.999c21.333 -49.333 51.333 -98 90 -146
c48.667 -60.667 93.334 -91 134.001 -91c54 0 89 51.333 105 154l8 50c1.33301 2 2.33301 3 3 3c4 0 6 -10 6 -30c0 -47.333 -11 -94.666 -33 -141.999c-27.333 -57.333 -61 -86 -101 -86z" />
    <glyph glyph-name="R" unicode="R" horiz-adv-x="536" 
d="M364 -38c-56 0 -110.667 65.6641 -164 196.997c-4 14 -11 34 -21 60c-3.33301 6.66699 -9 11.667 -17 15c-6 3.33301 -9 11 -9 23c0 28.667 6.33301 43 19 43c4 0 7.33301 -1.33301 10 -4l10 -27l14 -38v2c0 3.33301 2.33301 5.33301 7 6
c16.667 2.66699 32 5.33398 46 8.00098s26.333 5.66699 37 9c34 10 66 24.333 96 43c43.333 26 65 51 65 75c0 28.667 -21.667 56 -65 82c-42 26.667 -90.333 44 -145 52c-36 6 -87.667 9 -155 9c-10.667 0 -20.834 -0.5 -30.501 -1.5s-18.5 -2.16699 -26.5 -3.5
c2 16.667 9.33301 27.334 22 32.001c3.33301 1.33301 8.5 2.33301 15.5 3s15.833 1.33398 26.5 2.00098c7.33301 0.666992 15.5 1 24.5 1h29.5h17c98.667 0 181.334 -19 248.001 -57c50 -28.667 75 -61.334 75 -98.001c0 -38 -37 -77 -111 -117
c-66.667 -36 -120.667 -54 -162 -54c-7.33301 0 -12 2.33301 -14 7c57.333 -146 115.333 -219 174 -219c38.667 0 67 29 85 87c12 39.333 18 84.333 18 135c0 24.667 -1 39.334 -3 44.001c1.33301 2 2.66602 3 3.99902 3c4.66699 0 8.83398 -5 12.501 -15s5.5 -18 5.5 -24
c0 -57.333 -10 -114 -30 -170c-26 -73.333 -62 -110 -108 -110zM100 -45.0029c-35.333 0 -51.001 33.3369 -47.001 100.004l1 15c2 33.333 5.83301 68.666 11.5 105.999s12.834 76.666 21.501 117.999c18 83.333 27 140 27 170v10c0 3.33301 -0.333008 6.66602 -1 9.99902
c10 17.333 19.333 26 28 26c7.33301 0 11 -8.66699 11 -26v-6c0 -8.66699 -1.83301 -23.834 -5.5 -45.501s-9.16699 -49.834 -16.5 -84.501c-13.333 -62 -23.333 -114.667 -30 -158s-10 -77.666 -10 -102.999c0 -56 11.667 -93.667 35 -113
c-4.66699 -12.667 -13 -19 -25 -19z" />
    <glyph glyph-name="S" unicode="S" horiz-adv-x="415" 
d="M45 -83c-16 0 -24.001 5.66211 -24.001 16.9951c0 16.667 15.333 29 46 37c1.33301 0.666992 5.5 1.5 12.5 2.5s17.167 2.83301 30.5 5.5c60 10.667 104.667 24.667 134 42c48.667 30 73 58 73 84c0 25.333 -25.333 50 -76 74l-59 27l-82 38
c-50.667 24.667 -76 53.667 -76 87c0 44.667 46 91.334 138 140.001c84.667 45.333 151.667 68 201 68c42.667 0 64 -12 64 -36c0 -44.667 -10.333 -85.667 -31 -123c-11.333 -21.333 -20.666 -32 -27.999 -32c-2.66699 0 -4 2.66699 -4 8c0 12.667 3.33301 30 10 52
c7.33301 24 11 41.667 11 53c0 30.667 -19 46 -57 46c-40.667 0 -95.334 -16.667 -164.001 -50c-75.333 -37.333 -113 -74 -113 -110c0 -17.333 6.66699 -33.666 20 -48.999s33.333 -28.666 60 -39.999l148 -60c53.333 -22 80 -46 80 -72
c0 -41.333 -42 -84.666 -126 -129.999c-10.667 -5.33301 -31.167 -14.666 -61.5 -27.999s-71.166 -30.333 -122.499 -51h-4z" />
    <glyph glyph-name="T" unicode="T" horiz-adv-x="434" 
d="M279 -17c-43.333 0 -64.999 45.3311 -64.999 135.998c0 18.667 1 40.334 3 65.001l15 223c0.666992 11.333 1.66699 26.833 3 46.5s2.66602 43.834 3.99902 72.501c-6 0 -16 -0.333008 -30 -1s-32.333 -1.66699 -55 -3c-10.667 -0.666992 -20.5 -1.16699 -29.5 -1.5
s-17.5 -0.5 -25.5 -0.5c-5.33301 0 -10.5 0.166992 -15.5 0.5s-9.83301 0.5 -14.5 0.5c5.33301 -6 7 -9 5 -9c-13.333 0 -28 2.33301 -44 7c-22 6 -33 13 -33 21c0 11.333 12.333 17 37 17h5l86 -6c30 -2 58.667 -3 86 -3h20c6 0 11.667 0.333008 17 1
c20.667 11.333 32 17 34 17c4.66699 0 6.66699 -4.33301 6 -13c24 0 60 2 108 6s84 6 108 6c8 0 12 -2.33301 12 -7c0 -6 -25.333 -11.333 -76 -16c-27.333 -2.66699 -54.5 -5.16699 -81.5 -7.5s-53.167 -5.16602 -78.5 -8.49902c-22 -148 -33 -262.333 -33 -343
c0 -111.333 21.333 -167 64 -167c21.333 0 45.333 17.333 72 52c1.33301 -1.33301 2 -3 2 -5c0 -12.667 -11.333 -28.334 -34 -47.001c-21.333 -16 -39 -26 -53 -30c-8 -2 -14.333 -3 -19 -3z" />
    <glyph glyph-name="U" unicode="U" horiz-adv-x="516" 
d="M430 -11c-40.667 0 -60.999 48.999 -60.999 146.999c0 14.667 0.666992 31.5 2 50.5s3.33301 40.167 6 63.5c8 71.333 12 109.333 12 114c-41.333 -79.333 -87 -152 -137 -218c-75.333 -97.333 -138 -146 -188 -146c-26 0 -39 29.667 -39 89c0 52 10.667 114 32 186
l23.5 70c10.333 30 23.833 66.667 40.5 110c-10.667 -8.66699 -21 -13 -31 -13c-7.33301 0 -14.833 3.16699 -22.5 9.5s-11.5 12.833 -11.5 19.5c0 3.33301 1.33301 5 4 5c1.33301 -0.666992 2.33301 -1 3 -1s1.33398 -0.333008 2.00098 -1c6 -8.66699 12.333 -13 19 -13
c14 0 27 12 39 36l10.5 20.5l14.5 28.5c1.33301 1.33301 3.33301 2 6 2c18 0 27 -7 27 -21c0 -1.33301 -0.666992 -4 -2 -8c-29.333 -52.667 -55.333 -114 -78 -184c-24.667 -76 -37 -140.667 -37 -194c0 -62 12 -93 36 -93c41.333 0 91.333 41.333 150 124
c19.333 27.333 37.833 55.833 55.5 85.5s34.5 60.834 50.5 93.501c6.66699 12.667 13 26.5 19 41.5s12 30.833 18 47.5c0.666992 8 1.66699 18 3 30s3 26 5 42c4.66699 36.667 16 55 34 55c16 0 24 -7.66699 24 -23l-10 -45c-14.667 -64.667 -25.334 -123.667 -32.001 -177
s-10 -101.333 -10 -144c0 -94.667 20.667 -142 62 -142c22 0 44.333 22.333 67 67c2 0 3.33301 -2.33301 4 -7c0 -1.33301 -0.333008 -2.33301 -1 -3c-12 -24 -26.667 -45.667 -44 -65c-22.667 -26 -44.334 -39 -65.001 -39z" />
    <glyph glyph-name="V" unicode="V" horiz-adv-x="403" 
d="M196 -35c-4.66699 0 -7.33301 1.33105 -8 3.99805c-5.33301 10 -11.166 27 -17.499 51s-13.166 55.333 -20.499 94l-14.5 78l-14.5 78c-8 40.667 -16.667 75.334 -26 104.001s-19.333 51.667 -30 69l-22 26c-7.33301 8.66699 -11 19.334 -11 32.001
c0 34.667 8.66699 52 26 52c2 0 4.33301 -0.666992 7 -2c21.333 -14 41.666 -58 60.999 -132c10 -42 24 -113.333 42 -214c8 -44.667 15 -81 21 -109s10.667 -47.667 14 -59l134 300c73.333 158 127.666 237 162.999 237c18.667 0 28 -12.667 28 -38
c0 -11.333 -2 -17 -6 -17c-0.666992 0 -3.16699 4 -7.5 12s-9.16602 12 -14.499 12c-6.66699 0 -16 -7 -28 -21c-42 -50.667 -88.333 -129.334 -139 -236.001c-20.667 -44.667 -39.834 -88.667 -57.501 -132s-33.5 -85.666 -47.5 -126.999c-0.666992 -2 -1 -11 -1 -27
c0 -23.333 -10.333 -35 -31 -35z" />
    <glyph glyph-name="W" unicode="W" horiz-adv-x="747" 
d="M107 -1c-22 0 -33.0029 29.667 -33.0029 89c0 18.667 0.5 42 1.5 70l3.5 97c4 74 6 129.667 6 167c-11.333 -13.333 -22.333 -20 -33 -20c-5.33301 0 -12.166 2.16699 -20.499 6.5s-12.5 8.83301 -12.5 13.5c0 2 1.66699 3 5 3h3c7.33301 -5.33301 13.333 -8 18 -8
c14 0 24 15 30 45c2.66699 12.667 5.66699 31.334 9 56.001c2 3.33301 6.66699 5 14 5c17.333 0 26 -5.66699 26 -17c0 -1.33301 -0.666992 -3.33301 -2 -6c4 -12.667 6 -33 6 -61c0 -16.667 -0.666992 -37.167 -2 -61.5s-3.33301 -53.166 -6 -86.499
c-2.66699 -32.667 -4.66699 -61.334 -6 -86.001s-2 -45.334 -2 -62.001c0 -60 8.66699 -90 26 -90c20 0 53.667 38.667 101 116c6 10 19 33 39 69l82 146c43.333 77.333 70 116 80 116c3.33301 0 5.33301 -4.33301 6 -13c0 -9.33301 0.166992 -22.5 0.5 -39.5
s0.833008 -37.833 1.5 -62.5c6 -219.333 47 -329 123 -329c52.667 0 94.334 37 125.001 111c23.333 58 35 117.667 35 179c0 104 -28.333 168.333 -85 193c-1.33301 0.666992 -5.66602 1.83398 -12.999 3.50098s-17.666 3.83398 -30.999 6.50098c-6 1.33301 -9 4 -9 8
c0 5.33301 4.66699 10.166 14 14.499s17 6.5 23 6.5c46 0 80 -21.667 102 -65c17.333 -33.333 26 -75.333 26 -126c0 -105.333 -27.333 -201.333 -82 -288c-38.667 -60.667 -81.334 -91 -128.001 -91c-56 0 -95.333 59.333 -118 178
c-6.66699 33.333 -11.667 67.166 -15 101.499s-5 69.5 -5 105.5c0 6.66699 0.166992 13.167 0.5 19.5s0.5 12.833 0.5 19.5l-142 -243c-74 -126.667 -128 -190 -162 -190z" />
    <glyph glyph-name="X" unicode="X" horiz-adv-x="528" 
d="M-61 -199c-5.33301 0 -7.99902 2.33496 -7.99902 7.00195c0 36.667 8.66699 74 26 112c5.33301 12 13 26.333 23 43l35 57c11.333 18 40.666 56.667 87.999 116c20 25.333 36.667 47.666 50 66.999s23.333 35.333 30 48c0 4.66699 -25.333 58 -76 160
c-6 -17.333 -17 -26 -33 -26c-14.667 0 -22 2.66699 -22 8c0 3.33301 2 5.33301 6 6c2 -0.666992 4.66699 -1 8 -1c14 0 21 8.33301 21 25c0 12.667 -4.33301 29 -13 49c-8 22 -12 34 -12 36c0 9.33301 8.33301 14 25 14c7.33301 0 14.333 -1 21 -3l44 -97.5l62 -135.5
l110 142c46.667 60.667 87.667 102 123 124c3.33301 2 6 3 8 3c2.66699 0 4 -1.66699 4 -5l-4 -10l-14.5 -28.5c-3.66699 -7 -6.16699 -11.167 -7.5 -12.5c-8.66699 -16.667 -18.667 -28.667 -30 -36c-6 -0.666992 -16.667 -4.66699 -32 -12
c-4.66699 -3.33301 -13.834 -12.833 -27.501 -28.5l-54.5 -64.5c-44.667 -54.667 -67.667 -84.667 -69 -90c62 -144.667 118.667 -217 170 -217c39.333 0 68 28.667 86 86c12 39.333 18 84.333 18 135c0 24.667 -1.33301 39.667 -4 45c1.33301 1.33301 3 2 5 2
c4.66699 0 8.83398 -5 12.501 -15s5.5 -18 5.5 -24c0 -56.667 -10.333 -113.667 -31 -171c-27.333 -75.333 -63 -113 -107 -113c-36.667 0 -73.667 28.667 -111 86c-17.333 28 -40.333 73.333 -69 136c-120.667 -120.667 -198 -234.334 -232 -341.001
c-2.66699 -10.667 -7.66699 -33.667 -15 -69c-0.666992 -4.66699 -3.66699 -7 -9 -7z" />
    <glyph glyph-name="Y" unicode="Y" horiz-adv-x="364" 
d="M161 -208c-32.667 0 -48.999 22.9961 -48.999 68.9961c0 54.667 38.667 158.334 116 311.001c31.333 61.333 61.333 117 90 167s56.334 94.667 83.001 134c7.33301 11.333 13.5 20.333 18.5 27s8.5 11 10.5 13c-1.33301 0 -2.33301 -0.333008 -3 -1
c-12.667 -4 -21 -6 -25 -6c-6.66699 0 -10 1.66699 -10 5c0 6.66699 5.33301 11.334 16 14.001c14.667 4.66699 27.667 10.334 39 17.001s20.666 14.667 27.999 24c8.66699 10.667 19 16 31 16c9.33301 0 14 -2.66699 14 -8c0 -1.33301 -1.66699 -4.33301 -5 -9
c-38.667 -44.667 -76.834 -94.167 -114.501 -148.5s-75.167 -113.166 -112.5 -176.499c-93.333 -159.333 -140 -278.333 -140 -357c0 -44.667 9.33301 -67 28 -67c9.33301 0 24.333 6 45 18c21.333 12 33 18 35 18c1.33301 0 2 -0.666992 2 -2c0 -4 -3.33301 -9 -10 -15
c-29.333 -28.667 -58.333 -43 -87 -43zM205.001 139.996c0.666992 3.33301 1 6.83398 1 10.501v10.5c0 52 -12.333 105.667 -37 161c-25.333 58 -57.333 102.667 -96 134c6 -18 9 -33 9 -45c0 -26 -13 -39 -39 -39c-6 0 -9 1.33301 -9 4c0 2 1.33301 4 4 6
c15.333 1.33301 23 8.33301 23 21c0 12 -9 30.333 -27 55c-17.333 25.333 -26 39.666 -26 42.999c0 16.667 9 25 27 25c47.333 0 91 -40.333 131 -121c33.333 -66.667 51.333 -128.667 54 -186l2 -40c0.666992 -21.333 -5 -34.333 -17 -39z" />
    <glyph glyph-name="Z" unicode="Z" horiz-adv-x="610" 
d="M162 605c0 -0.666992 -0.333008 0 -1 2c0 2.66699 0.333008 4 1 4v-6zM552 -43c-14.667 0 -31.999 4.6709 -51.999 14.0039l-20 10.5c-8 4.33301 -17.667 9.16602 -29 14.499c-77.333 38.667 -154.666 58 -231.999 58c-98.667 0 -171.667 -21.667 -219 -65
c7.33301 66 86 159.667 236 281c-24.667 -2.66699 -45.667 -4.66699 -63 -6s-31.333 -2 -42 -2c-2.66699 0 -4 0.666992 -4 2c0 4.66699 6 11.334 18 20.001s20.667 13.667 26 15c12 0 26.667 0.166992 44 0.5s37.333 0.833008 60 1.5l43 33l60 47c54 44 81 73.667 81 89
c0 35.333 -43 53 -129 53c-8.66699 0 -19.834 -0.333008 -33.501 -1s-29.834 -1.66699 -48.501 -3c-18 -1.33301 -33.667 -2.33301 -47 -3s-24.666 -1 -33.999 -1h-10c0.666992 0.666992 1 -8 1 -26c0 -17.333 -7.66699 -26 -23 -26c-13.333 0 -20 5.66699 -20 17
c0 7.33301 4.33301 19.666 13 36.999c4.66699 9.33301 8 17.333 10 24s3.33301 11.667 4 15l5 30c2.66699 14 7 21.667 13 23l1 -2c-0.666992 -3.33301 -1.33398 -10 -2.00098 -20c-0.666992 -11.333 -1.16699 -21.5 -1.5 -30.5s-0.5 -16.5 -0.5 -22.5c124 12 200 18 228 18
c99.333 0 149 -17 149 -51c0 -24.667 -73.333 -91.334 -220 -200.001c60.667 0 91 -5 91 -15c0 -4.66699 -14 -7.66699 -42 -9l-85 -3c-160.667 -120.667 -241 -199.334 -241 -236.001c0 -2.66699 0.333008 -4.66699 1 -6c55.333 38.667 125 58 209 58
c50.667 0 105.667 -7.66699 165 -23c62 -16 112.667 -37.667 152 -65h4c13.333 0 20 9.66699 20 29c0 5.33301 -0.5 11.666 -1.5 18.999s-2.83301 15.333 -5.5 24h3c15.333 0 23 -17.667 23 -53c0 -42.667 -18.333 -64 -55 -64z" />
    <glyph glyph-name="bracketleft" unicode="[" horiz-adv-x="352" 
d="M113 -13c-54.667 0 -83.332 9.00195 -85.999 27.002c-0.666992 2.66699 -1 10 -1 22c0 64.667 22.333 153 67 265c47.333 120 93.333 197.333 138 232c12.667 9.33301 30 14 52 14c56.667 0 86.334 -5 89.001 -15c0.666992 -1.33301 1.16699 -2.83301 1.5 -4.5
s0.5 -3.83398 0.5 -6.50098h-6c-1.33301 -0.666992 -3 -1 -5 -1c-6.66699 0 -16.667 0.666992 -30 2s-23.333 2 -30 2c-17.333 0 -29.333 -1.66699 -36 -5c-4.66699 -2.66699 -10.334 -7.83398 -17.001 -15.501s-14.667 -18.167 -24 -31.5
c-34.667 -49.333 -69.334 -115.333 -104.001 -198c-39.333 -94 -59 -164.333 -59 -211c0 -39.333 22 -59 66 -59c6.66699 0 16.167 0.5 28.5 1.5s21.833 1.5 28.5 1.5c14.667 0 22 -3 22 -9c0 -7.33301 -31.667 -11 -95 -11z" />
    <glyph glyph-name="backslash" unicode="\" horiz-adv-x="483" 
d="M480 -99c-2.66699 0 -6.66699 1.49902 -12 4.49902s-8 5.5 -8 7.5c0 0.666992 0.666992 1.66699 2 3c4 3.33301 6 8.33301 6 15c0 36.667 -72.333 136.334 -217 299.001l-276 298c-6.66699 6.66699 -10 12.667 -10 18c0 8 5.66699 12 17 12s74.333 -65 189 -195l126 -144
c24 -27.333 46 -53.5 66 -78.5l55 -69.5c48.667 -64.667 73 -116 73 -154c0 -10.667 -3.66699 -16 -11 -16z" />
    <glyph glyph-name="bracketright" unicode="]" horiz-adv-x="445" 
d="M119 -13c-56.667 0 -86.6689 4.99805 -90.002 14.998c0 1.33301 -0.166992 2.83301 -0.5 4.5s-0.833008 3.83398 -1.5 6.50098h12c6 0 15.167 -0.333008 27.5 -1s21.5 -1 27.5 -1c22 0 35.333 1.33301 40 4c9.33301 4.66699 23.333 20.334 42 47.001
c17.333 25.333 34.833 54.5 52.5 87.5s34.834 69.833 51.501 110.5c38.667 91.333 58 161.666 58 210.999c0 40 -21.667 60 -65 60c-6 0 -15.333 -0.666992 -28 -2s-22 -2 -28 -2c-16 0 -24 3.33301 -24 10s27.667 10 83 10h13c52.667 0 81 -9 85 -27
c0.666992 -1.33301 1 -4 1 -8v-14c0 -64.667 -22.333 -153 -67 -265c-47.333 -119.333 -93 -196.666 -137 -231.999c-11.333 -9.33301 -28.666 -14 -51.999 -14z" />
    <glyph glyph-name="asciicircum" unicode="^" horiz-adv-x="370" 
d="M93 598l-2.99902 1.99902c0 6 17 24 51 54c35.333 30.667 56.666 46.334 63.999 47.001c8 -3.33301 28.333 -19.333 61 -48c33.333 -29.333 50 -46.333 50 -51c0 -2.66699 -1.33301 -4 -4 -4s-20.667 11 -54 33l-58 39c-60 -48 -95.667 -72 -107 -72z" />
    <glyph glyph-name="underscore" unicode="_" horiz-adv-x="550" 
d="M280 -63h-56.998c-23.333 0 -48 0.166992 -74 0.5s-50.667 0.833008 -74 1.5s-42.833 1.16699 -58.5 1.5s-24.5 0.833008 -26.5 1.5c0 20.667 14 31 42 31h520c5.33301 0 8 -1.66699 8 -5c0 -4 -3.33301 -8.5 -10 -13.5s-14.667 -7.83301 -24 -8.5
c-18.667 -0.666992 -39.834 -1.5 -63.501 -2.5l-71.5 -3c-24 -1 -45.833 -1.83301 -65.5 -2.5s-34.834 -1 -45.501 -1z" />
    <glyph glyph-name="grave" unicode="`" horiz-adv-x="136" 
d="M130 368c-4.66699 0 -23.668 14 -57.001 42c-6 5.33301 -14 11.333 -24 18s-17.667 12 -23 16c-0.666992 2 -1.5 3.83301 -2.5 5.5s-1.5 3.5 -1.5 5.5v2c2.66699 10.667 9.33398 16 20.001 16c2 0 4 -1 6 -3l47 -54l23 -24c7.33301 -7.33301 12.333 -14 15 -20
c0 -2.66699 -1 -4 -3 -4z" />
    <glyph glyph-name="a" unicode="a" horiz-adv-x="277" 
d="M30 19c-19.333 0 -29 12.001 -29 36.001c0 31.333 16.333 70.333 49 117c14 20.667 28.333 39 43 55s29.334 30.333 44.001 43c19.333 16 37 24 53 24c10 0 18.333 -4.16699 25 -12.5s10 -17.5 10 -27.5c0 -4.66699 -1.33301 -7 -4 -7l-7 7
c-4.66699 4.66699 -12.334 7 -23.001 7c-15.333 0 -28.666 -3.66699 -39.999 -11c-29.333 -20.667 -56.333 -47 -81 -79c-28.667 -37.333 -43 -71 -43 -101c0 -15.333 5.33301 -23 16 -23c17.333 0 44.666 25.667 81.999 77c16 22.667 29.167 42.834 39.5 60.501
s17.833 32.834 22.5 45.501c4.66699 4.66699 10 7 16 7c3.33301 0 5.33301 -1.33301 6 -4c-4.66699 -8.66699 -7 -24.334 -7 -47.001c0 -28.667 3.33301 -54.334 10 -77.001c10 -35.333 24.333 -53 43 -53c12 0 24.667 10.333 38 31l21 32
c0.666992 -0.666992 1 -1.33398 1 -2.00098c0 -10.667 -10 -28.667 -30 -54c-20 -24.667 -35.333 -37 -46 -37c-17.333 0 -33.333 19.333 -48 58c-11.333 32 -17 59 -17 81c-65.333 -97.333 -113.333 -146 -144 -146z" />
    <glyph glyph-name="b" unicode="b" horiz-adv-x="249" 
d="M82 -27c-45.333 0 -68.001 12.332 -68.001 36.999c0 7.33301 2.33301 11 7 11l20 -19c-2 14 -3 29.333 -3 46v23.5c0 6.33301 0.333008 11.833 1 16.5c7.33301 100.667 13 182 17 244s6 105 6 129c0 66.667 -13 100 -39 100c-6 0 -12 -1 -18 -3
c-0.666992 -0.666992 -1.66699 -1 -3 -1c-2.66699 0 -4 1.66699 -4 5c0 4.66699 11.667 11 35 19c22 8.66699 37.333 13 46 13c15.333 0 23 -13.667 23 -41c0 -36.667 -3 -85 -9 -145c-4.66699 -44.667 -9.16699 -92.667 -13.5 -144s-8.16602 -105.666 -11.499 -162.999
c10.667 32.667 29 65 55 97c30.667 38.667 60 58 88 58c23.333 0 35 -19.667 35 -59c0 -56 -13.333 -105.333 -40 -148c-30.667 -50.667 -72 -76 -124 -76zM73.999 -10.001c39.333 0 73 20.666 101 61.999c25.333 38.667 38 78.334 38 119.001c0 35.333 -8 53 -24 53
c-18 0 -38.667 -16 -62 -48c-35.333 -49.333 -53 -94.666 -53 -135.999c0 -3.33301 0.333008 -7.83301 1 -13.5s1 -10.167 1 -13.5c0 -10.667 -2.33301 -18.334 -7 -23.001h5z" />
    <glyph glyph-name="c" unicode="c" horiz-adv-x="193" 
d="M80 -11c-42.667 0 -64.001 32.332 -64.001 96.999c0 32 4.66699 62 14 90l11.5 28.5c4.33301 10.333 9.83301 21.833 16.5 34.5c16.667 32.667 29 49 37 49c11.333 0 19.333 -4.33301 24 -13c1.33301 4 4.33301 6 9 6c9.33301 0 18.333 -4.33301 27 -13
s13 -17.667 13 -27c0 -10 -4 -19.833 -12 -29.5s-17 -14.5 -27 -14.5c-1.33301 0 -2.66602 0.666992 -3.99902 2c14 22 21 38.333 21 49c0 12 -4.33301 18 -13 18c-22.667 0 -45.667 -31.667 -69 -95c-15.333 -42.667 -23 -77 -23 -103c0 -42 16.333 -63 49 -63
c37.333 0 75 25 113 75c12.667 16.667 19.667 25.334 21 26.001c2 0 3 -1.33301 3 -4c0 -0.666992 -0.666992 -3 -2 -7c-36.667 -70.667 -85 -106 -145 -106z" />
    <glyph glyph-name="d" unicode="d" horiz-adv-x="264" 
d="M217 -52c-24 0 -36 30.332 -36 90.999c0 7.33301 0.5 20.333 1.5 39s2.83301 42.667 5.5 72c-11.333 -23.333 -34 -54 -68 -92c-38.667 -44 -66.667 -66 -84 -66c-19.333 0 -29 11.667 -29 35c0 32 16.333 71.333 49 118c14 20.667 28.333 39 43 55
s29.334 30.333 44.001 43c19.333 16.667 37.666 25 54.999 25c2.66699 39.333 4.66699 75 6 107s2 59.667 2 83c0 68.667 -13.333 103 -40 103c-2 0 -5.33301 -0.666992 -10 -2s-8 -2 -10 -2c-3.33301 0 -5 1.66699 -5 5c0 4.66699 11.333 11 34 19
c22 8.66699 37.333 13 46 13c16 0 24 -13.667 24 -41c0 -12.667 -2 -43.5 -6 -92.5s-10.333 -116.833 -19 -203.5c7.33301 -9.33301 11 -19.333 11 -30c0 -4.66699 -1.33301 -7 -4 -7v0v0c1.33301 0 -1.66699 3.33301 -9 10c-2.66699 -24.667 -4.5 -49.667 -5.5 -75
s-1.5 -50.666 -1.5 -75.999c0 -67.333 10.667 -101 32 -101c14 0 28.667 11.667 44 35c2 0 3 -2 3 -6c0 -8.66699 -9.66699 -20.667 -29 -36s-34 -23 -44 -23zM49 19.999c19.333 0 46.333 25.001 81 75.001c24 35.333 45 70.333 63 105l2 34
c-16 -0.666992 -28.667 -4.33398 -38 -11.001c-28 -18.667 -54.667 -44.667 -80 -78c-29.333 -39.333 -44 -73 -44 -101c0 -16 5.33301 -24 16 -24z" />
    <glyph glyph-name="e" unicode="e" horiz-adv-x="193" 
d="M82 -11c-46 0 -69.001 34.665 -69.001 103.998c0 11.333 0.5 22.5 1.5 33.5s2.83301 21.833 5.5 32.5c-8 5.33301 -12 9.66602 -12 12.999c0 6 7 11.333 21 16c6.66699 20 16.334 42.667 29.001 68c18 34.667 31.667 52 41 52c10.667 0 18.667 -4.66699 24 -14
c4 9.33301 8.66699 14 14 14c18.667 0 28 -11.333 28 -34c0 -17.333 -3.33301 -32.666 -10 -45.999c4.66699 -5.33301 7 -10.333 7 -15c0 -1.33301 -1 -2.66602 -3 -3.99902l-56 -18c-10.667 -3.33301 -20.167 -7.66602 -28.5 -12.999s-15.833 -11 -22.5 -17
c-7.33301 -22 -11 -45.667 -11 -71c0 -56 17.333 -84 52 -84c46 0 89.333 37.333 130 112c2 3.33301 3.66699 5 5 5c2 0 3 -2 3 -6c0 -3.33301 -1 -7 -3 -11c-16 -32 -35.333 -58.333 -58 -79c-28.667 -25.333 -58 -38 -88 -38zM63.999 195.998
c6.66699 2 14.501 4.5 23.501 7.5s18.833 6.83301 29.5 11.5c3.33301 2.66699 7.66602 11 12.999 25c4.66699 12 7 21.667 7 29c0 8.66699 -3.33301 13 -10 13c-7.33301 0 -19.333 -12.333 -36 -37c-17.333 -24 -26.333 -40.333 -27 -49z" />
    <glyph glyph-name="f" unicode="f" horiz-adv-x="195" 
d="M1 -329c-16 0 -34.3369 7.33301 -55.0039 22s-31 29.334 -31 44.001c0 5.33301 1.66699 8 5 8l26 -25c17.333 -17.333 32.333 -26 45 -26c42 0 66.333 77 73 231c0.666992 29.333 2 70.666 4 123.999l7 195c-21.333 -2.66699 -38.666 -4.5 -51.999 -5.5
s-22.333 -1.5 -27 -1.5c-7.33301 0 -11 1.33301 -11 4c0 8.66699 5.33301 15.334 16 20.001c9.33301 5.33301 18 8 26 8c4.66699 0 7.33398 -1.16699 8.00098 -3.5s2 -3.5 4 -3.5c14 0 26.667 2.33301 38 7l11 175c2.66699 50.667 15.667 98 39 142c29.333 56 66 84 110 84
c23.333 0 45 -11.333 65 -34c20.667 -22.667 31 -46 31 -70c0 -4.66699 -1 -7.66699 -3 -9c-0.666992 0.666992 -1.33398 1.5 -2.00098 2.5l-3 4.5c-24 53.333 -56.333 80 -97 80c-81.333 0 -122 -119.333 -122 -358v-22c7.33301 0.666992 14.333 1 21 1h18
c41.333 0 64.333 -5 69 -15c-3.33301 -3.33301 -6 -5.33301 -8 -6c-8.66699 1.33301 -17.667 2.5 -27 3.5s-19.666 1.5 -30.999 1.5h-20c-7.33301 0 -15.333 -0.333008 -24 -1c-0.666992 -4.66699 -1.16699 -17.834 -1.5 -39.501s-1.16602 -52.167 -2.49902 -91.5
c-0.666992 -45.333 -1.5 -82.833 -2.5 -112.5s-1.83301 -51.167 -2.5 -64.5c-1.33301 -35.333 -3.66602 -67.5 -6.99902 -96.5s-7.33301 -54.833 -12 -77.5c-13.333 -63.333 -38.333 -95 -75 -95z" />
    <glyph glyph-name="g" unicode="g" horiz-adv-x="286" 
d="M94 -373c-22.667 0 -44 10.9971 -64 32.9971c-19.333 22.667 -29 45 -29 67c0 6 1 9.33301 3 10l4 -7c14 -24.667 28.5 -43.5 43.5 -56.5s32.5 -19.5 52.5 -19.5c76 0 114 98.667 114 296c0 8 -1 32.833 -3 74.5s-5.33301 99.834 -10 174.501
c-80.667 -128.667 -139 -193 -175 -193c-20.667 0 -31 12.667 -31 38c0 39.333 24.333 91.333 73 156c50.667 68.667 94.334 103 131.001 103c10.667 0 19.667 -4.33301 27 -13s11 -18.667 11 -30c0 -5.33301 -1.66699 -8 -5 -8l-8.5 7
c-5.66699 4.66699 -13.834 7 -24.501 7c-16.667 0 -30.667 -3.66699 -42 -11c-30.667 -20.667 -59.667 -49 -87 -85c-31.333 -41.333 -47 -77.666 -47 -108.999c0 -17.333 5.66699 -26 17 -26c33.333 0 83 61.667 149 185l7 13c7.33301 7.33301 14 11 20 11
c5.33301 0 9 -2.33301 11 -7c4 -10 8 -55.667 12 -137l3.5 -86.5c1 -24.333 1.5 -44.166 1.5 -59.499c0 -22 -0.333008 -41 -1 -57s-1.66699 -29 -3 -39c-6.66699 -52 -20.667 -99.667 -42 -143c-28.667 -58.667 -64.667 -88 -108 -88z" />
    <glyph glyph-name="h" unicode="h" horiz-adv-x="250" 
d="M13 -64c-0.666992 0.666992 -0.996094 1.33496 -0.996094 2.00195c0.666992 3.33301 1.66699 9 3 17s2.66602 18.333 3.99902 31c12.667 92 22 177.667 28 257s9 152.333 9 219c0 66 -13 99 -39 99c-2 0 -5.33301 -0.666992 -10 -2s-8 -2 -10 -2
c-3.33301 0 -5 1.66699 -5 5c0 4.66699 11.667 11 35 19c22 8.66699 37.333 13 46 13c15.333 0 23 -13.667 23 -41c0 -20 -0.666992 -42 -2 -66s-3.33301 -49.667 -6 -77l-27 -301l89 117c7.33301 10 20 30.667 38 62c9.33301 15.333 23.666 23 42.999 23
c8.66699 0 14 -2 16 -6c-0.666992 -0.666992 -1.5 -1.33398 -2.5 -2.00098s-2.5 -1.33398 -4.5 -2.00098c-18.667 -8 -34.334 -37.333 -47.001 -88c-10.667 -40 -16 -75 -16 -105c0 -50 12 -75 36 -75c8 0 17.333 6.33301 28 19l17 19
c0.666992 -0.666992 1 -1.33398 1 -2.00098c0 -8.66699 -8 -22.667 -24 -42c-14.667 -18.667 -26.334 -28 -35.001 -28c-32 0 -48 33 -48 99c0 58 1.33301 92 4 102c-4.66699 -4.66699 -10.5 -11.167 -17.5 -19.5l-26.5 -31.5c-42 -52 -64.667 -114.667 -68 -188
c-14.667 -15.333 -25 -23.666 -31 -24.999z" />
    <glyph glyph-name="i" unicode="i" horiz-adv-x="163" 
d="M67 386c-15.333 0 -22.999 6.66699 -22.999 20c0 12.667 7 22 21 28l34 15c2.66699 1.33301 4.66699 2 6 2c4.66699 0 7 -3 7 -9c0 -2 -4.33301 -8.33301 -13 -19s-13.667 -18.667 -15 -24c-2.66699 -8.66699 -8.33398 -13 -17.001 -13zM91.001 -15
c-20.667 0 -30.999 23 -30.999 69c0 16 1 38.333 3 67c2 30 3 52.667 3 68c0 46 -12.333 69 -37 69c-2.66699 0 -6.5 -0.666992 -11.5 -2s-8.5 -2 -10.5 -2c-3.33301 0 -5 1.33301 -5 4c0 5.33301 11.333 11.333 34 18c23.333 8 38.333 12 45 12c10 0 15 -14.667 15 -44
c0 -7.33301 -0.5 -17 -1.5 -29l-3.5 -41c-1.33301 -15.333 -2.33301 -28.833 -3 -40.5s-1 -21.167 -1 -28.5c0 -61.333 10 -92 30 -92c15.333 0 32 10.667 50 32c2 0 3 -1.66699 3 -5c0 -8.66699 -10.667 -20 -32 -34c-20.667 -14 -36.334 -21 -47.001 -21z" />
    <glyph glyph-name="j" unicode="j" horiz-adv-x="162" 
d="M71 386c-15.333 0 -22.999 6.66797 -22.999 20.001c0 11.333 6.66699 20.666 20 27.999l41 17c4.66699 0 7 -3.33301 7 -10c0 -1.33301 -4.33301 -7.33301 -13 -18c-8.66699 -11.333 -13.334 -19.333 -14.001 -24c-2.66699 -8.66699 -8.66699 -13 -18 -13z
M-34.999 -372.999c-22 0 -43.001 10.999 -63.001 32.999s-30 44.333 -30 67c0 6 1 9.33301 3 10l5 -7c24 -50.667 55.667 -76 95 -76c71.333 0 107 94 107 282c0 45.333 -2 95 -6 149l-12 148c-10 6 -15 14 -15 24c0 6.66699 1 11.334 3 14.001
c9.33301 14 19.666 21 30.999 21c4.66699 0 9.33398 -22 14.001 -66c14 -124.667 21 -226 21 -304c0 -13.333 -0.333008 -25.5 -1 -36.5s-1.66699 -20.167 -3 -27.5c-4.66699 -28 -10.667 -54 -18 -78s-15.666 -45.667 -24.999 -65c-28.667 -58.667 -64 -88 -106 -88z" />
    <glyph glyph-name="k" unicode="k" horiz-adv-x="290" 
d="M58 -48c-13.333 13.333 -20.002 49.668 -20.002 109.001c0 44.667 4 111.334 12 200.001c8 89.333 12 156 12 200c0 66.667 -13 100 -39 100c-6 0 -12 -1 -18 -3c-0.666992 -0.666992 -1.66699 -1 -3 -1c-2.66699 0 -4 1.66699 -4 5c0 4.66699 11.667 11 35 19
c22 8.66699 37.333 13 46 13c15.333 0 23 -13.667 23 -41c0 -14.667 -0.833008 -34.334 -2.5 -59.001s-4.16699 -54 -7.5 -88c-16 -162.667 -24 -265.334 -24 -308.001c0 -15.333 0.166992 -27.5 0.5 -36.5s0.833008 -14.833 1.5 -17.5c6 12 20 37 42 75
c-10.667 36.667 -16 61.667 -16 75c0 21.333 13.333 40.333 40 57c2 1.33301 8.5 5.33301 19.5 12l45.5 27c0.666992 2.66699 4.33398 7.66699 11.001 15c14.667 10.667 28.334 16 41.001 16c12 0 18 -8.33301 18 -25c0 -10.667 -3.33301 -19.334 -10 -26.001l-67 -67
c-12.667 -12.667 -24 -25.167 -34 -37.5s-18.667 -23.833 -26 -34.5c34.667 -64.667 65.667 -97 93 -97c15.333 0 31 9 47 27l24 28c2 0 3 -1.33301 3 -4c0 -11.333 -12.667 -28.666 -38 -51.999c-24.667 -22.667 -43 -34 -55 -34c-22 0 -41 12.667 -57 38l-32 67
c-20.667 -48 -31 -84 -31 -108c0 -2 0.333008 -4.83301 1 -8.5s1 -6.5 1 -8.5c0 -10 -10.667 -19 -32 -27zM125.998 146.002l119 134c-81.333 -39.333 -122 -77 -122 -113c0 -6.66699 1 -13.667 3 -21z" />
    <glyph glyph-name="l" unicode="l" horiz-adv-x="145" 
d="M73 -52c-24 0 -36.001 30.002 -36.001 90.002c0 8.66699 0.166992 17 0.5 25s0.833008 16.333 1.5 25c7.33301 94 13 172 17 234s6 108.333 6 139c0 66.667 -13 100 -39 100c-6 0 -12 -1 -18 -3c-0.666992 -0.666992 -1.66699 -1 -3 -1c-2.66699 0 -4 1.66699 -4 5
c0 4.66699 11.667 11 35 19c22 8.66699 37.333 13 46 13c15.333 0 23 -13.667 23 -41c0 -14.667 -0.833008 -34.334 -2.5 -59.001s-4.16699 -54 -7.5 -88c-16 -162.667 -24 -265.667 -24 -309c0 -79.333 10.667 -119 32 -119c5.33301 0 10.333 1.66699 15 5
s9.33398 7.66602 14.001 12.999l15 17c2 0 3 -2 3 -6c0 -8.66699 -10 -20.667 -30 -36c-19.333 -15.333 -34 -23 -44 -23z" />
    <glyph glyph-name="m" unicode="m" horiz-adv-x="372" 
d="M36 -1c-5.33301 0 -8 7 -8 21c0 10.667 1 21.334 3 32.001c8.66699 45.333 15.167 84.333 19.5 117s6.5 58.667 6.5 78c0 18 -2.5 29.667 -7.5 35s-16.5 8 -34.5 8c-4 0 -9.5 -0.833008 -16.5 -2.5s-12.167 -2.5 -15.5 -2.5c-2.66699 0 -4 0.666992 -4 2
c0 2 9 7.33301 27 16c35.333 18 53.666 27 54.999 27c16.667 0 25 -17 25 -51c0 -9.33301 -2 -29.333 -6 -60s-9.66699 -71.667 -17 -123l-4 -27l1 -2c62 110.667 102 166 120 166c10 0 14.333 -43 13 -129l27.5 37l55.5 74l39 37c5.33301 5.33301 9.33301 8 12 8
c1.33301 0 2 -1 2 -3s-1 -5 -3 -9c-16 -34.667 -24 -81.334 -24 -140.001c0 -50 12 -75 36 -75c9.33301 0 24 12.667 44 38v-3c0 -8 -7.66699 -21.667 -23 -41c-14.667 -18.667 -26 -28 -34 -28c-32.667 0 -49 35 -49 105c0 30.667 2 58.334 6 83.001
c-22.667 -10.667 -49.667 -41.334 -81 -92.001l-14 -28c-3.33301 -5.33301 -7 -8 -11 -8c-9.33301 0 -14.666 15 -15.999 45v22c0 9.33301 0.333008 20.666 1 33.999c-0.666992 11.333 -3 19 -7 23c-18 -5.33301 -51.333 -59.666 -100 -162.999
c-6.66699 -14 -12.667 -21 -18 -21z" />
    <glyph glyph-name="n" unicode="n" horiz-adv-x="261" 
d="M16 -30c-1.33301 1.33301 -1.99902 2.33398 -1.99902 3.00098l3.5 25l6.5 49c5.33301 40 9.33301 75 12 105s4 55 4 75c0 20.667 -1.66699 36.667 -5 48c-2.66699 2.66699 -8 4 -16 4c-4 0 -10 -1 -18 -3s-13.667 -3 -17 -3s-5 1 -5 3c0 2.66699 9.33301 8 28 16
c32 17.333 48 26.333 48 27c12.667 0 19 -19 19 -57c0 -16.667 -3 -42 -9 -76c-2.66699 -16.667 -4.66699 -31.167 -6 -43.5s-2 -22.833 -2 -31.5v-3c6 10.667 13.833 23.167 23.5 37.5l33.5 47.5c27.333 36 48.333 61 63 75c2.66699 2.66699 9.5 6.33398 20.5 11.001
s18.5 7 22.5 7c2 0 3 -0.666992 3 -2c-16 -30.667 -26 -53.667 -30 -69c-5.33301 -20 -8 -45.667 -8 -77c0 -54.667 11.667 -82 35 -82c8 0 17.333 6.33301 28 19c1.33301 2.66699 3.5 5.5 6.5 8.5s6.16699 6.83301 9.5 11.5l1 -4c0 -7.33301 -7.66699 -20.666 -23 -39.999
c-14.667 -18.667 -26.334 -28 -35.001 -28c-32.667 0 -49 34.667 -49 104c0 19.333 0.5 37.666 1.5 54.999s2.83301 33.666 5.5 48.999c-16.667 -16 -31.834 -33 -45.501 -51s-26.167 -37 -37.5 -57c-27.333 -48.667 -39.666 -91.334 -36.999 -128.001
c-3.33301 -4 -7.5 -8 -12.5 -12z" />
    <glyph glyph-name="o" unicode="o" horiz-adv-x="182" 
d="M69 2c-31.333 0 -47 31.335 -47 94.002c0 23.333 2 46.666 6 69.999s9.66699 46.666 17 69.999c6 18.667 16.5 34.834 31.5 48.501s31.833 20.5 50.5 20.5c6.66699 0 10.334 -1.33301 11.001 -4c-1.33301 -2.66699 -3 -3.33398 -5 -2.00098
c-26.667 -6.66699 -46.667 -34 -60 -82c-4.66699 -17.333 -8.16699 -35.333 -10.5 -54s-3.5 -38 -3.5 -58c0 -48.667 8 -73 24 -73c22 0 39 24 51 72c8 33.333 12 67 12 101c0 22 -3.66699 38.833 -11 50.5s-11 16.5 -11 14.5c0 5.33301 3.66699 8 11 8c20 0 30 -25 30 -75
c0 -38 -7.33301 -77.667 -22 -119c-18.667 -54.667 -43.334 -82 -74.001 -82z" />
    <glyph glyph-name="p" unicode="p" horiz-adv-x="290" 
d="M4 -368c-1.33301 0 -2 0.667969 -2 2.00098c0 3.33301 2.33301 10 7 20l9 20c18 64 27 177.333 27 340c0 130 -5.33301 213.333 -16 250c-2 2 -3 4 -3 6c0 5.33301 4 10.166 12 14.499s14.667 6.16602 20 5.49902c12.667 -16.667 19 -74 19 -172
c47.333 70 96 105 146 105c33.333 0 50 -14 50 -42c0 -34.667 -17 -67.667 -51 -99c-34.667 -31.333 -69 -47 -103 -47c-24 0 -36 4.66699 -36 14c0 8 7 14.333 21 19c5.33301 0.666992 10.333 1.33398 15 2.00098l14 2c74 13.333 111 42 111 86c0 25.333 -12 38 -36 38
c-50 0 -86.667 -27.667 -110 -83c-16 -38.667 -24 -88 -24 -148c0 -138 -10.333 -228.667 -31 -272c-3.33301 -7.33301 -7.83301 -16 -13.5 -26s-12.834 -21.333 -21.501 -34c-1.33301 -0.666992 -2.66602 -1 -3.99902 -1z" />
    <glyph glyph-name="q" unicode="q" horiz-adv-x="263" 
d="M202 -326c-42 0 -60.3291 39.666 -54.9961 118.999l1 15c0.666992 10.667 2 27.5 4 50.5s4.33301 52.5 7 88.5c1.33301 18.667 4 43 8 73s9 65.333 15 106l-63 -81c-31.333 -37.333 -56.666 -56 -75.999 -56s-29 12.333 -29 37c0 36.667 23 85.334 69 146.001
c46 62 86 93 120 93c24 0 36 -13.333 36 -40c0 -4.66699 -1.66699 -7 -5 -7c0.666992 0 -1.5 2.33301 -6.5 7s-12.167 7 -21.5 7c-16.667 0 -30.667 -4 -42 -12c-30.667 -21.333 -57.334 -47.333 -80.001 -78c-28.667 -36.667 -43 -70.334 -43 -101.001
c0 -15.333 5 -23 15 -23c18 0 45.667 25.667 83 77c16.667 23.333 30.167 43.666 40.5 60.999s17.166 32.333 20.499 45c5.33301 5.33301 10.666 8 15.999 8c4 0 6.33301 -1.33301 7 -4c-4.66699 -22 -9.33398 -48 -14.001 -78s-9.33398 -64.333 -14.001 -103
c-10 -88 -15 -158 -15 -210c0 -11.333 1 -22.666 3 -33.999s4.66699 -22.666 8 -33.999c9.33301 -30 23.333 -45 42 -45c14 0 31.667 11.667 53 35c2 0 3 -1.66699 3 -5c0 -10.667 -11.667 -22.667 -35 -36c-22.667 -14 -40 -21 -52 -21z" />
    <glyph glyph-name="r" unicode="r" horiz-adv-x="202" 
d="M16 -30c-1.33301 1.33301 -1.99902 2.33203 -1.99902 2.99902l3.5 25l6.5 49c5.33301 40 9.33301 75 12 105s4 55 4 75c0 20.667 -1.66699 36.667 -5 48c-2.66699 2.66699 -8 4 -16 4c-4 0 -10 -1 -18 -3s-13.667 -3 -17 -3s-5 1 -5 3s8.66699 7.66699 26 17
c36 17.333 52.667 26 50 26c12.667 0 19 -19 19 -57c0 -16.667 -3 -42 -9 -76c-2.66699 -16.667 -4.66699 -31.167 -6 -43.5s-2 -22.833 -2 -31.5v-3c39.333 66 79.333 119.333 120 160c15.333 12 29.666 18 42.999 18c2 0 3 -0.666992 3 -2
c-6.66699 -13.333 -11.834 -24 -15.501 -32s-6.16699 -13.667 -7.5 -17c-5.33301 -13.333 -9.66602 -31.666 -12.999 -54.999c-0.666992 -8.66699 -2.66699 -13 -6 -13c-11.333 0 -17 16 -17 48v8c0 2.66699 0.333008 5.33398 1 8.00098
c-16.667 -16 -31.834 -33 -45.501 -51s-26.167 -37 -37.5 -57c-27.333 -48.667 -39.666 -91.334 -36.999 -128.001c-3.33301 -4 -7.5 -8 -12.5 -12z" />
    <glyph glyph-name="s" unicode="s" horiz-adv-x="211" 
d="M85 -35c-31.333 0 -52.668 14.666 -64.001 43.999c-2.66699 6 -4 11 -4 15c0 4.66699 2.33301 7 7 7c2.66699 0 4.66699 -1.66699 6 -5c9.33301 -29.333 26.333 -44 51 -44c26.667 0 40 13 40 39c0 14.667 -11.667 39.667 -35 75s-35 64.333 -35 87c0 30 14 60.333 42 91
s56.667 46 86 46c22 0 33 -10 33 -30c0 -6.66699 -5 -16.667 -15 -30c-9.33301 -13.333 -16.666 -20 -21.999 -20c-0.666992 0.666992 -1 1.33398 -1 2.00098s2.66699 5 8 13s8 14.333 8 19s-3.33301 7 -10 7c-21.333 0 -43.666 -10.667 -66.999 -32
c-22.667 -20.667 -34 -42 -34 -64c0 -20 12.333 -46.333 37 -79c25.333 -33.333 38 -60 38 -80c0 -18 -6.83301 -32.667 -20.5 -44s-29.834 -17 -48.501 -17z" />
    <glyph glyph-name="t" unicode="t" horiz-adv-x="200" 
d="M116 -22c-24.667 0 -37 32.3301 -37 96.9971c0 17.333 1 43.833 3 79.5s5.33301 80.167 10 133.5c-46.667 -6 -74 -9 -82 -9c-6 0 -9 1.33301 -9 4c0 7.33301 5.66699 14 17 20c9.33301 5.33301 18 8 26 8c3.33301 0 5 -0.333008 5 -1
c-0.666992 -0.666992 -1 -1.33398 -1 -2.00098s-0.333008 -1.66699 -1 -3h3c8 0 22.333 1 43 3c2 3.33301 3 17.333 3 42c0 64.667 -6.66699 97 -20 97c-4 0 -10.833 -2 -20.5 -6s-14.834 -6 -15.501 -6l-3 2l2 2c0.666992 0.666992 1.66699 1.33398 3 2.00098l33 31
c18 16.667 28.667 25.667 32 27c14.667 0 22 -21.333 22 -64c0 -13.333 -0.666992 -30.166 -2 -50.499s-3.33301 -44.166 -6 -71.499c9.33301 0.666992 17.833 1.16699 25.5 1.5s13.834 0.5 18.501 0.5c34 0 53.333 -4.33301 58 -13c-2.66699 -4 -5.66699 -6 -9 -6
c-4 0 -10.167 0.333008 -18.5 1s-14.5 1 -18.5 1c-5.33301 0 -12.833 -0.5 -22.5 -1.5l-34.5 -3.5c-3.33301 -29.333 -6 -56.5 -8 -81.5s-3 -47.167 -3 -66.5c0 -90.667 11.333 -136 34 -136c14 0 28.333 12 43 36c2.66699 0 4 -2.33301 4 -7
c0 -9.33301 -10 -21.666 -30 -36.999c-19.333 -15.333 -34 -23 -44 -23z" />
    <glyph glyph-name="u" unicode="u" horiz-adv-x="262" 
d="M33 4c-12.667 0 -18.999 15.666 -18.999 46.999c0 14 1.66699 32.5 5 55.5s8.33301 50.5 15 82.5c-2.66699 6 -4 13.667 -4 23c0 34 14.667 55.667 44 65c2.66699 -0.666992 4 -4 4 -10c0 -4.66699 -5.33301 -26 -16 -64c-12 -42.667 -18 -82 -18 -118
c0 -28 5.33301 -42 16 -42c18 0 43 31.333 75 94c27.333 53.333 44.333 94.333 51 123c4 15.333 13.667 23 29 23c8 0 12 -3 12 -9c0 -3.33301 -2.16699 -9 -6.5 -17s-6.83301 -13.333 -7.5 -16c-10 -44.667 -15 -87.667 -15 -129c0 -48 11 -72 33 -72c12 0 27 13 45 39
c18 26.667 27.333 40 28 40c2.66699 0 4 -1.66699 4 -5c0 -9.33301 -13.667 -29.666 -41 -60.999c-26.667 -30 -45 -45 -55 -45c-28 0 -42 29.667 -42 89c0 7.33301 0.666992 18.5 2 33.5s3.33301 33.833 6 56.5c-8 -15.333 -17.5 -31.833 -28.5 -49.5
s-23.167 -36.167 -36.5 -55.5c-36.667 -52 -63.334 -78 -80.001 -78z" />
    <glyph glyph-name="v" unicode="v" horiz-adv-x="218" 
d="M67 -17c-4.66699 0 -7.00098 3.00098 -7.00098 9.00098c0 9.33301 0.833008 22.833 2.5 40.5s2.5 31.167 2.5 40.5c0 45.333 -10 91.333 -30 138c0.666992 -2.66699 1 -6 1 -10c0 -2 -1 -4 -3 -6l-3 4c-4.66699 8.66699 -9.5 16.5 -14.5 23.5l-14.5 20.5
c0 5.33301 2.33301 11.333 7 18s9.66699 10 15 10c1.33301 0 2.33301 -0.333008 3 -1c19.333 -7.33301 35.666 -37 48.999 -89c5.33301 -20.667 9.33301 -39.834 12 -57.501s4.33398 -34.167 5.00098 -49.5c8 32 29 80.667 63 146c38.667 74.667 69 112 91 112
c13.333 0 20 -12 20 -36c0 -8.66699 -2.33301 -13 -7 -13l-4 4c-2.66699 2 -5.66699 3 -9 3c-16.667 0 -39.667 -21.667 -69 -65c-20.667 -29.333 -37.667 -59.5 -51 -90.5s-23.666 -62.167 -30.999 -93.5c-0.666992 -12.667 -3.66699 -29 -9 -49c-2.66699 -6 -9 -9 -19 -9z
" />
    <glyph glyph-name="w" unicode="w" horiz-adv-x="412" 
d="M60 -23c-4 0 -6.66602 1.66797 -7.99902 5.00098c1.33301 7.33301 2.5 15.166 3.5 23.499s1.5 17.166 1.5 26.499c0 16.667 -1.66699 37.334 -5 62.001s-8.33301 53.334 -15 86.001c-0.666992 -6 -2.33398 -9.33301 -5.00098 -10l-15 30c-4.66699 10 -8 17.667 -10 23
s-3 8.33301 -3 9c0 6.66699 5 15 15 25c10 10.667 18.333 16 25 16h4l36 -203c19.333 45.333 47.666 89.666 84.999 132.999c20 22.667 32 34 36 34s9 -16 15 -48c20 -100 42 -150 66 -150c26 0 51.333 35 76 105c12.667 33.333 19 63 19 89c0 32 -12.667 56.667 -38 74
c-3.33301 2 -5 4.33301 -5 7c0 6.66699 6 10 18 10c30 0 45 -20 45 -60c0 -28 -8 -64 -24 -108c-13.333 -40 -29 -74 -47 -102c-23.333 -35.333 -43.333 -53 -60 -53c-14 0 -26.667 14.167 -38 42.5s-24.666 70.166 -39.999 125.499l-8 30
c-9.33301 -1.33301 -27.333 -23.666 -54 -66.999s-40 -71 -40 -83c0 -3.33301 0.333008 -8.33301 1 -15s1 -11.667 1 -15c0 -28 -10.667 -42 -32 -42z" />
    <glyph glyph-name="x" unicode="x" horiz-adv-x="257" 
d="M-17 -42c-2 0 -3 1.66797 -3 5.00098c0 8.66699 35.667 62.667 107 162c-5.33301 18 -10 35.5 -14 52.5s-7 33.5 -9 49.5l-8 -2l-2 1c-2 9.33301 -3 17.666 -3 24.999c0 22.667 8.33301 34 25 34c7.33301 0 12.333 -6 15 -18c3.33301 -40.667 9.33301 -77.667 18 -111
l65 87c2.66699 4 6.5 9.33301 11.5 16l17.5 24c7.33301 8 14.333 12 21 12c4 0 6 -1.66699 6 -5l-36.5 -49l-78.5 -103c22.667 -74.667 53 -112 91 -112c28.667 0 56.667 28.667 84 86c0.666992 2.66699 2 4 4 4c1.33301 -1.33301 2 -3.33301 2 -6c0 -2 -0.666992 -5 -2 -9
c-28.667 -74.667 -64 -112 -106 -112c-38 0 -69.667 40 -95 120c-41.333 -54 -71 -96.667 -89 -128c-9.33301 -15.333 -16.333 -23 -21 -23z" />
    <glyph glyph-name="y" unicode="y" horiz-adv-x="262" 
d="M65 -373c-22 0 -42.999 10.9971 -62.999 32.9971s-30 44.333 -30 67c0 6 1 9.33301 3 10l5 -7c24 -50.667 55.667 -76 95 -76c76 0 114 95.667 114 287c0 6.66699 -1 30.167 -3 70.5s-5.33301 97.833 -10 172.5c-10.667 -26.667 -32 -62 -64 -106
c-36.667 -52.667 -64 -79 -82 -79c-14 0 -21 16 -21 48c0 14 1.66699 32.5 5 55.5s8.33301 50.167 15 81.5c-3.33301 10 -5 19 -5 27c0 33.333 15 54 45 62c2.66699 -2 4 -5.33301 4 -10s-1.5 -13.5 -4.5 -26.5l-12.5 -52.5c-11.333 -44 -17 -78.333 -17 -103
c0 -28 5.33301 -42 16 -42c14 0 36 25.333 66 76c27.333 45.333 47.333 92.333 60 141c4 15.333 13.667 23 29 23c7.33301 0 11 -3 11 -9c0 -2.66699 -1.16699 -7.16699 -3.5 -13.5s-4.83301 -12.666 -7.5 -18.999s-4.66699 -10.166 -6 -11.499
c0.666992 -2 1.66699 -10.333 3 -25c8 -68 12 -147.333 12 -238c0 -22 -0.5 -41.667 -1.5 -59s-2.16699 -32.666 -3.5 -45.999c-6.66699 -54 -20.334 -102 -41.001 -144c-28.667 -58 -64.667 -87 -108 -87z" />
    <glyph glyph-name="z" unicode="z" horiz-adv-x="258" 
d="M24 -7c-14 1.33301 -20.9971 6.33203 -20.9971 14.999c0 22 33 59.333 99 112c-6.66699 -0.666992 -12.167 -1.16699 -16.5 -1.5s-8.16602 -0.5 -11.499 -0.5c-0.666992 0 -1.33398 0.333008 -2.00098 1c0 4 2.33301 8.33301 7 13c4 4 7 6.66699 9 8s5.66699 2 11 2h27
c57.333 47.333 86 78.333 86 93c0 9.33301 -16 14 -48 14c-12 0 -30.667 -3 -56 -9c-12.667 -2.66699 -23.5 -4.66699 -32.5 -6s-16.5 -2 -22.5 -2c-3.33301 0 -5 2 -5 6c0 12 19 22 57 30c13.333 2.66699 26.166 4.66699 38.499 6s23.833 2 34.5 2
c46.667 0 70 -5.66699 70 -17c0 -26.667 -34 -65.667 -102 -117c32.667 -0.666992 49 -3.66699 49 -9c0 -2.66699 -8.66699 -4.66699 -26 -6l-46 -3c-50.667 -44.667 -76 -74 -76 -88c0 -6 5.33301 -9 16 -9c1.33301 0 3.33301 0.166992 6 0.5s6 0.833008 10 1.5
c27.333 4.66699 50.666 8.16699 69.999 10.5s35.333 3.5 48 3.5c35.333 0 53 -7.33301 53 -22c0 -7.33301 -11.667 -15.666 -35 -24.999c-18.667 13.333 -45.334 20 -80.001 20c-38 0 -75 -7.66699 -111 -23z" />
    <glyph glyph-name="braceleft" unicode="{" horiz-adv-x="309" 
d="M189 -33c-74 0 -110.997 29.333 -110.997 88c0 9.33301 1 20.833 3 34.5s4.66699 29.834 8 48.501c8 37.333 12 65.333 12 84c0 52.667 -32.333 79.334 -97 80.001l8 15c40 4 68.333 12.333 85 25c19.333 15.333 31.666 41.666 36.999 78.999l14 104
c9.33301 41.333 25.666 70.5 48.999 87.5s58.333 25.5 105 25.5c4 0 7.33301 -2.33301 10 -7l-11 -5c-56.667 0 -92.667 -23 -108 -69l-24 -138c-14 -62 -46.667 -99 -98 -111c42 -14.667 63 -45 63 -91c0 -9.33301 -1 -20.833 -3 -34.5s-4.66699 -29.834 -8 -48.501
s-5.83301 -34.834 -7.5 -48.501s-2.5 -25.167 -2.5 -34.5c0 -32 7.33301 -51.333 22 -58c1.33301 -0.666992 7.16602 -2.16699 17.499 -4.5s25.5 -5.16602 45.5 -8.49902l9 -7c-6.66699 -4 -12.667 -6 -18 -6z" />
    <glyph glyph-name="bar" unicode="|" horiz-adv-x="175" 
d="M52 -82l-0.99707 1v7c0 7.33301 0.5 16.166 1.5 26.499l3.5 34.5c2 14.667 3.5 27 4.5 37s1.83301 18 2.5 24c0.666992 8.66699 1 18.834 1 30.501v40.5c0 40.667 -1.16699 80.5 -3.5 119.5s-5.83301 76.833 -10.5 113.5c-2.66699 19.333 -5.33398 36.833 -8.00098 52.5
s-5.66699 29.5 -9 41.5l-9 23c-4 11.333 -6 19.333 -6 24c0 5.33301 4.33301 8 13 8c22 0 35.333 -23 40 -69c1.33301 -12.667 2.66602 -29.167 3.99902 -49.5s2.66602 -44.166 3.99902 -71.499c1.33301 -31.333 2.33301 -63 3 -95s1 -64.667 1 -98
c0 -113.333 -4.33301 -175.333 -13 -186c-6 -8.66699 -12 -13.334 -18 -14.001z" />
    <glyph glyph-name="braceright" unicode="}" horiz-adv-x="374" 
d="M44 -23c-3.33301 0 -7 2.66602 -11 7.99902c8 5.33301 22 8.33301 42 9c19.333 0.666992 34 4 44 10c16 8.66699 28 26.334 36 53.001l19 106c8 45.333 21 77.333 39 96c21.333 23.333 48.333 40 81 50c-50 12 -75 43 -75 93c0 9.33301 1 20.5 3 33.5
s4.66699 28.167 8 45.5s6 32.666 8 45.999s3 24.333 3 33c0 32 -7.33301 51.333 -22 58l-31 6c-10 2 -20.333 4.33301 -31 7l-8 6l10 7c40 0 67.667 -4.33301 83 -13c23.333 -12 35 -36 35 -72c0 -18.667 -4 -46 -12 -82s-12 -63.333 -12 -82c0 -30 9 -51 27 -63
c12.667 -8.66699 36 -14.667 70 -18l-10 -14c-65.333 -1.33301 -105.333 -29.666 -120 -84.999l-28 -154c-20.667 -56 -70 -84 -148 -84z" />
    <glyph glyph-name="asciitilde" unicode="~" horiz-adv-x="273" 
d="M206 619c-13.333 0 -30.001 4.33203 -50.001 12.999c-22 9.33301 -38.667 14 -50 14s-22.666 -4.33301 -33.999 -13s-18.333 -13 -21 -13v2c0 10.667 14.333 24.334 43 41.001c12.667 7.33301 24.667 11 36 11c5.33301 0 11.833 -1 19.5 -3s16.834 -4.66699 27.501 -8
c22 -7.33301 38 -11 48 -11c16 0 30 7.33301 42 22c4 0 6 -1.33301 6 -4c0 -8.66699 -8.66699 -19.667 -26 -33c-16.667 -12 -30.334 -18 -41.001 -18z" />
    <glyph glyph-name="uni00A0" unicode="&#xa0;" horiz-adv-x="184" 
 />
    <glyph glyph-name="exclamdown" unicode="&#xa1;" horiz-adv-x="222" 
d="M117 245c-6 0 -9 2.66797 -9 8.00098c0 23.333 10 41.333 30 54c4.66699 -1.33301 10.334 -5.33301 17.001 -12s10 -12 10 -16c0 -6.66699 -4.33301 -13.834 -13 -21.501s-16.334 -11.167 -23.001 -10.5c-2.66699 -0.666992 -5 -1.16699 -7 -1.5s-3.66699 -0.5 -5 -0.5z
M47 -243.999c-10 0 -14.999 9.99805 -14.999 29.998c0 37.333 8 86.333 24 147l39 146c3.33301 11.333 7.33301 36 12 74c2 13.333 5.33301 20 10 20c3.33301 0 6 -2.33301 8 -7c0 -11.333 -1.5 -27 -4.5 -47s-7.16699 -44.667 -12.5 -74
c-3.33301 -17.333 -8 -44.166 -14 -80.499l-23 -136.5c8 -6 12 -14 12 -24c0 -9.33301 -3.83301 -19.666 -11.5 -30.999s-15.834 -17 -24.501 -17z" />
    <glyph glyph-name="cent" unicode="&#xa2;" horiz-adv-x="304" 
d="M37 -57l62 136c-38.667 0 -58 23 -58 69c0 62.667 22.333 134.334 67 215.001c22 40 41.667 63.667 59 71l25.5 13l35.5 18c9.33301 37.333 16.333 70.5 21 99.5s7 53.167 7 72.5c0 22.667 7 34 21 34c18 0 27 -12.333 27 -37c0 -22.667 -14 -78 -42 -166
c27.333 -1.33301 41 -16.666 41 -45.999c0 -36 -10 -54 -30 -54c-8 0 -12 5.66699 -12 17c0 5.33301 1.33301 12.833 4 22.5s4 17.167 4 22.5c0 9.33301 -4.66699 14.666 -14 15.999l-60 -177.5c-19.333 -55.667 -38.666 -107.834 -57.999 -156.501
c29.333 8 59.666 30 90.999 66l44 53c3.33301 -1.33301 5 -3.66602 5 -6.99902c0 -28 -26.333 -62 -79 -102c-24.667 -18.667 -48.667 -31.667 -72 -39c-16 -40.667 -27.333 -67.334 -34 -80.001c-20 -39.333 -38.333 -59.333 -55 -60zM111 108
c44.667 108 81 216.666 109 325.999c-18 -11.333 -32.667 -22.666 -44 -33.999c-16.667 -16.667 -36.667 -57 -60 -121c-22.667 -62 -34 -107 -34 -135c0 -24 9.66699 -36 29 -36z" />
    <glyph glyph-name="sterling" unicode="&#xa3;" horiz-adv-x="566" 
d="M196 -32c-87.333 0 -130.997 51.3369 -130.997 154.004c0 38.667 6 85 18 139c-34.667 1.33301 -57.334 3.33301 -68.001 6c0 21.333 25.333 31.666 76 30.999c20 84.667 41 149.334 63 194.001c39.333 79.333 87.333 119 144 119c39.333 0 69.333 -15 90 -45
c18 -26 27 -59.667 27 -101c0 -8 -1.66699 -12 -5 -12s-5 4 -5 12c0 32 -10.5 56.667 -31.5 74s-47.833 26 -80.5 26c-70 0 -127 -89.333 -171 -268c25.333 -1.33301 54.166 -2.33301 86.499 -3s68.166 -1 107.499 -1c-0.666992 -0.666992 -1 -1.33398 -1 -2.00098
s0.333008 -1.33398 1 -2.00098s1 -1.33398 1 -2.00098c0 -4 -6 -6.66699 -18 -8c-4 -0.666992 -9.5 -1.33398 -16.5 -2.00098s-15.167 -1.66699 -24.5 -3c-31.333 -4 -59 -7 -83 -9s-44.333 -3.33301 -61 -4c-3.33301 -16.667 -5.83301 -32.5 -7.5 -47.5
s-2.5 -29.167 -2.5 -42.5c0 -116 58.333 -174 175 -174c68 0 137.333 18.333 208 55c47.333 24 72 37 74 39c4.66699 0 7 -2.33301 7 -7c0 -18.667 -15 -34.667 -45 -48c-42 -18.667 -95 -34.667 -159 -48c-64.667 -13.333 -120 -20 -166 -20h-2z" />
    <glyph glyph-name="currency" unicode="&#xa4;" horiz-adv-x="229" 
d="M92 399c-33.333 0 -50 15.667 -50 47c0 11.333 2 24.166 6 38.499s9.66699 27.5 17 39.5s15.666 19.333 24.999 22c12.667 22 33.334 33 62.001 33c17.333 0 31.333 -6 42 -18s16 -27.333 16 -46c0 -24 -5.66699 -44.667 -17 -62s-26 -30.666 -44 -39.999
s-37 -14 -57 -14zM106 423c13.333 0 25.168 4.66602 35.501 13.999s18.666 20.833 24.999 34.5s9.5 27.167 9.5 40.5c0 30 -9 45 -27 45c-9.33301 0 -21.333 -5.33301 -36 -16c3.33301 -2 5 -5.66699 5 -11c0 -4.66699 -1.16699 -10 -3.5 -16s-6.5 -13 -12.5 -21
c-10 -13.333 -15 -28.666 -15 -45.999c0 -16 6.33301 -24 19 -24z" />
    <glyph glyph-name="yen" unicode="&#xa5;" horiz-adv-x="364" 
d="M161 -208c-33.333 0 -50.002 23.001 -50.002 69.001c0 50.667 34.667 146.334 104 287.001c-2 -4.66699 -5.33301 -7.33398 -10 -8.00098l1 15c-10.667 -0.666992 -20.5 -1 -29.5 -1h-26.5c-40 0 -66 2 -78 6c0 21.333 13.667 32 41 32c13.333 0 27.5 -0.333008 42.5 -1
s31.167 -1.66699 48.5 -3c-2.66699 25.333 -7.66699 51.333 -15 78c-16 -0.666992 -30.5 -1.16699 -43.5 -1.5s-24.833 -0.5 -35.5 -0.5c-33.333 0 -52.666 1.33301 -57.999 4c0 21.333 9.33301 32 28 32c4.66699 0 11.167 -0.166992 19.5 -0.5
s18.166 -0.833008 29.499 -1.5s21.333 -1.16699 30 -1.5s15.334 -0.5 20.001 -0.5c-26 71.333 -61.667 124.666 -107 159.999c6.66699 -17.333 10 -32.666 10 -45.999c0 -25.333 -13 -38 -39 -38c-6.66699 0 -10 1.33301 -10 4s1.66699 4.66699 5 6
c15.333 1.33301 23 8.33301 23 21c0 12 -8.66699 30.333 -26 55c-17.333 25.333 -26 39.333 -26 42c0 17.333 8.66699 26 26 26c39.333 0 77 -29.667 113 -89c26 -42.667 46 -89.667 60 -141l84 -2c27.333 48.667 52.333 91 75 127s42.667 65.333 60 88l3 4h-1
c-2 0 -5.83301 -1.16699 -11.5 -3.5s-9.83398 -3.5 -12.501 -3.5c-8.66699 0 -13 2 -13 6c0 5.33301 5.33301 9.33301 16 12c30 8 52.333 22 67 42c8 10.667 18.667 16 32 16c8.66699 0 13 -2.66699 13 -8c0 -1.33301 -1.66699 -4.33301 -5 -9
c-34 -40 -67.333 -82.667 -100 -128s-64.667 -93.333 -96 -144l83 -3c6.66699 0.666992 16.334 0.666992 29.001 0c4 -0.666992 6 -2.33398 6 -5.00098c0 -4.66699 -5.66699 -8 -17 -10c-2.66699 -0.666992 -13.667 -1.33398 -33 -2.00098s-46.666 -1.66699 -81.999 -3
l-25 -43l-23 -42c44 -2 88 -3 132 -3c-0.666992 0 -1 -0.333008 -1 -1c0 -1.33301 0.333008 -2.33301 1 -3v-4c0 -6.66699 -16.333 -11 -49 -13l-98 -4c-63.333 -121.333 -95 -212.333 -95 -273c0 -45.333 9.66699 -68 29 -68c8.66699 0 23.334 6 44.001 18
c21.333 12 33.333 18 36 18c1.33301 0 2 -0.666992 2 -2c0 -3.33301 -3.66699 -8.66602 -11 -15.999c-28.667 -28 -57.334 -42 -86.001 -42zM234.998 187.001l44.001 81.998l-64 -2c1.33301 -9.33301 2.66602 -20.666 3.99902 -33.999s2.33301 -28.666 3 -45.999h13z" />
    <glyph glyph-name="brokenbar" unicode="&#xa6;" horiz-adv-x="175" 
d="M60 238c-0.666992 19.333 -1.99707 38.499 -3.99707 57.499l-6 56.5c-2.66699 19.333 -5.33398 36.833 -8.00098 52.5s-5.66699 29.5 -9 41.5l-9 23c-4 11.333 -6 19.333 -6 24c0 5.33301 4.33301 8 13 8c22 0 35.333 -23 40 -69
c1.33301 -12.667 2.66602 -29.167 3.99902 -49.5s2.66602 -44.166 3.99902 -71.499l3 -73h-22zM52.0029 -82.001l-1 1.00098v7c0 7.33301 0.5 16.166 1.5 26.499l3.5 34.5c2 14.667 3.5 27 4.5 37s1.83301 18 2.5 24c0.666992 8.66699 1 18.834 1 30.501v40.5v32.5
c0 10.333 -0.333008 20.833 -1 31.5h20v-65c0 -113.333 -4.33301 -175.333 -13 -186c-6 -8.66699 -12 -13.334 -18 -14.001z" />
    <glyph glyph-name="section" unicode="&#xa7;" horiz-adv-x="452" 
d="M24 -175c-18.667 0 -28.002 6.00195 -28.002 18.002c0 16.667 15 29.334 45 38.001l15 3c6.66699 1.33301 15.334 2.66602 26.001 3.99902c63.333 10 109 24 137 42c48 30 72 57.667 72 83c0 26 -25.333 51 -76 75l-141 65c-50.667 24.667 -76 53.667 -76 87
c0 36.667 33.333 76 100 118c11.333 41.333 60 84.666 146 129.999c79.333 42 143.333 63 192 63c42 0 63 -12 63 -36c0 -46.667 -10 -88 -30 -124c-12 -21.333 -21.333 -32 -28 -32c-3.33301 0 -5 3 -5 9c0 10.667 3.66699 28 11 52s11 41.667 11 53
c0 30.667 -18.667 46 -56 46c-47.333 0 -102.666 -15 -165.999 -45c-72.667 -34.667 -109 -72.334 -109 -113.001c0 -36 26.333 -66.333 79 -91l61.5 -25.5l85.5 -35.5c52.667 -22.667 79 -46.667 79 -72c0 -38 -33.333 -76.333 -100 -115c-8 -40.667 -51.667 -81 -131 -121
l-53 -23zM332.998 43.002c37.333 26 56 50.333 56 73c0 25.333 -25.667 50.666 -77 75.999l-143 65c-50.667 24.667 -75 53.334 -73 86.001c-46.667 -28.667 -70 -57.667 -70 -87c0 -35.333 25.333 -64.333 76 -87l143 -59c54 -22.667 83.333 -45 88 -67z" />
    <glyph glyph-name="dieresis" unicode="&#xa8;" horiz-adv-x="168" 
d="M130 365c-9.33301 0 -14 8.33301 -14 25c0 10.667 5.16699 21 15.5 31s20.833 15 31.5 15c3.33301 0 5 -0.666992 5 -2c0 -6 -1.83301 -14.667 -5.5 -26s-5.5 -19.333 -5.5 -24c0 -12.667 -9 -19 -27 -19zM14 365c-9.33301 0 -14 8.33301 -14 25
c0 10.667 5.16699 21 15.5 31s20.833 15 31.5 15c3.33301 0 5 -0.666992 5 -2c0 -6 -1.83301 -14.667 -5.5 -26s-5.5 -19.333 -5.5 -24c0 -12.667 -9 -19 -27 -19z" />
    <glyph glyph-name="copyright" unicode="&#xa9;" horiz-adv-x="638" 
d="M217 29c-47.333 0 -88 13.999 -122 41.999c-36 30 -54 68 -54 114c0 79.333 42 156 126 230c81.333 71.333 162.333 107 243 107c47.333 0 87.666 -14.667 120.999 -44s50 -67.333 50 -114c0 -79.333 -41 -155.666 -123 -228.999
c-79.333 -70.667 -159.666 -106 -240.999 -106zM231 49.999c72 0 142 33 210 99c68 67.333 102 136.333 102 207c0 42.667 -13.167 77.667 -39.5 105s-60.833 41 -103.5 41c-76.667 0 -149.667 -34.333 -219 -103c-69.333 -68 -104 -139.667 -104 -215
c0 -40 16 -72.667 48 -98c30 -24 65.333 -36 106 -36zM279 125.999c-42.667 0 -64.001 32.332 -64.001 96.999c0 32 4.66699 62 14 90l11.5 28.5c4.33301 10.333 9.83301 21.833 16.5 34.5c16.667 32.667 29 49 37 49c11.333 0 19.333 -4.33301 24 -13
c1.33301 4 4.33301 6 9 6c9.33301 0 18.333 -4.33301 27 -13s13 -17.667 13 -27c0 -10 -4 -19.833 -12 -29.5s-17 -14.5 -27 -14.5c-1.33301 0 -2.66602 0.666992 -3.99902 2c14 22 21 38.333 21 49c0 12 -4.33301 18 -13 18c-22.667 0 -45.667 -31.667 -69 -95
c-15.333 -42.667 -23 -77 -23 -103c0 -42 16.333 -63 49 -63c37.333 0 75 25 113 75c12.667 16.667 19.667 25.334 21 26.001c2 0 3 -1.33301 3 -4c0 -0.666992 -0.666992 -3 -2 -7c-36.667 -70.667 -85 -106 -145 -106z" />
    <glyph glyph-name="ordfeminine" unicode="&#xaa;" horiz-adv-x="277" 
d="M30 305c-20.667 0 -31.002 12.6631 -31.002 37.9961c0 32 16.333 71.333 49 118c27.333 40 56.666 73 87.999 99c19.333 16 37.333 24 54 24c10 0 18.667 -4.16699 26 -12.5s11 -18.166 11 -29.499c0 -6 -2 -9 -6 -9l-2 1c-5.33301 8.66699 -14.666 13 -27.999 13
c-14.667 0 -27.667 -3.66699 -39 -11c-14.667 -10 -28.667 -21.333 -42 -34s-26 -27.334 -38 -44.001c-28.667 -37.333 -43 -70.666 -43 -99.999c0 -14 4.66699 -21 14 -21c16.667 0 43.334 25.333 80.001 76c16 22.667 29.167 42.834 39.5 60.501
s17.833 32.834 22.5 45.501c5.33301 5.33301 11.333 8 18 8c4 0 6.66699 -1.66699 8 -5v-2c-4.66699 -7.33301 -7 -22.666 -7 -45.999c0 -30 3.33301 -55.333 10 -76c9.33301 -34.667 23 -52 41 -52c11.333 0 23.333 10 36 30l22 32c1.33301 -1.33301 2 -2.33301 2 -3h2
c0 -10.667 -10 -29 -30 -55c-20.667 -25.333 -36.667 -38 -48 -38c-18 0 -34.667 19.667 -50 59c-10 28.667 -15.667 53.667 -17 75c-63.333 -94 -110.666 -141 -141.999 -141z" />
    <glyph glyph-name="guillemotleft" unicode="&#xab;" horiz-adv-x="429" 
d="M357 16l-7.99902 4.00098c-16.667 22 -35.667 41.667 -57 59l-64 51c-2 2 -3 4 -3 6c0 6.66699 17.667 35.667 53 87l39.5 54.5c11 15 19.833 26.167 26.5 33.5c7.33301 7.33301 13.666 11 18.999 11c4 0 6 -2 6 -6c0 -8.66699 -33 -59.667 -99 -153
c65.333 -82.667 98 -127.334 98 -134.001c0 -10 -3.66699 -14.333 -11 -13zM217.001 16.001l-7.99902 3.99902c-16.667 22 -35.667 41.667 -57 59l-64 51c-2 2 -3 4 -3 6c0 6.66699 17.667 35.667 53 87l41 57c10.667 14.667 18.667 25 24 31
c7.33301 7.33301 13.666 11 18.999 11c4.66699 0 7 -2 7 -6c0 -8.66699 -33 -59.667 -99 -153c64.667 -81.333 97 -126 97 -134c0 -9.33301 -3.33301 -13.666 -10 -12.999z" />
    <glyph glyph-name="logicalnot" unicode="&#xac;" horiz-adv-x="537" 
d="M475 43c-6 0 -9.66699 2.66699 -11 8c2 16.667 4 37.834 6 63.501l6 76.5c2 25.333 3.66699 45.666 5 60.999c-30.667 -2.66699 -66.334 -6 -107.001 -10s-82.167 -7.83301 -124.5 -11.5l-117.5 -10l-87.5 -7.5l-33.5 -3c-5.33301 -0.666992 -7.16602 1.5 -5.49902 6.5
s4.5 10.167 8.5 15.5s7 8 9 8l469 37h4c6 0 11.333 -1.16699 16 -3.5s6.33398 -6.5 5.00098 -12.5l-37 -215c-0.666992 -2 -2.33398 -3 -5.00098 -3z" />
    <glyph glyph-name="uni00AD" unicode="&#xad;" horiz-adv-x="285" 
d="M79 191c-8.66699 0 -16.3311 0.334961 -22.998 1.00195s-12.334 1.66699 -17.001 3c0 20.667 14 31 42 31h40h23.5h37c16.333 0 40.166 -0.666992 71.499 -2c0 -2 0.333008 -3 1 -3v-2c0 -2.66699 -6.33301 -4.83398 -19 -6.50098s-32 -4.83398 -58 -9.50098l-52.5 -8
c-17 -2.66699 -32.167 -4 -45.5 -4z" />
    <glyph glyph-name="registered" unicode="&#xae;" horiz-adv-x="638" 
d="M217 29c-47.333 0 -88 13.999 -122 41.999c-36 30 -54 68 -54 114c0 79.333 42 156 126 230c81.333 71.333 162.333 107 243 107c47.333 0 87.666 -14.667 120.999 -44s50 -67.333 50 -114c0 -79.333 -41 -155.666 -123 -228.999
c-79.333 -70.667 -159.666 -106 -240.999 -106zM408 122.999c90 72 134.999 149.666 134.999 232.999c0 42.667 -13.167 77.667 -39.5 105s-60.833 41 -103.5 41c-73.333 0 -144.666 -32.667 -213.999 -98c60 23.333 116.333 35 169 35c32 0 60 -5 84 -15
c33.333 -13.333 50 -33.666 50 -60.999c0 -33.333 -23.667 -59.666 -71 -78.999c-18 -7.33301 -36.5 -12.833 -55.5 -16.5s-38.5 -5.83398 -58.5 -6.50098c26 -90.667 60.667 -136.667 104 -138zM230.999 49.998c52 0 104.667 19.334 158 58.001
c-26 6 -50.333 27.333 -73 64c-18.667 29.333 -32.667 60 -42 92c-4.66699 0 -8.66699 1 -12 3c8 2 14 5 18 9l9 -3c116.667 14.667 175 47 175 97c0 38 -37.667 57 -113 57c-25.333 0 -58.333 -6.33301 -99 -19c-38.667 -10.667 -70.667 -22.667 -96 -36
c-52.667 -62.667 -79 -125.334 -79 -188.001c0 -40 16 -72.667 48 -98c30 -24 65.333 -36 106 -36zM149.999 75.999c-7.33301 0 -10.998 11.9961 -10.998 35.9961c0 28 26.667 81.667 80 161c44.667 66 83.667 115.333 117 148l22 -11
c-0.666992 -2.66699 -3.83398 -7.5 -9.50098 -14.5l-22.5 -28.5c-22.667 -27.333 -42.334 -52.166 -59.001 -74.499s-30.667 -42.166 -42 -59.499c-21.333 -31.333 -37.833 -59.166 -49.5 -83.499s-18.834 -45.166 -21.501 -62.499
c-1.33301 -7.33301 -2.66602 -11 -3.99902 -11z" />
    <glyph glyph-name="macron" unicode="&#xaf;" horiz-adv-x="184" 
d="M19 375c-12.667 0 -19.002 4.33789 -19.002 13.0049c0 2 1.33301 5.16699 4 9.5s9.33398 6.16602 20.001 5.49902l98 -5c10.667 -0.666992 20.334 -1.83398 29.001 -3.50098s13 -3.83398 13 -6.50098s-4.66699 -4.33398 -14 -5.00098s-23.333 -1.33398 -42 -2.00098
c-15.333 -0.666992 -31 -1.66699 -47 -3s-28.667 -2.33301 -38 -3h-4z" />
    <glyph glyph-name="degree" unicode="&#xb0;" horiz-adv-x="283" 
d="M151 320c-24 0 -44.333 8.33301 -61 25s-25 37 -25 61s8.33301 44.333 25 61s37 25 61 25c23.333 0 43.5 -8.5 60.5 -25.5s25.5 -37.167 25.5 -60.5s-8.5 -43.5 -25.5 -60.5s-37.167 -25.5 -60.5 -25.5zM151 342c17.333 0 32.333 6.33301 45 19s19 27.667 19 45
s-6.33301 32.333 -19 45s-27.667 19 -45 19s-32.333 -6.33301 -45 -19s-19 -27.667 -19 -45s6.33301 -32.333 19 -45s27.667 -19 45 -19z" />
    <glyph glyph-name="plusminus" unicode="&#xb1;" horiz-adv-x="379" 
d="M179 90c-3.33301 0 -4.99902 5 -4.99902 15c0 10.667 1.33301 19.667 4 27c12.667 35.333 21.834 63.5 27.501 84.5s8.16699 34.5 7.5 40.5l-117 -1c-2 2 -3 4.33301 -3 7c0 6 3.33301 11.333 10 16s13 7 19 7l99 -2l25 74l14 43c5.33301 13.333 15 20 29 20
c5.33301 0 8 -2 8 -6c0 -22 -12.667 -66 -38 -132h19c7.33301 0 15.666 0.333008 24.999 1s17.833 1 25.5 1h18.5c34.667 0 52 -3.66699 52 -11c0 -6 -18.667 -10.667 -56 -14l-46.5 -2c-15.667 -0.666992 -31.167 -1.66699 -46.5 -3
c-4.66699 -18.667 -15.667 -49.667 -33 -93c-18.667 -48 -31.334 -72 -38.001 -72zM101.001 18c-2.66699 0.666992 -4.83203 0.998047 -6.49902 0.998047h-4.5c-11.333 0 -17 4 -17 12c0 7.33301 3.16699 14.5 9.5 21.5s13.166 10.5 20.499 10.5c4 0 6 -1.66699 6 -5
c0 -1.33301 -0.166992 -2.66602 -0.5 -3.99902s-0.833008 -2.66602 -1.5 -3.99902h24c9.33301 0 20.333 -0.333008 33 -1s23.667 -1 33 -1h24c11.333 0 21.333 0.166992 30 0.5s15.667 0.833008 21 1.5v1h10c2 0 4.5 -0.166992 7.5 -0.5s6.83301 -0.833008 11.5 -1.5
c6 -0.666992 9 -1.66699 9 -3c0 -4 -16 -8.66699 -48 -14c-27.333 -4.66699 -53.5 -8.16699 -78.5 -10.5s-48.833 -3.5 -71.5 -3.5h-11z" />
    <glyph glyph-name="uni00B2" unicode="&#xb2;" horiz-adv-x="299" 
d="M20 300c-8 0 -12 3.33301 -12 10c0 1.33301 5.5 6.66602 16.5 15.999l43.5 36l62.5 51.5c18.333 15.667 33.833 29.834 46.5 42.501c37.333 38.667 56 69 56 91c0 18.667 -12 28 -36 28c-15.333 0 -32.166 -3.66699 -50.499 -11s-32.5 -16.333 -42.5 -27l-10 -13
c-2.66699 -4.66699 -6 -7 -10 -7c-6 0 -9 3.66699 -9 11c0 1.33301 0.666992 3.33301 2 6v1c10.667 16 31 31.667 61 47c15.333 6.66699 29.166 11.667 41.499 15s23.833 5 34.5 5c34.667 0 52 -12.333 52 -37c0 -30 -26.667 -70 -80 -120l-110 -97
c45.333 10.667 96.333 16 153 16c41.333 0 62 -5.66699 62 -17c0 -5.33301 -4 -8 -12 -8c-1.33301 0 -3 0.333008 -5 1c-8 1.33301 -17 2.33301 -27 3s-21.333 1 -34 1c-71.333 0 -133.333 -14.333 -186 -43h-2c-1.33301 -0.666992 -3 -1 -5 -1z" />
    <glyph glyph-name="uni00B3" unicode="&#xb3;" horiz-adv-x="246" 
d="M51 276c-28.667 0 -42.998 5.99805 -42.998 17.998c0 3.33301 1.66699 6 5 8h18c19.333 0 37.333 1.66699 54 5s31.667 8 45 14c36.667 16 55 40.667 55 74c0 42 -23.333 63 -70 63c-4 0 -8.83301 -0.5 -14.5 -1.5l-20.5 -3.5c-8 -2 -14.833 -3.33301 -20.5 -4
s-10.834 -1 -15.501 -1c-5.33301 0 -8 1.66699 -8 5c0 5.33301 14.667 13 44 23c38.667 13.333 65 23.333 79 30c28 12.667 42 27.334 42 44.001c0 24 -20.667 36 -62 36c-22 0 -40 -4.33301 -54 -13c-9.33301 -5.33301 -15 -8 -17 -8c-3.33301 0 -5 2 -5 6
c0 14 9 23.667 27 29c6.66699 2.66699 13.667 4.33398 21 5.00098s15 1 23 1c9.33301 0 19 -0.5 29 -1.5s20.333 -3.16699 31 -6.5c29.333 -8 44 -19 44 -33c0 -12.667 -12 -28 -36 -46l-46 -35c39.333 -18 59 -44.667 59 -80c0 -26.667 -21 -55.667 -63 -87
c-40.667 -27.333 -74.334 -41 -101.001 -41z" />
    <glyph glyph-name="acute" unicode="&#xb4;" horiz-adv-x="136" 
d="M26 368c-2.66699 -0.666992 -4.00098 0.666992 -4.00098 4c3.33301 6 8.5 12.667 15.5 20l22.5 24l47 54c2 2 4 3 6 3c10.667 0 17.334 -5.33301 20.001 -16v-2c0 -2 -0.333008 -3.83301 -1 -5.5s-1.66699 -3.5 -3 -5.5c-5.33301 -4 -13 -9.33301 -23 -16
s-18 -12.667 -24 -18c-31.333 -26 -50 -40 -56 -42z" />
    <glyph glyph-name="uni00B5" unicode="&#xb5;" horiz-adv-x="262" 
d="M-198 -374c-22 0 -40.998 12.001 -56.998 36.001c-14.667 20.667 -22 42.667 -22 66c0 10.667 2.33301 17.334 7 20.001l6 -24c2 -8 3.66699 -16.333 5 -25c8.66699 -28.667 23.667 -43 45 -43c25.333 0 54.666 17.667 87.999 53c26 28 46.667 57 62 87
c40.667 78 68.667 183.667 84 317c2.66699 21.333 4.5 38.5 5.5 51.5s1.5 21.833 1.5 26.5c0 2 -0.333008 4.83301 -1 8.5s-1 6.5 -1 8.5c0 4.66699 0.666992 11.5 2 20.5s3.33301 19.833 6 32.5c1.33301 7.33301 6.66602 11 15.999 11h16c2 -2 3 -5 3 -9
s-5.33301 -25.333 -16 -64c-5.33301 -20.667 -9.5 -40.834 -12.5 -60.501s-4.5 -38.834 -4.5 -57.501c0 -28.667 5.33301 -43 16 -43c16 0 39.333 26 70 78c28.667 48 48.667 94.667 60 140c4 15.333 12 23 24 23c7.33301 0 11 -3 11 -9c0 -4.66699 -2 -10.667 -6 -18
s-6.33301 -12.333 -7 -15c-8 -32 -12 -71.667 -12 -119c0 -54.667 11.667 -82 35 -82c12.667 0 27.334 13 44.001 39c18 26.667 27.667 40 29 40c2.66699 0 4 -1.66699 4 -5c0 -9.33301 -13.667 -29.666 -41 -60.999c-26.667 -30 -45 -45 -55 -45c-28 0 -42 29.333 -42 88
c0 8.66699 0.666992 20.5 2 35.5s3.33301 33.167 6 54.5c-8 -15.333 -17.5 -31.666 -28.5 -48.999l-36.5 -55c-36.667 -52 -63 -78 -79 -78c-4.66699 0 -8.66699 2 -12 6c-6 -38.667 -14 -75.834 -24 -111.501s-21.667 -69.834 -35 -102.501
c-36.667 -88.667 -81.334 -142.667 -134.001 -162c-6 -2.66699 -13.333 -4 -22 -4z" />
    <glyph glyph-name="paragraph" unicode="&#xb6;" horiz-adv-x="487" 
d="M328 -77c7.33301 21.333 13.834 49.3291 19.501 83.9961s10.667 72.667 15 114s7.5 83.5 9.5 126.5s3 83.167 3 120.5c0 29.333 -0.666992 56 -2 80s-3.66602 43.333 -6.99902 58l-30 3l3 -11c2.66699 -12 4.5 -28.333 5.5 -49s1.5 -43.667 1.5 -69
c0 -27.333 -0.5 -55.833 -1.5 -85.5s-2.16699 -58 -3.5 -85s-2.83301 -50.5 -4.5 -70.5s-3.16699 -33.667 -4.5 -41c-16 -94.667 -48.667 -138 -98 -130c-4.66699 1.33301 -9.5 2.83301 -14.5 4.5s-10.167 4.16699 -15.5 7.5c-14 9.33301 -20 17.333 -18 24l1 4
c6 -4 11.667 -7.16699 17 -9.5s11 -3.5 17 -3.5c20 0 38.167 12.167 54.5 36.5s28.833 60.833 37.5 109.5c2 12.667 4 29.834 6 51.501s3 40.834 3 57.501c0 20.667 -2 31 -6 31c-3.33301 -0.666992 -6.83301 -1 -10.5 -1h-10.5c-34 0 -62.667 6.33301 -86 19
s-41.166 28.834 -53.499 48.501s-18.5 40.167 -18.5 61.5c0 20 5.66699 39.333 17 58s28.333 34 51 46c7.33301 4 15.166 7.5 23.499 10.5s16.166 5.5 23.499 7.5c1.33301 0.666992 2.5 1 3.5 1s2.16699 0.333008 3.5 1c9.33301 2 18.333 3 27 3
c4 0 8.16699 0.166992 12.5 0.5s8.5 0.5 12.5 0.5c15.333 0 29.666 -0.5 42.999 -1.5s22.333 -2.16699 27 -3.5c16 -3.33301 26 -10.166 30 -20.499s6 -23.166 6 -38.499c0 -18.667 -0.5 -44.834 -1.5 -78.501s-2.66699 -70.5 -5 -110.5s-5.33301 -79.167 -9 -117.5
s-8.5 -71.833 -14.5 -100.5c-7.33301 -38 -13.833 -69.5 -19.5 -94.5s-11.167 -40.167 -16.5 -45.5c-6 -5.33301 -11.667 -8.33301 -17 -9s-7.33301 1.33301 -6 6z" />
    <glyph glyph-name="periodcentered" unicode="&#xb7;" horiz-adv-x="181" 
d="M80 191c-9.33301 0 -14 8.33301 -14 25c0 10.667 5.16699 21 15.5 31s20.833 15 31.5 15c3.33301 0 5 -0.666992 5 -2c0 -6 -1.83301 -14.667 -5.5 -26s-5.5 -19.333 -5.5 -24c0 -12.667 -9 -19 -27 -19z" />
    <glyph glyph-name="cedilla" unicode="&#xb8;" horiz-adv-x="129" 
d="M53 -157c-12 0 -24.999 1.00098 -38.999 3.00098c-4 0 -6 3 -6 9c0 3.33301 2 6 6 8c13.333 -2 24.666 -3 33.999 -3c28 0 42 9.66699 42 29c0 10.667 -3 18.167 -9 22.5s-12.167 9.16602 -18.5 14.499s-9.5 14.666 -9.5 27.999s3 23.833 9 31.5s16.333 13.834 31 18.501
c6 2 9.66699 1.33301 11 -2c-11.333 -6 -19.333 -13 -24 -21s-7 -15 -7 -21c0 -8.66699 4.16699 -15.5 12.5 -20.5s16.833 -11 25.5 -18s13 -17.833 13 -32.5c0 -16.667 -6 -28.5 -18 -35.5s-29.667 -10.5 -53 -10.5z" />
    <glyph glyph-name="uni00B9" unicode="&#xb9;" horiz-adv-x="156" 
d="M92 276c-7.33301 0 -11.334 2.66699 -12.001 8v16c0 8.66699 0.833008 21.834 2.5 39.501s4.16699 39.834 7.5 66.501l11 90c1.33301 15.333 2.5 30 3.5 44s1.5 28 1.5 42l-57 -65c-16 -18 -24.667 -27 -26 -27c-3.33301 0 -5 1.33301 -5 4c0 3.33301 2 7 6 11
c6 6 12.333 13 19 21s13.334 16.667 20.001 26c2 3.33301 4 6.16602 6 8.49902s4 4.83301 6 7.5l14.5 19.5c4.33301 5.66699 7.83301 10.5 10.5 14.5c6.66699 7.33301 16.667 13.666 30 18.999l3 -1c0 -16 -0.833008 -36 -2.5 -60s-4.16699 -51.667 -7.5 -83
c-6 -62.667 -9 -110 -9 -142v-9.5c0 -3.66699 0.333008 -7.5 1 -11.5s1.16699 -8 1.5 -12s0.5 -7.33301 0.5 -10c0 -10.667 -8.33301 -16 -25 -16z" />
    <glyph glyph-name="ordmasculine" unicode="&#xba;" horiz-adv-x="182" 
d="M69 302c-32.667 0 -49.0029 31.999 -49.0029 95.999c0 44.667 7.66699 91.667 23 141c6.66699 20 17.834 36.667 33.501 50s32.5 20 50.5 20c8 0 12.333 -2 13 -6c-1.33301 -4 -3.66602 -5.33301 -6.99902 -4c-26 -7.33301 -45.333 -34.333 -58 -81
c-9.33301 -36 -14 -73 -14 -111c0 -47.333 7.33301 -71 22 -71c20.667 0 37 23.333 49 70c8 33.333 12 67 12 101c0 17.333 -3 32.333 -9 45s-9 19.334 -9 20.001h-4c0 6.66699 4.33301 10 13 10c21.333 0 32 -25.667 32 -77c0 -19.333 -1.83301 -39 -5.5 -59
s-9.16699 -40.333 -16.5 -61c-19.333 -55.333 -44.666 -83 -75.999 -83z" />
    <glyph glyph-name="guillemotright" unicode="&#xbb;" horiz-adv-x="420" 
d="M247 9c-4 0 -6.00098 2 -6.00098 6c0 10 33 61 99 153c-65.333 82.667 -98 127.334 -98 134.001c0 10 3.66699 14.333 11 13l8 -4c16.667 -22 35.667 -41.667 57 -59l64 -51c2 -0.666992 3 -2.66699 3 -6c0 -6 -17.667 -34.667 -53 -86
c-15.333 -22.667 -28.5 -41.334 -39.5 -56.001s-19.833 -25.667 -26.5 -33c-7.33301 -7.33301 -13.666 -11 -18.999 -11zM90.999 9c-4 0 -6.00098 2 -6.00098 6c0 10 33 61 99 153c-65.333 82.667 -98 127.334 -98 134.001c0 10 3.66699 14.333 11 13l8 -4
c16.667 -22 35.667 -41.667 57 -59l64 -51c2 -0.666992 3 -2.66699 3 -6c0 -6 -17.667 -34.667 -53 -86c-15.333 -22.667 -28.5 -41.334 -39.5 -56.001s-19.833 -25.667 -26.5 -33c-7.33301 -7.33301 -13.666 -11 -18.999 -11z" />
    <glyph glyph-name="onequarter" unicode="&#xbc;" horiz-adv-x="571" 
d="M111 276c-7.33301 0 -11.334 2.66699 -12.001 8v16c0 8.66699 0.833008 21.834 2.5 39.501s4.16699 39.834 7.5 66.501l11 90c1.33301 15.333 2.5 30 3.5 44s1.5 28 1.5 42l-57 -65c-16 -18 -24.667 -27 -26 -27c-3.33301 0 -5 1.33301 -5 4c0 3.33301 2 7 6 11
c6 6 12.333 13 19 21s13.334 16.667 20.001 26c2 3.33301 4 6.16602 6 8.49902s4 4.83301 6 7.5l14.5 19.5c4.33301 5.66699 7.83301 10.5 10.5 14.5c6.66699 7.33301 16.667 13.666 30 18.999l3 -1c0 -16 -0.833008 -36 -2.5 -60s-4.16699 -51.667 -7.5 -83
c-6 -62.667 -9 -110 -9 -142v-9.5c0 -3.66699 0.333008 -7.5 1 -11.5s1.16699 -8 1.5 -12s0.5 -7.33301 0.5 -10c0 -10.667 -8.33301 -16 -25 -16zM462.999 -2c-25.333 0 -37.999 25.3311 -37.999 75.998c0 17.333 1 34 3 50c-12 3.33301 -28 5 -48 5
c-18 0 -35.167 -1 -51.5 -3s-31.166 -5.33301 -44.499 -10c-2.66699 -0.666992 -5 -1 -7 -1h-6c-8 0 -12 2 -12 6c0.666992 2.66699 2 4.33398 4 5.00098l39 30c28.667 23.333 55.667 46.5 81 69.5s49 45.833 71 68.5l2 32c2 20 12.667 30 32 30c6 0 9 -3.66699 9 -11
c0 -4.66699 -0.5 -10.667 -1.5 -18s-2.83301 -16.333 -5.5 -27l-22 -75c-8 -30.667 -12 -55 -12 -73c0.666992 -0.666992 2.33398 -1 5.00098 -1c36 0 65.667 7.33301 89 22c2 2 4.33301 3 7 3s4 -1.33301 4 -4s-1.66699 -5.66699 -5 -9
c-18.667 -18.667 -45.334 -29.667 -80.001 -33c-10.667 -1.33301 -17.334 -3.83301 -20.001 -7.5s-4.66699 -11.5 -6 -23.5c-0.666992 -4 -1.16699 -8.16699 -1.5 -12.5s-0.5 -9.16602 -0.5 -14.499c0 -34.667 8 -52 24 -52c9.33301 0 18.333 5.33301 27 16l8.5 10.5
c2.33301 3 5.83301 3.83301 10.5 2.5c0 -2.66699 -0.666992 -4.66699 -2 -6c-12.667 -30 -30.334 -45 -53.001 -45zM394 150.998h37l22 120l-138 -122c8.66699 0 18.5 0.166992 29.5 0.5s23.167 0.833008 36.5 1.5h13v0zM518 49.998l1 -1h-1v1zM97 32.998
c-4.66699 4.66699 -7.00098 12.001 -7.00098 22.001c0 15.333 33.667 67.666 101 156.999c19.333 27.333 38.833 53.5 58.5 78.5l59.5 74.5l45.5 55l32.5 38c23.333 24 42.666 36 57.999 36c6.66699 0 12 -1.66699 16 -5c6.66699 -4.66699 8.33398 -9.33398 5.00098 -14.001
c-2.66699 -4 -9 -9.33301 -19 -16l-21 -13c-10 -7.33301 -20.667 -16.5 -32 -27.5l-37 -37.5c-26 -26.667 -51.5 -55 -76.5 -85s-49.5 -61.333 -73.5 -94l-24.5 -33c-7 -9.33301 -12.833 -17.666 -17.5 -24.999l-12 -20c-5.33301 -8.66699 -11.666 -19.667 -18.999 -33
l-17.5 -30c-5 -8.66699 -9.83301 -16 -14.5 -22l-4 -5z" />
    <glyph glyph-name="onehalf" unicode="&#xbd;" horiz-adv-x="588" 
d="M315 -7c-8 0 -12 3.33301 -12 10c0 1.33301 5.5 6.66602 16.5 15.999l43.5 36l62.5 51.5c18.333 15.667 33.833 29.834 46.5 42.501c37.333 38.667 56 69 56 91c0 18.667 -12 28 -36 28c-15.333 0 -32.166 -3.66699 -50.499 -11s-32.5 -16.333 -42.5 -27l-10 -13
c-2.66699 -4.66699 -6 -7 -10 -7c-6 0 -9 3.66699 -9 11c0 1.33301 0.666992 3.33301 2 6v1c10.667 16 31 31.667 61 47c15.333 6.66699 29.166 11.667 41.499 15s23.833 5 34.5 5c34.667 0 52 -12.333 52 -37c0 -30 -26.667 -70 -80 -120l-110 -97
c45.333 10.667 96.333 16 153 16c41.333 0 62 -5.66699 62 -17c0 -5.33301 -4 -8 -12 -8c-1.33301 0 -3 0.333008 -5 1c-8 1.33301 -17 2.33301 -27 3s-21.333 1 -34 1c-71.333 0 -133.333 -14.333 -186 -43h-2c-1.33301 -0.666992 -3 -1 -5 -1zM111 276
c-7.33301 0 -11.334 2.66699 -12.001 8v16c0 8.66699 0.833008 21.834 2.5 39.501s4.16699 39.834 7.5 66.501l11 90c1.33301 15.333 2.5 30 3.5 44s1.5 28 1.5 42l-57 -65c-16 -18 -24.667 -27 -26 -27c-3.33301 0 -5 1.33301 -5 4c0 3.33301 2 7 6 11c6 6 12.333 13 19 21
s13.334 16.667 20.001 26c2 3.33301 4 6.16602 6 8.49902s4 4.83301 6 7.5l14.5 19.5c4.33301 5.66699 7.83301 10.5 10.5 14.5c6.66699 7.33301 16.667 13.666 30 18.999l3 -1c0 -16 -0.833008 -36 -2.5 -60s-4.16699 -51.667 -7.5 -83c-6 -62.667 -9 -110 -9 -142v-9.5
c0 -3.66699 0.333008 -7.5 1 -11.5s1.16699 -8 1.5 -12s0.5 -7.33301 0.5 -10c0 -10.667 -8.33301 -16 -25 -16zM135.999 33c-4.66699 4.66699 -7.00098 12.001 -7.00098 22.001c0 15.333 33.667 67.666 101 156.999c19.333 27.333 38.833 53.5 58.5 78.5l59.5 74.5l45.5 55
l32.5 38c23.333 24 42.666 36 57.999 36c6.66699 0 12 -1.66699 16 -5c6.66699 -4.66699 8.33398 -9.33398 5.00098 -14.001c-2.66699 -4 -9 -9.33301 -19 -16l-21 -13c-10 -7.33301 -20.667 -16.5 -32 -27.5l-37 -37.5c-26 -26.667 -51.5 -55 -76.5 -85
s-49.5 -61.333 -73.5 -94l-24.5 -33c-7 -9.33301 -12.833 -17.666 -17.5 -24.999l-12 -20c-5.33301 -8.66699 -11.666 -19.667 -18.999 -33l-17.5 -30c-5 -8.66699 -9.83301 -16 -14.5 -22l-4 -5z" />
    <glyph glyph-name="threequarters" unicode="&#xbe;" horiz-adv-x="537" 
d="M51 276c-28.667 0 -42.998 5.99805 -42.998 17.998c0 3.33301 1.66699 6 5 8h18c19.333 0 37.333 1.66699 54 5s31.667 8 45 14c36.667 16 55 40.667 55 74c0 42 -23.333 63 -70 63c-4 0 -8.83301 -0.5 -14.5 -1.5l-20.5 -3.5c-8 -2 -14.833 -3.33301 -20.5 -4
s-10.834 -1 -15.501 -1c-5.33301 0 -8 1.66699 -8 5c0 5.33301 14.667 13 44 23c38.667 13.333 65 23.333 79 30c28 12.667 42 27.334 42 44.001c0 24 -20.667 36 -62 36c-22 0 -40 -4.33301 -54 -13c-9.33301 -5.33301 -15 -8 -17 -8c-3.33301 0 -5 2 -5 6
c0 14 9 23.667 27 29c6.66699 2.66699 13.667 4.33398 21 5.00098s15 1 23 1c9.33301 0 19 -0.5 29 -1.5s20.333 -3.16699 31 -6.5c29.333 -8 44 -19 44 -33c0 -12.667 -12 -28 -36 -46l-46 -35c39.333 -18 59 -44.667 59 -80c0 -26.667 -21 -55.667 -63 -87
c-40.667 -27.333 -74.334 -41 -101.001 -41zM429.002 -75.002c-25.333 0 -37.999 25.3311 -37.999 75.998c0 17.333 1 34 3 50c-12 3.33301 -28 5 -48 5c-18 0 -35.167 -1 -51.5 -3s-31.166 -5.33301 -44.499 -10c-2.66699 -0.666992 -5 -1 -7 -1h-6c-8 0 -12 2 -12 6
c0.666992 2.66699 2 4.33398 4 5.00098l39 30c28.667 23.333 55.667 46.5 81 69.5s49 45.833 71 68.5l2 32c2 20 12.667 30 32 30c6 0 9 -3.66699 9 -11c0 -4.66699 -0.5 -10.667 -1.5 -18s-2.83301 -16.333 -5.5 -27l-22 -75c-8 -30.667 -12 -55 -12 -73
c0.666992 -0.666992 2.33398 -1 5.00098 -1c36 0 65.667 7.33301 89 22c2 2 4.33301 3 7 3s4 -1.33301 4 -4s-1.66699 -5.66699 -5 -9c-18.667 -18.667 -45.334 -29.667 -80.001 -33c-10.667 -1.33301 -17.334 -3.83301 -20.001 -7.5s-4.66699 -11.5 -6 -23.5
c-0.666992 -4 -1.16699 -8.16699 -1.5 -12.5s-0.5 -9.16602 -0.5 -14.499c0 -34.667 8 -52 24 -52c9.33301 0 18.333 5.33301 27 16l8.5 10.5c2.33301 3 5.83301 3.83301 10.5 2.5c0 -2.66699 -0.666992 -4.66699 -2 -6c-12.667 -30 -30.334 -45 -53.001 -45z
M360.003 77.9961h37l22 120l-138 -122c8.66699 0 18.5 0.166992 29.5 0.5s23.167 0.833008 36.5 1.5h13v0zM484.003 -23.0039l1 -1h-1v1zM98.0029 32.9961c-4.66699 4.66699 -7.00098 12.001 -7.00098 22.001c0 15.333 33.667 67.666 101 156.999
c19.333 27.333 38.833 53.5 58.5 78.5l59.5 74.5l45.5 55l32.5 38c23.333 24 42.666 36 57.999 36c6.66699 0 12 -1.66699 16 -5c6.66699 -4.66699 8.33398 -9.33398 5.00098 -14.001c-2.66699 -4 -9 -9.33301 -19 -16l-21 -13c-10 -7.33301 -20.667 -16.5 -32 -27.5
l-37 -37.5c-26 -26.667 -51.5 -55 -76.5 -85s-49.5 -61.333 -73.5 -94l-24.5 -33c-7 -9.33301 -12.833 -17.666 -17.5 -24.999l-12 -20c-5.33301 -8.66699 -11.666 -19.667 -18.999 -33l-17.5 -30c-5 -8.66699 -9.83301 -16 -14.5 -22l-4 -5z" />
    <glyph glyph-name="questiondown" unicode="&#xbf;" horiz-adv-x="385" 
d="M273 247c-6 0 -9 2.33398 -9 7.00098c0 24 10 42 30 54c4.66699 -1.33301 10.334 -5.16602 17.001 -11.499s10 -11.833 10 -16.5c0 -6.66699 -4.33301 -13.834 -13 -21.501s-16.334 -10.834 -23.001 -9.50098c-2.66699 -0.666992 -5 -1.16699 -7 -1.5
s-3.66699 -0.5 -5 -0.5zM95 -250.999c-71.333 0 -107 26.667 -107 80c0 34 22.333 71 67 111c9.33301 8.66699 24.5 20.5 45.5 35.5l78.5 56.5c44.667 30.667 67 52.667 67 66c0 3.33301 -2.66699 8 -8 14s-8 10 -8 12c0 4.66699 12 7 36 7c10 0 15 -6 15 -18
c0 -14 -22 -36.667 -66 -68l-85.5 -60.5c-20.333 -15 -32.833 -24.5 -37.5 -28.5c-44 -38.667 -66 -74 -66 -106c0 -52.667 37 -79 111 -79c34.667 0 70.334 6 107.001 18c41.333 12.667 72.666 29.667 93.999 51c-5.33301 9.33301 -8 19 -8 29c5.33301 4 11 6 17 6
c15.333 0 23 -6.33301 23 -19c0 -7.33301 -11.333 -19.333 -34 -36c-20.667 -16 -35.667 -25.667 -45 -29c-68.667 -28 -134 -42 -196 -42z" />
    <glyph glyph-name="Agrave" unicode="&#xc0;" horiz-adv-x="558" 
d="M55 -76c-34.667 0 -52.001 22.3359 -52.001 67.0029c0 54 26.333 124.333 79 211c-44.667 4.66699 -67 13.334 -67 26.001c0 12 13.333 18 40 18c6.66699 0 24.334 -1 53.001 -3c117.333 175.333 211.333 282.666 282 321.999c0.666992 0.666992 2.66699 1 6 1
c17.333 0 26 -16.333 26 -49c0 -21.333 -3 -35.666 -9 -42.999c-0.666992 -2.66699 -1.16699 -6.33398 -1.5 -11.001s-0.5 -10.334 -0.5 -17.001c0 -35.333 1.33301 -69.833 4 -103.5s6.66699 -66.5 12 -98.5l50 6l28.5 3.5c8.33301 1 15.833 1.5 22.5 1.5
c3.33301 0 5 -0.666992 5 -2c0 -4 -16 -9 -48 -15c-32 -4.66699 -50 -10.334 -54 -17.001c9.33301 -72.667 24.666 -126 45.999 -160c13.333 -21.333 26 -32 38 -32c4 0 9 1.5 15 4.5s9.33301 4.5 10 4.5l2 -2l-30 -41c-8 -8.66699 -16.333 -13 -25 -13
c-27.333 0 -49.666 35.667 -66.999 107c-4.66699 21.333 -8.83398 43.666 -12.501 66.999s-6.16699 47.333 -7.5 72c-82.667 -8 -148.667 -14 -198 -18s-81.666 -6.33301 -96.999 -7c-48 -86 -72 -152.333 -72 -199c0 -36.667 16.667 -55 50 -55c14.667 0 33 4 55 12v-2
c0 -4.66699 -12 -11.667 -36 -21s-39.667 -14 -47 -14zM280.999 239.003c40.667 0 80.333 1.00098 119 3.00098c-3.33301 15.333 -6.83301 34.166 -10.5 56.499s-7.16699 48.5 -10.5 78.5l-14 138c-70 -49.333 -148.333 -140 -235 -272
c27.333 -1.33301 53.5 -2.33301 78.5 -3s49.167 -1 72.5 -1zM426.998 613.004c-2.66699 0 -8.50098 3.50098 -17.501 10.501l-39.5 31.5c-16.667 13.333 -31 24.166 -43 32.499s-20.667 14.5 -26 18.5c-0.666992 2 -1.5 3.83301 -2.5 5.5s-1.5 3.5 -1.5 5.5v2
c2.66699 10.667 9.33398 16 20.001 16c2 0 4 -1 6 -3l69 -71l23.5 -24c7 -7.33301 11.833 -14 14.5 -20c0 -2.66699 -1 -4 -3 -4z" />
    <glyph glyph-name="Aacute" unicode="&#xc1;" horiz-adv-x="558" 
d="M55 -76c-34.667 0 -52.001 22.3359 -52.001 67.0029c0 54 26.333 124.333 79 211c-44.667 4.66699 -67 13.334 -67 26.001c0 12 13.333 18 40 18c6.66699 0 24.334 -1 53.001 -3c117.333 175.333 211.333 282.666 282 321.999c0.666992 0.666992 2.66699 1 6 1
c17.333 0 26 -16.333 26 -49c0 -21.333 -3 -35.666 -9 -42.999c-0.666992 -2.66699 -1.16699 -6.33398 -1.5 -11.001s-0.5 -10.334 -0.5 -17.001c0 -35.333 1.33301 -69.833 4 -103.5s6.66699 -66.5 12 -98.5l50 6l28.5 3.5c8.33301 1 15.833 1.5 22.5 1.5
c3.33301 0 5 -0.666992 5 -2c0 -4 -16 -9 -48 -15c-32 -4.66699 -50 -10.334 -54 -17.001c9.33301 -72.667 24.666 -126 45.999 -160c13.333 -21.333 26 -32 38 -32c4 0 9 1.5 15 4.5s9.33301 4.5 10 4.5l2 -2l-30 -41c-8 -8.66699 -16.333 -13 -25 -13
c-27.333 0 -49.666 35.667 -66.999 107c-4.66699 21.333 -8.83398 43.666 -12.501 66.999s-6.16699 47.333 -7.5 72c-82.667 -8 -148.667 -14 -198 -18s-81.666 -6.33301 -96.999 -7c-48 -86 -72 -152.333 -72 -199c0 -36.667 16.667 -55 50 -55c14.667 0 33 4 55 12v-2
c0 -4.66699 -12 -11.667 -36 -21s-39.667 -14 -47 -14zM280.999 239.003c40.667 0 80.333 1.00098 119 3.00098c-3.33301 15.333 -6.83301 34.166 -10.5 56.499s-7.16699 48.5 -10.5 78.5l-14 138c-70 -49.333 -148.333 -140 -235 -272
c27.333 -1.33301 53.5 -2.33301 78.5 -3s49.167 -1 72.5 -1zM362.998 613.004c-2.66699 -0.666992 -4.00195 0.666992 -4.00195 4c3.33301 6 8.33301 12.667 15 20s14.334 15.333 23.001 24l69 71c2 2 4 3 6 3c10.667 0 17.334 -5.33301 20.001 -16v-2
c0 -2 -0.333008 -3.83301 -1 -5.5s-1.66699 -3.5 -3 -5.5l-25.5 -18.5l-43.5 -32.5l-38 -29.5c-8.66699 -7 -14.667 -11.167 -18 -12.5z" />
    <glyph glyph-name="Acircumflex" unicode="&#xc2;" horiz-adv-x="558" 
d="M55 -76c-34.667 0 -52.001 22.3359 -52.001 67.0029c0 54 26.333 124.333 79 211c-44.667 4.66699 -67 13.334 -67 26.001c0 12 13.333 18 40 18c6.66699 0 24.334 -1 53.001 -3c117.333 175.333 211.333 282.666 282 321.999c0.666992 0.666992 2.66699 1 6 1
c17.333 0 26 -16.333 26 -49c0 -21.333 -3 -35.666 -9 -42.999c-0.666992 -2.66699 -1.16699 -6.33398 -1.5 -11.001s-0.5 -10.334 -0.5 -17.001c0 -35.333 1.33301 -69.833 4 -103.5s6.66699 -66.5 12 -98.5l50 6l28.5 3.5c8.33301 1 15.833 1.5 22.5 1.5
c3.33301 0 5 -0.666992 5 -2c0 -4 -16 -9 -48 -15c-32 -4.66699 -50 -10.334 -54 -17.001c9.33301 -72.667 24.666 -126 45.999 -160c13.333 -21.333 26 -32 38 -32c4 0 9 1.5 15 4.5s9.33301 4.5 10 4.5l2 -2l-30 -41c-8 -8.66699 -16.333 -13 -25 -13
c-27.333 0 -49.666 35.667 -66.999 107c-4.66699 21.333 -8.83398 43.666 -12.501 66.999s-6.16699 47.333 -7.5 72c-82.667 -8 -148.667 -14 -198 -18s-81.666 -6.33301 -96.999 -7c-48 -86 -72 -152.333 -72 -199c0 -36.667 16.667 -55 50 -55c14.667 0 33 4 55 12v-2
c0 -4.66699 -12 -11.667 -36 -21s-39.667 -14 -47 -14zM280.999 239.003c40.667 0 80.333 1.00098 119 3.00098c-3.33301 15.333 -6.83301 34.166 -10.5 56.499s-7.16699 48.5 -10.5 78.5l-14 138c-70 -49.333 -148.333 -140 -235 -272
c27.333 -1.33301 53.5 -2.33301 78.5 -3s49.167 -1 72.5 -1zM302.998 605.004c-2 0 -3.00195 2.66699 -3.00195 8c0 2.66699 3.66699 7 11 13l26 22l63 56c6 6 12.333 9 19 9s12.334 -3 17.001 -9l49 -56c7.33301 -8 13.333 -15.333 18 -22s7 -11.667 7 -15
c0 -5.33301 -2 -7.33301 -6 -6c-0.666992 0.666992 -5.5 4 -14.5 10s-20.833 15 -35.5 27c-8.66699 7.33301 -16.167 14.166 -22.5 20.499s-11.833 11.5 -16.5 15.5l-20.5 -15.5c-8.33301 -6.33301 -17.833 -13.166 -28.5 -20.499l-40.5 -25.5
c-8.33301 -5 -14.5 -8.5 -18.5 -10.5c-1.33301 -0.666992 -2.66602 -1 -3.99902 -1z" />
    <glyph glyph-name="Atilde" unicode="&#xc3;" horiz-adv-x="558" 
d="M55 -76c-34.667 0 -52.001 22.3359 -52.001 67.0029c0 54 26.333 124.333 79 211c-44.667 4.66699 -67 13.334 -67 26.001c0 12 13.333 18 40 18c6.66699 0 24.334 -1 53.001 -3c117.333 175.333 211.333 282.666 282 321.999c0.666992 0.666992 2.66699 1 6 1
c17.333 0 26 -16.333 26 -49c0 -21.333 -3 -35.666 -9 -42.999c-0.666992 -2.66699 -1.16699 -6.33398 -1.5 -11.001s-0.5 -10.334 -0.5 -17.001c0 -35.333 1.33301 -69.833 4 -103.5s6.66699 -66.5 12 -98.5l50 6l28.5 3.5c8.33301 1 15.833 1.5 22.5 1.5
c3.33301 0 5 -0.666992 5 -2c0 -4 -16 -9 -48 -15c-32 -4.66699 -50 -10.334 -54 -17.001c9.33301 -72.667 24.666 -126 45.999 -160c13.333 -21.333 26 -32 38 -32c4 0 9 1.5 15 4.5s9.33301 4.5 10 4.5l2 -2l-30 -41c-8 -8.66699 -16.333 -13 -25 -13
c-27.333 0 -49.666 35.667 -66.999 107c-4.66699 21.333 -8.83398 43.666 -12.501 66.999s-6.16699 47.333 -7.5 72c-82.667 -8 -148.667 -14 -198 -18s-81.666 -6.33301 -96.999 -7c-48 -86 -72 -152.333 -72 -199c0 -36.667 16.667 -55 50 -55c14.667 0 33 4 55 12v-2
c0 -4.66699 -12 -11.667 -36 -21s-39.667 -14 -47 -14zM280.999 239.003c40.667 0 80.333 1.00098 119 3.00098c-3.33301 15.333 -6.83301 34.166 -10.5 56.499s-7.16699 48.5 -10.5 78.5l-14 138c-70 -49.333 -148.333 -140 -235 -272
c27.333 -1.33301 53.5 -2.33301 78.5 -3s49.167 -1 72.5 -1zM307.998 619.004c-2.66699 0 -3.83398 1.16602 -3.50098 3.49902s0.833008 4.16602 1.5 5.49902c4.66699 13.333 13.167 24 25.5 32s26.5 12 42.5 12c10 0 22.333 -3.5 37 -10.5s26.667 -10.5 36 -10.5
c8.66699 0 15.834 1.83301 21.501 5.5s10.834 8.83398 15.501 15.501c1.33301 2.66699 3.66602 4.33398 6.99902 5.00098s4.66602 -0.333008 3.99902 -3c-3.33301 -18 -10.833 -31.333 -22.5 -40s-24.167 -13 -37.5 -13c-14 0 -27.167 4 -39.5 12s-26.166 12 -41.499 12
c-10.667 0 -20.667 -4.33301 -30 -13c-4.66699 -4 -8 -7.16699 -10 -9.5s-4 -3.5 -6 -3.5z" />
    <glyph glyph-name="Adieresis" unicode="&#xc4;" horiz-adv-x="558" 
d="M55 -76c-34.667 0 -52.001 22.3359 -52.001 67.0029c0 54 26.333 124.333 79 211c-44.667 4.66699 -67 13.334 -67 26.001c0 12 13.333 18 40 18c6.66699 0 24.334 -1 53.001 -3c117.333 175.333 211.333 282.666 282 321.999c0.666992 0.666992 2.66699 1 6 1
c17.333 0 26 -16.333 26 -49c0 -21.333 -3 -35.666 -9 -42.999c-0.666992 -2.66699 -1.16699 -6.33398 -1.5 -11.001s-0.5 -10.334 -0.5 -17.001c0 -35.333 1.33301 -69.833 4 -103.5s6.66699 -66.5 12 -98.5l50 6l28.5 3.5c8.33301 1 15.833 1.5 22.5 1.5
c3.33301 0 5 -0.666992 5 -2c0 -4 -16 -9 -48 -15c-32 -4.66699 -50 -10.334 -54 -17.001c9.33301 -72.667 24.666 -126 45.999 -160c13.333 -21.333 26 -32 38 -32c4 0 9 1.5 15 4.5s9.33301 4.5 10 4.5l2 -2l-30 -41c-8 -8.66699 -16.333 -13 -25 -13
c-27.333 0 -49.666 35.667 -66.999 107c-4.66699 21.333 -8.83398 43.666 -12.501 66.999s-6.16699 47.333 -7.5 72c-82.667 -8 -148.667 -14 -198 -18s-81.666 -6.33301 -96.999 -7c-48 -86 -72 -152.333 -72 -199c0 -36.667 16.667 -55 50 -55c14.667 0 33 4 55 12v-2
c0 -4.66699 -12 -11.667 -36 -21s-39.667 -14 -47 -14zM280.999 239.003c40.667 0 80.333 1.00098 119 3.00098c-3.33301 15.333 -6.83301 34.166 -10.5 56.499s-7.16699 48.5 -10.5 78.5l-14 138c-70 -49.333 -148.333 -140 -235 -272
c27.333 -1.33301 53.5 -2.33301 78.5 -3s49.167 -1 72.5 -1zM454.998 610.004c-9.33301 0 -14 8.33301 -14 25c0 10.667 5.16699 21 15.5 31s20.833 15 31.5 15c3.33301 0 5 -0.666992 5 -2c0 -6 -1.83301 -14.667 -5.5 -26s-5.5 -19.333 -5.5 -24c0 -12.667 -9 -19 -27 -19
zM338.998 610.004c-9.33301 0 -14 8.33301 -14 25c0 10.667 5.16699 21 15.5 31s20.833 15 31.5 15c3.33301 0 5 -0.666992 5 -2c0 -6 -1.83301 -14.667 -5.5 -26s-5.5 -19.333 -5.5 -24c0 -12.667 -9 -19 -27 -19z" />
    <glyph glyph-name="Aring" unicode="&#xc5;" horiz-adv-x="558" 
d="M55 -76c-34.667 0 -52.001 22.3359 -52.001 67.0029c0 54 26.333 124.333 79 211c-44.667 4.66699 -67 13.334 -67 26.001c0 12 13.333 18 40 18c6.66699 0 24.334 -1 53.001 -3c117.333 175.333 211.333 282.666 282 321.999c0.666992 0.666992 2.66699 1 6 1
c17.333 0 26 -16.333 26 -49c0 -21.333 -3 -35.666 -9 -42.999c-0.666992 -2.66699 -1.16699 -6.33398 -1.5 -11.001s-0.5 -10.334 -0.5 -17.001c0 -35.333 1.33301 -69.833 4 -103.5s6.66699 -66.5 12 -98.5l50 6l28.5 3.5c8.33301 1 15.833 1.5 22.5 1.5
c3.33301 0 5 -0.666992 5 -2c0 -4 -16 -9 -48 -15c-32 -4.66699 -50 -10.334 -54 -17.001c9.33301 -72.667 24.666 -126 45.999 -160c13.333 -21.333 26 -32 38 -32c4 0 9 1.5 15 4.5s9.33301 4.5 10 4.5l2 -2l-30 -41c-8 -8.66699 -16.333 -13 -25 -13
c-27.333 0 -49.666 35.667 -66.999 107c-4.66699 21.333 -8.83398 43.666 -12.501 66.999s-6.16699 47.333 -7.5 72c-82.667 -8 -148.667 -14 -198 -18s-81.666 -6.33301 -96.999 -7c-48 -86 -72 -152.333 -72 -199c0 -36.667 16.667 -55 50 -55c14.667 0 33 4 55 12v-2
c0 -4.66699 -12 -11.667 -36 -21s-39.667 -14 -47 -14zM280.999 239.003c40.667 0 80.333 1.00098 119 3.00098c-3.33301 15.333 -6.83301 34.166 -10.5 56.499s-7.16699 48.5 -10.5 78.5l-14 138c-70 -49.333 -148.333 -140 -235 -272
c27.333 -1.33301 53.5 -2.33301 78.5 -3s49.167 -1 72.5 -1zM403.998 610.004c-17.333 0 -30 4.66699 -38 14s-12 20.333 -12 33c0 17.333 6.5 34.333 19.5 51s30.5 25 52.5 25c17.333 0 30 -4.66699 38 -14s12 -20.666 12 -33.999c0 -16.667 -6.5 -33.334 -19.5 -50.001
s-30.5 -25 -52.5 -25zM406.998 625.004c12.667 0 22.667 6.83203 30 20.499s11 26.834 11 39.501c0 8 -1.5 15.333 -4.5 22s-9.16699 10 -18.5 10c-13.333 0 -23.5 -6.83301 -30.5 -20.5s-10.5 -26.5 -10.5 -38.5c0 -8 1.83301 -15.5 5.5 -22.5s9.5 -10.5 17.5 -10.5z" />
    <glyph glyph-name="AE" unicode="&#xc6;" horiz-adv-x="911" 
d="M55 -77c-34.667 0 -51.999 22.6641 -51.999 67.9971c0 54 26.333 124.333 79 211c-44.667 4.66699 -67 13.334 -67 26.001c0 12 13 18 39 18c-0.666992 0 -0.833984 0 -0.500977 0h1.5h-1c-3.33301 0 14.667 -1 54 -3c64.667 96 163.667 188.333 297 277l-2 2
c2 14.667 12.667 25.667 32 33c14.667 5.33301 31 8 49 8c3.33301 0 6.33301 -1 9 -3l58.5 -2.5c23 -1 49.833 -2.5 80.5 -4.5c61.333 -4 107 -6 137 -6c22 0 43 0.666992 63 2s39 3.33301 57 6c-2.66699 -8.66699 -11.334 -15 -26.001 -19
c-44.667 -12.667 -126.667 -19 -246 -19c-18.667 0 -37.667 0.166992 -57 0.5s-39.333 0.833008 -60 1.5l-7 -28c-2 -22 -13 -83.667 -33 -185c11.333 0 25.166 -0.166992 41.499 -0.5s35.833 -0.833008 58.5 -1.5s42.334 -1.16699 59.001 -1.5s30.334 -0.5 41.001 -0.5
h22.5c9 0 19.833 0.333008 32.5 1s23.5 1.16699 32.5 1.5s16.5 0.5 22.5 0.5c0.666992 0 1.33398 -0.333008 2.00098 -1c0 -2 -9.33301 -6.33301 -28 -13c-18 -7.33301 -30.333 -11.333 -37 -12c-24 -4.66699 -56.833 -8.16699 -98.5 -10.5s-92.167 -3.5 -151.5 -3.5
c-3.33301 -17.333 -6 -33.833 -8 -49.5s-3 -30.5 -3 -44.5c0 -116 58 -174 174 -174c67.333 0 136.333 18 207 54c49.333 25.333 74.666 38.666 75.999 39.999c4 0 6 -2.33301 6 -7c0 -18.667 -15 -34.667 -45 -48c-42 -18.667 -94.667 -34.667 -158 -48
c-64.667 -13.333 -120 -20 -166 -20h-3c-88.667 0 -133 52.333 -133 157c0 14.667 0.833008 30.334 2.5 47.001s4.16699 34.334 7.5 53.001c-81.333 -7.33301 -147.833 -12.833 -199.5 -16.5s-88.167 -5.5 -109.5 -5.5c-48 -86 -72 -152.333 -72 -199
c0 -36.667 16.333 -55 49 -55c15.333 0 34 4 56 12v-2c0 -5.33301 -12 -12.666 -36 -21.999s-39.667 -14 -47 -14zM313.001 236.997c19.333 0 37.6699 0.166992 55.0029 0.5s33.666 0.833008 48.999 1.5l5 24c-4 0 -10 0.5 -18 1.5s-14 1.5 -18 1.5
c-12.667 0 -19 2.33301 -19 7c0 8 8.33301 16.333 25 25c15.333 7.33301 27.666 11.333 36.999 12c1.33301 12.667 3.16602 36 5.49902 70s4.83301 78.333 7.5 133c-152.667 -94 -256.667 -184.333 -312 -271c31.333 -1.33301 62.333 -2.5 93 -3.5s60.667 -1.5 90 -1.5z" />
    <glyph glyph-name="Ccedilla" unicode="&#xc7;" horiz-adv-x="625" 
d="M295 -56c-75.333 0 -139.002 23.998 -191.002 71.998c-54 49.333 -81 111 -81 185c0 107.333 45.333 197.333 136 270c84.667 68.667 181.667 103 291 103c38 0 68.667 -8.66699 92 -26c17.333 34 29.666 51 36.999 51c2 0 3 -1 3 -3c0 -2.66699 -4 -11.667 -12 -27
l-8 -14.5l-8 -15.5c17.333 -17.333 26 -34.666 26 -51.999c0 -6 -1.66699 -9.66699 -5 -11l-30 36c-3.33301 -13.333 -6.16602 -28.833 -8.49902 -46.5s-3.83301 -37.5 -4.5 -59.5c0 -4.66699 -0.5 -11.167 -1.5 -19.5s-2.16699 -18.833 -3.5 -31.5
c-2.66699 -24.667 -11 -37 -25 -37c-10.667 0 -16 13.667 -16 41c0 38.667 14.667 93 44 163c-21.333 11.333 -47.666 17 -78.999 17c-95.333 0 -183.666 -37 -264.999 -111c-84 -76 -126 -161 -126 -255c0 -70 25 -123 75 -159c42.667 -30.667 100.667 -46 174 -46
c62 0 130.667 22.667 206 68c72 42.667 126.333 91.334 163 146.001c2.66699 4.66699 5.66699 7 9 7c4.66699 0 7 -3.33301 7 -10c0 -2 -1 -4 -3 -6c-44.667 -61.333 -102.667 -114 -174 -158c-78.667 -47.333 -152.667 -71 -222 -71zM209.998 -206.002
c-12 0 -24.999 1.00098 -38.999 3.00098c-4 0 -6 3 -6 9c0 3.33301 2 6 6 8c13.333 -2 24.666 -3 33.999 -3c28 0 42 9.66699 42 29c0 10.667 -3 18.167 -9 22.5s-12.167 9.16602 -18.5 14.499s-9.5 14.666 -9.5 27.999s3 23.833 9 31.5s16.333 13.834 31 18.501
c6 2 9.66699 1.33301 11 -2c-11.333 -6 -19.333 -13 -24 -21s-7 -15 -7 -21c0 -8.66699 4.16699 -15.5 12.5 -20.5s16.833 -11 25.5 -18s13 -17.833 13 -32.5c0 -16.667 -6 -28.5 -18 -35.5s-29.667 -10.5 -53 -10.5z" />
    <glyph glyph-name="Egrave" unicode="&#xc8;" horiz-adv-x="552" 
d="M89 517c-18 0 -26.999 1.66699 -26.999 5c0 8 7.33301 16.333 22 25s26.667 13 36 13c17.333 0 38.666 -0.5 63.999 -1.5s55 -2.83301 89 -5.5c34.667 -2.66699 64.834 -4.5 90.501 -5.5s46.834 -1.5 63.501 -1.5c44 0 84 3 120 9
c-2.66699 -8.66699 -11.334 -15 -26.001 -19c-46.667 -12.667 -129.667 -19 -249 -19h-26c-10.667 0 -23 0.333008 -37 1c-13.333 0.666992 -25.166 1 -35.499 1h-26.5c-6.66699 0 -16.334 -0.333008 -29.001 -1s-22.334 -1 -29.001 -1zM201.001 -32
c-92.667 0 -138.998 52.6699 -138.998 158.003c0 38.667 6 84.334 18 137.001c-4 0 -10.167 0.333008 -18.5 1s-14.5 1 -18.5 1c-12 0 -18 2.66699 -18 8c0 8 8.33301 16.333 25 25c7.33301 3.33301 14.166 6.16602 20.499 8.49902s11.833 3.83301 16.5 4.5
c4.66699 29.333 8 58.333 10 87s3 56.334 3 83.001c15.333 23.333 28.666 35 39.999 35c7.33301 0 11 -6.33301 11 -19c0 -8.66699 -2.66699 -28.834 -8 -60.501s-13.333 -74.834 -24 -129.501l200 -6c6 0 13.5 0.166992 22.5 0.5s19.833 0.833008 32.5 1.5
s23.5 1.16699 32.5 1.5s16.5 0.5 22.5 0.5c1.33301 0 2 -0.333008 2 -1l-2 -2c-0.666992 -0.666992 -1.66699 -1.33398 -3 -2.00098c-20 -9.33301 -40.333 -16 -61 -20c-50 -10 -133.333 -15 -250 -15c-3.33301 -17.333 -6 -33.833 -8 -49.5s-3 -30.834 -3 -45.501
c0 -115.333 58 -173 174 -173c67.333 0 136.333 18 207 54l41 24c18.667 10.667 30.667 16 36 16c4 0 6 -2.33301 6 -7c0 -19.333 -15.333 -35.333 -46 -48c-43.333 -19.333 -95.666 -35.333 -156.999 -48c-30.667 -6.66699 -59.834 -11.667 -87.501 -15
s-53.167 -5 -76.5 -5zM343.003 613.003c-2.66699 0 -8.50098 3.50098 -17.501 10.501l-39.5 31.5c-16.667 13.333 -31 24.166 -43 32.499s-20.667 14.5 -26 18.5c-0.666992 2 -1.5 3.83301 -2.5 5.5s-1.5 3.5 -1.5 5.5v2c2.66699 10.667 9.33398 16 20.001 16c2 0 4 -1 6 -3
l69 -71l23.5 -24c7 -7.33301 11.833 -14 14.5 -20c0 -2.66699 -1 -4 -3 -4z" />
    <glyph glyph-name="Eacute" unicode="&#xc9;" horiz-adv-x="552" 
d="M89 517c-18 0 -26.999 1.66699 -26.999 5c0 8 7.33301 16.333 22 25s26.667 13 36 13c17.333 0 38.666 -0.5 63.999 -1.5s55 -2.83301 89 -5.5c34.667 -2.66699 64.834 -4.5 90.501 -5.5s46.834 -1.5 63.501 -1.5c44 0 84 3 120 9
c-2.66699 -8.66699 -11.334 -15 -26.001 -19c-46.667 -12.667 -129.667 -19 -249 -19h-26c-10.667 0 -23 0.333008 -37 1c-13.333 0.666992 -25.166 1 -35.499 1h-26.5c-6.66699 0 -16.334 -0.333008 -29.001 -1s-22.334 -1 -29.001 -1zM201.001 -32
c-92.667 0 -138.998 52.6699 -138.998 158.003c0 38.667 6 84.334 18 137.001c-4 0 -10.167 0.333008 -18.5 1s-14.5 1 -18.5 1c-12 0 -18 2.66699 -18 8c0 8 8.33301 16.333 25 25c7.33301 3.33301 14.166 6.16602 20.499 8.49902s11.833 3.83301 16.5 4.5
c4.66699 29.333 8 58.333 10 87s3 56.334 3 83.001c15.333 23.333 28.666 35 39.999 35c7.33301 0 11 -6.33301 11 -19c0 -8.66699 -2.66699 -28.834 -8 -60.501s-13.333 -74.834 -24 -129.501l200 -6c6 0 13.5 0.166992 22.5 0.5s19.833 0.833008 32.5 1.5
s23.5 1.16699 32.5 1.5s16.5 0.5 22.5 0.5c1.33301 0 2 -0.333008 2 -1l-2 -2c-0.666992 -0.666992 -1.66699 -1.33398 -3 -2.00098c-20 -9.33301 -40.333 -16 -61 -20c-50 -10 -133.333 -15 -250 -15c-3.33301 -17.333 -6 -33.833 -8 -49.5s-3 -30.834 -3 -45.501
c0 -115.333 58 -173 174 -173c67.333 0 136.333 18 207 54l41 24c18.667 10.667 30.667 16 36 16c4 0 6 -2.33301 6 -7c0 -19.333 -15.333 -35.333 -46 -48c-43.333 -19.333 -95.666 -35.333 -156.999 -48c-30.667 -6.66699 -59.834 -11.667 -87.501 -15
s-53.167 -5 -76.5 -5zM279.003 613.003c-2.66699 -0.666992 -4.00195 0.666992 -4.00195 4c3.33301 6 8.33301 12.667 15 20s14.334 15.333 23.001 24l69 71c2 2 4 3 6 3c10.667 0 17.334 -5.33301 20.001 -16v-2c0 -2 -0.333008 -3.83301 -1 -5.5s-1.66699 -3.5 -3 -5.5
l-25.5 -18.5l-43.5 -32.5l-38 -29.5c-8.66699 -7 -14.667 -11.167 -18 -12.5z" />
    <glyph glyph-name="Ecircumflex" unicode="&#xca;" horiz-adv-x="552" 
d="M89 517c-18 0 -26.999 1.66699 -26.999 5c0 8 7.33301 16.333 22 25s26.667 13 36 13c17.333 0 38.666 -0.5 63.999 -1.5s55 -2.83301 89 -5.5c34.667 -2.66699 64.834 -4.5 90.501 -5.5s46.834 -1.5 63.501 -1.5c44 0 84 3 120 9
c-2.66699 -8.66699 -11.334 -15 -26.001 -19c-46.667 -12.667 -129.667 -19 -249 -19h-26c-10.667 0 -23 0.333008 -37 1c-13.333 0.666992 -25.166 1 -35.499 1h-26.5c-6.66699 0 -16.334 -0.333008 -29.001 -1s-22.334 -1 -29.001 -1zM201.001 -32
c-92.667 0 -138.998 52.6699 -138.998 158.003c0 38.667 6 84.334 18 137.001c-4 0 -10.167 0.333008 -18.5 1s-14.5 1 -18.5 1c-12 0 -18 2.66699 -18 8c0 8 8.33301 16.333 25 25c7.33301 3.33301 14.166 6.16602 20.499 8.49902s11.833 3.83301 16.5 4.5
c4.66699 29.333 8 58.333 10 87s3 56.334 3 83.001c15.333 23.333 28.666 35 39.999 35c7.33301 0 11 -6.33301 11 -19c0 -8.66699 -2.66699 -28.834 -8 -60.501s-13.333 -74.834 -24 -129.501l200 -6c6 0 13.5 0.166992 22.5 0.5s19.833 0.833008 32.5 1.5
s23.5 1.16699 32.5 1.5s16.5 0.5 22.5 0.5c1.33301 0 2 -0.333008 2 -1l-2 -2c-0.666992 -0.666992 -1.66699 -1.33398 -3 -2.00098c-20 -9.33301 -40.333 -16 -61 -20c-50 -10 -133.333 -15 -250 -15c-3.33301 -17.333 -6 -33.833 -8 -49.5s-3 -30.834 -3 -45.501
c0 -115.333 58 -173 174 -173c67.333 0 136.333 18 207 54l41 24c18.667 10.667 30.667 16 36 16c4 0 6 -2.33301 6 -7c0 -19.333 -15.333 -35.333 -46 -48c-43.333 -19.333 -95.666 -35.333 -156.999 -48c-30.667 -6.66699 -59.834 -11.667 -87.501 -15
s-53.167 -5 -76.5 -5zM219.003 605.003c-2 0 -3.00195 2.66699 -3.00195 8c0 2.66699 3.66699 7 11 13l26 22l63 56c6 6 12.333 9 19 9s12.334 -3 17.001 -9l49 -56c7.33301 -8 13.333 -15.333 18 -22s7 -11.667 7 -15c0 -5.33301 -2 -7.33301 -6 -6
c-0.666992 0.666992 -5.5 4 -14.5 10s-20.833 15 -35.5 27c-8.66699 7.33301 -16.167 14.166 -22.5 20.499s-11.833 11.5 -16.5 15.5l-20.5 -15.5c-8.33301 -6.33301 -17.833 -13.166 -28.5 -20.499l-40.5 -25.5c-8.33301 -5 -14.5 -8.5 -18.5 -10.5
c-1.33301 -0.666992 -2.66602 -1 -3.99902 -1z" />
    <glyph glyph-name="Edieresis" unicode="&#xcb;" horiz-adv-x="552" 
d="M89 517c-18 0 -26.999 1.66699 -26.999 5c0 8 7.33301 16.333 22 25s26.667 13 36 13c17.333 0 38.666 -0.5 63.999 -1.5s55 -2.83301 89 -5.5c34.667 -2.66699 64.834 -4.5 90.501 -5.5s46.834 -1.5 63.501 -1.5c44 0 84 3 120 9
c-2.66699 -8.66699 -11.334 -15 -26.001 -19c-46.667 -12.667 -129.667 -19 -249 -19h-26c-10.667 0 -23 0.333008 -37 1c-13.333 0.666992 -25.166 1 -35.499 1h-26.5c-6.66699 0 -16.334 -0.333008 -29.001 -1s-22.334 -1 -29.001 -1zM201.001 -32
c-92.667 0 -138.998 52.6699 -138.998 158.003c0 38.667 6 84.334 18 137.001c-4 0 -10.167 0.333008 -18.5 1s-14.5 1 -18.5 1c-12 0 -18 2.66699 -18 8c0 8 8.33301 16.333 25 25c7.33301 3.33301 14.166 6.16602 20.499 8.49902s11.833 3.83301 16.5 4.5
c4.66699 29.333 8 58.333 10 87s3 56.334 3 83.001c15.333 23.333 28.666 35 39.999 35c7.33301 0 11 -6.33301 11 -19c0 -8.66699 -2.66699 -28.834 -8 -60.501s-13.333 -74.834 -24 -129.501l200 -6c6 0 13.5 0.166992 22.5 0.5s19.833 0.833008 32.5 1.5
s23.5 1.16699 32.5 1.5s16.5 0.5 22.5 0.5c1.33301 0 2 -0.333008 2 -1l-2 -2c-0.666992 -0.666992 -1.66699 -1.33398 -3 -2.00098c-20 -9.33301 -40.333 -16 -61 -20c-50 -10 -133.333 -15 -250 -15c-3.33301 -17.333 -6 -33.833 -8 -49.5s-3 -30.834 -3 -45.501
c0 -115.333 58 -173 174 -173c67.333 0 136.333 18 207 54l41 24c18.667 10.667 30.667 16 36 16c4 0 6 -2.33301 6 -7c0 -19.333 -15.333 -35.333 -46 -48c-43.333 -19.333 -95.666 -35.333 -156.999 -48c-30.667 -6.66699 -59.834 -11.667 -87.501 -15
s-53.167 -5 -76.5 -5zM371.003 610.003c-9.33301 0 -14 8.33301 -14 25c0 10.667 5.16699 21 15.5 31s20.833 15 31.5 15c3.33301 0 5 -0.666992 5 -2c0 -6 -1.83301 -14.667 -5.5 -26s-5.5 -19.333 -5.5 -24c0 -12.667 -9 -19 -27 -19zM255.003 610.003
c-9.33301 0 -14 8.33301 -14 25c0 10.667 5.16699 21 15.5 31s20.833 15 31.5 15c3.33301 0 5 -0.666992 5 -2c0 -6 -1.83301 -14.667 -5.5 -26s-5.5 -19.333 -5.5 -24c0 -12.667 -9 -19 -27 -19z" />
    <glyph glyph-name="Igrave" unicode="&#xcc;" horiz-adv-x="359" 
d="M168 -21c-4.66699 0 -7.33105 2.33691 -7.99805 7.00391l-4 14h-119c-2 0 -3 1.66699 -3 5c0 16 18 24 54 24c-1.33301 0 3.16699 -0.166992 13.5 -0.5s26.833 -0.833008 49.5 -1.5c-0.666992 3.33301 -1.16699 8.5 -1.5 15.5s-0.5 15.833 -0.5 26.5
c0 21.333 0.833008 52.166 2.5 92.499s4.16699 90.166 7.5 149.499c2.66699 59.333 6.66699 120.666 12 183.999l-120 -4c-0.666992 0.666992 -1 1.33398 -1 2.00098c0 4 2.33301 9.33301 7 16c4.66699 7.33301 9 11.666 13 12.999s39.333 2 106 2
c6.66699 14.667 19.667 22 39 22c2.66699 0 4 -1 4 -3s-0.333008 -5.16699 -1 -9.5s-1 -7.5 -1 -9.5h66c4.66699 0 10.167 0.166992 16.5 0.5s13.833 0.5 22.5 0.5h27c14 0 21.667 -0.666992 23 -2c0 -4 -8.33301 -9.33301 -25 -16c-18 -7.33301 -29 -11 -33 -11h-100
c-18 -110.667 -27 -219.667 -27 -327c0 -26 0.666992 -51 2 -75s3.33301 -46.667 6 -68h33c11.333 0 20 -0.166992 26 -0.5l9 -0.5c0 -0.666992 7.83301 0.166016 23.5 2.49902s34.167 3.5 55.5 3.5h2c1.33301 0 2 -0.333008 2 -1c0 -2 -9 -7 -27 -15
c-8.66699 -4 -16 -7 -22 -9s-10.333 -3.33301 -13 -4c-6.66699 -0.666992 -16.334 -1.16699 -29.001 -1.5s-28.667 -0.5 -48 -0.5c-2 -4 -7.83301 -8.5 -17.5 -13.5s-16.834 -7.5 -21.501 -7.5zM237.003 599.004c-2.66699 0 -8.50098 3.50098 -17.501 10.501l-39.5 31.5
c-16.667 13.333 -31 24.166 -43 32.499s-20.667 14.5 -26 18.5c-0.666992 2 -1.5 3.83301 -2.5 5.5s-1.5 3.5 -1.5 5.5v2c2.66699 10.667 9.33398 16 20.001 16c2 0 4 -1 6 -3l69 -71l23.5 -24c7 -7.33301 11.833 -14 14.5 -20c0 -2.66699 -1 -4 -3 -4z" />
    <glyph glyph-name="Iacute" unicode="&#xcd;" horiz-adv-x="359" 
d="M168 -21c-4.66699 0 -7.33105 2.33691 -7.99805 7.00391l-4 14h-119c-2 0 -3 1.66699 -3 5c0 16 18 24 54 24c-1.33301 0 3.16699 -0.166992 13.5 -0.5s26.833 -0.833008 49.5 -1.5c-0.666992 3.33301 -1.16699 8.5 -1.5 15.5s-0.5 15.833 -0.5 26.5
c0 21.333 0.833008 52.166 2.5 92.499s4.16699 90.166 7.5 149.499c2.66699 59.333 6.66699 120.666 12 183.999l-120 -4c-0.666992 0.666992 -1 1.33398 -1 2.00098c0 4 2.33301 9.33301 7 16c4.66699 7.33301 9 11.666 13 12.999s39.333 2 106 2
c6.66699 14.667 19.667 22 39 22c2.66699 0 4 -1 4 -3s-0.333008 -5.16699 -1 -9.5s-1 -7.5 -1 -9.5h66c4.66699 0 10.167 0.166992 16.5 0.5s13.833 0.5 22.5 0.5h27c14 0 21.667 -0.666992 23 -2c0 -4 -8.33301 -9.33301 -25 -16c-18 -7.33301 -29 -11 -33 -11h-100
c-18 -110.667 -27 -219.667 -27 -327c0 -26 0.666992 -51 2 -75s3.33301 -46.667 6 -68h33c11.333 0 20 -0.166992 26 -0.5l9 -0.5c0 -0.666992 7.83301 0.166016 23.5 2.49902s34.167 3.5 55.5 3.5h2c1.33301 0 2 -0.333008 2 -1c0 -2 -9 -7 -27 -15
c-8.66699 -4 -16 -7 -22 -9s-10.333 -3.33301 -13 -4c-6.66699 -0.666992 -16.334 -1.16699 -29.001 -1.5s-28.667 -0.5 -48 -0.5c-2 -4 -7.83301 -8.5 -17.5 -13.5s-16.834 -7.5 -21.501 -7.5zM173.003 599.004c-2.66699 -0.666992 -4.00195 0.666992 -4.00195 4
c3.33301 6 8.33301 12.667 15 20s14.334 15.333 23.001 24l69 71c2 2 4 3 6 3c10.667 0 17.334 -5.33301 20.001 -16v-2c0 -2 -0.333008 -3.83301 -1 -5.5s-1.66699 -3.5 -3 -5.5l-25.5 -18.5l-43.5 -32.5l-38 -29.5c-8.66699 -7 -14.667 -11.167 -18 -12.5z" />
    <glyph glyph-name="Icircumflex" unicode="&#xce;" horiz-adv-x="359" 
d="M168 -21c-4.66699 0 -7.33105 2.33691 -7.99805 7.00391l-4 14h-119c-2 0 -3 1.66699 -3 5c0 16 18 24 54 24c-1.33301 0 3.16699 -0.166992 13.5 -0.5s26.833 -0.833008 49.5 -1.5c-0.666992 3.33301 -1.16699 8.5 -1.5 15.5s-0.5 15.833 -0.5 26.5
c0 21.333 0.833008 52.166 2.5 92.499s4.16699 90.166 7.5 149.499c2.66699 59.333 6.66699 120.666 12 183.999l-120 -4c-0.666992 0.666992 -1 1.33398 -1 2.00098c0 4 2.33301 9.33301 7 16c4.66699 7.33301 9 11.666 13 12.999s39.333 2 106 2
c6.66699 14.667 19.667 22 39 22c2.66699 0 4 -1 4 -3s-0.333008 -5.16699 -1 -9.5s-1 -7.5 -1 -9.5h66c4.66699 0 10.167 0.166992 16.5 0.5s13.833 0.5 22.5 0.5h27c14 0 21.667 -0.666992 23 -2c0 -4 -8.33301 -9.33301 -25 -16c-18 -7.33301 -29 -11 -33 -11h-100
c-18 -110.667 -27 -219.667 -27 -327c0 -26 0.666992 -51 2 -75s3.33301 -46.667 6 -68h33c11.333 0 20 -0.166992 26 -0.5l9 -0.5c0 -0.666992 7.83301 0.166016 23.5 2.49902s34.167 3.5 55.5 3.5h2c1.33301 0 2 -0.333008 2 -1c0 -2 -9 -7 -27 -15
c-8.66699 -4 -16 -7 -22 -9s-10.333 -3.33301 -13 -4c-6.66699 -0.666992 -16.334 -1.16699 -29.001 -1.5s-28.667 -0.5 -48 -0.5c-2 -4 -7.83301 -8.5 -17.5 -13.5s-16.834 -7.5 -21.501 -7.5zM113.003 591.004c-2 0 -3.00195 2.66699 -3.00195 8
c0 2.66699 3.66699 7 11 13l26 22l63 56c6 6 12.333 9 19 9s12.334 -3 17.001 -9l49 -56c7.33301 -8 13.333 -15.333 18 -22s7 -11.667 7 -15c0 -5.33301 -2 -7.33301 -6 -6c-0.666992 0.666992 -5.5 4 -14.5 10s-20.833 15 -35.5 27
c-8.66699 7.33301 -16.167 14.166 -22.5 20.499s-11.833 11.5 -16.5 15.5l-20.5 -15.5c-8.33301 -6.33301 -17.833 -13.166 -28.5 -20.499l-40.5 -25.5c-8.33301 -5 -14.5 -8.5 -18.5 -10.5c-1.33301 -0.666992 -2.66602 -1 -3.99902 -1z" />
    <glyph glyph-name="Idieresis" unicode="&#xcf;" horiz-adv-x="359" 
d="M168 -21c-4.66699 0 -7.33105 2.33691 -7.99805 7.00391l-4 14h-119c-2 0 -3 1.66699 -3 5c0 16 18 24 54 24c-1.33301 0 3.16699 -0.166992 13.5 -0.5s26.833 -0.833008 49.5 -1.5c-0.666992 3.33301 -1.16699 8.5 -1.5 15.5s-0.5 15.833 -0.5 26.5
c0 21.333 0.833008 52.166 2.5 92.499s4.16699 90.166 7.5 149.499c2.66699 59.333 6.66699 120.666 12 183.999l-120 -4c-0.666992 0.666992 -1 1.33398 -1 2.00098c0 4 2.33301 9.33301 7 16c4.66699 7.33301 9 11.666 13 12.999s39.333 2 106 2
c6.66699 14.667 19.667 22 39 22c2.66699 0 4 -1 4 -3s-0.333008 -5.16699 -1 -9.5s-1 -7.5 -1 -9.5h66c4.66699 0 10.167 0.166992 16.5 0.5s13.833 0.5 22.5 0.5h27c14 0 21.667 -0.666992 23 -2c0 -4 -8.33301 -9.33301 -25 -16c-18 -7.33301 -29 -11 -33 -11h-100
c-18 -110.667 -27 -219.667 -27 -327c0 -26 0.666992 -51 2 -75s3.33301 -46.667 6 -68h33c11.333 0 20 -0.166992 26 -0.5l9 -0.5c0 -0.666992 7.83301 0.166016 23.5 2.49902s34.167 3.5 55.5 3.5h2c1.33301 0 2 -0.333008 2 -1c0 -2 -9 -7 -27 -15
c-8.66699 -4 -16 -7 -22 -9s-10.333 -3.33301 -13 -4c-6.66699 -0.666992 -16.334 -1.16699 -29.001 -1.5s-28.667 -0.5 -48 -0.5c-2 -4 -7.83301 -8.5 -17.5 -13.5s-16.834 -7.5 -21.501 -7.5zM265.003 596.004c-9.33301 0 -14 8.33301 -14 25c0 10.667 5.16699 21 15.5 31
s20.833 15 31.5 15c3.33301 0 5 -0.666992 5 -2c0 -6 -1.83301 -14.667 -5.5 -26s-5.5 -19.333 -5.5 -24c0 -12.667 -9 -19 -27 -19zM149.003 596.004c-9.33301 0 -14 8.33301 -14 25c0 10.667 5.16699 21 15.5 31s20.833 15 31.5 15c3.33301 0 5 -0.666992 5 -2
c0 -6 -1.83301 -14.667 -5.5 -26s-5.5 -19.333 -5.5 -24c0 -12.667 -9 -19 -27 -19z" />
    <glyph glyph-name="Eth" unicode="&#xd0;" horiz-adv-x="679" 
d="M194 -62c-50 0 -74.9971 59.998 -74.9971 179.998c0 28 1 56.667 3 86c-24.667 -2 -43.667 -3 -57 -3c-8.66699 0 -16.334 0.333008 -23.001 1s-12.334 1.66699 -17.001 3c0 20.667 14 31 42 31h40c6 0 11.667 -0.333008 17 -1c8 92.667 24.667 191 50 295
c-4.66699 2 -11.667 3 -21 3c-52.667 0 -96.667 -13 -132 -39c-5.33301 -3.33301 -10 -5 -14 -5c-16.667 0 -25 6.66699 -25 20c0 16 19.667 30.667 59 44c24.667 8.66699 51 14.667 79 18c10 -4 15 -8 15 -12c0 -1.33301 -0.666992 -2.66602 -2 -3.99902
c6.66699 1.33301 15.167 2.33301 25.5 3s22.833 1.33398 37.5 2.00098c12 14 26 21 42 21c6.66699 0 10 -2.66699 10 -8c0 -2.66699 -1 -6 -3 -10c82.667 -2 171.334 -22 266.001 -60c119.333 -47.333 179 -103.666 179 -168.999c0 -64 -36.333 -130 -109 -198
c-60.667 -56.667 -126.334 -99.334 -197.001 -128.001c-34 -14.667 -78.667 -26 -134 -34c-6 -0.666992 -15 -6.66699 -27 -18c-10.667 -12 -20.334 -18 -29.001 -18zM209.003 -32.002c4.66699 0 10.3311 6.33008 16.998 18.9971c7.33301 12 13.666 18 18.999 18
c6.66699 0 12.667 -6.66699 18 -20c48 14 92.5 30.333 133.5 49s78.167 39.667 111.5 63c92 63.333 138 134 138 212c0 64 -56 119 -168 165c-92.667 38 -177 57 -253 57c-9.33301 -21.333 -18.166 -49.166 -26.499 -83.499s-16.166 -75.166 -23.499 -122.499
c-4.66699 -32.667 -8.66699 -62.667 -12 -90h10l106 -1c0 -2 0.333008 -3 1 -3v-2c0 -4.66699 -25.667 -10 -77 -16c-15.333 -2 -29.666 -3.66699 -42.999 -5c-3.33301 -35.333 -5 -66.666 -5 -93.999c0 -97.333 18 -146 54 -146z" />
    <glyph glyph-name="Ntilde" unicode="&#xd1;" horiz-adv-x="599" 
d="M98 -136c-48.667 0 -73.001 48.668 -73.001 146.001c0 32.667 4 69.5 12 110.5s18 83.5 30 127.5l35 129c11.333 42 20.333 80.333 27 115c0.666992 2 -0.666016 5.83301 -3.99902 11.5s-5 10.167 -5 13.5c0 8.66699 5.33301 19.334 16 32.001c11.333 13.333 21 20 29 20
c2.66699 0 4.33398 -1 5.00098 -3c14.667 -74.667 51.334 -172.667 110.001 -294c69.333 -143.333 128.333 -215 177 -215c55.333 0 83 54.333 83 163c0 107.333 -29.667 214.333 -89 321c-1.33301 4 -2 6.66699 -2 8c0 14.667 8.66699 22 26 22
c3.33301 0 5.66602 -0.666992 6.99902 -2l26 -49c12.667 -24.667 24.667 -37 36 -37c8 0 14.667 4.66699 20 14c0.666992 0.666992 1.66699 1 3 1c3.33301 0 5 -2.66699 5 -8c0 -8.66699 -4 -16.334 -12 -23.001s-16.333 -10 -25 -10c-7.33301 0 -13.666 2.66699 -18.999 8
c13.333 -16.667 24.666 -54 33.999 -112c3.33301 -22.667 5.83301 -44 7.5 -64s2.5 -39 2.5 -57c0 -48.667 -7.66699 -94.334 -23 -137.001c-20.667 -58 -51.334 -87 -92.001 -87c-67.333 0 -142.666 95.667 -225.999 287c-3.33301 7.33301 -10.333 25.333 -21 54l-44 117
c-11.333 -38 -21.833 -70.833 -31.5 -98.5l-26.5 -76c-8 -23 -14.667 -46 -20 -69s-9.5 -49 -12.5 -78s-4.5 -63.5 -4.5 -103.5c0 -96.667 18.667 -145 56 -145c4 0 8.83301 1.66699 14.5 5s9.16699 5 10.5 5c2 0 3 -1.33301 3 -4c0 -8 -5.33301 -16.333 -16 -25
s-20.334 -13 -29.001 -13zM259.999 619.001c-2.66699 0 -3.83398 1.16602 -3.50098 3.49902s0.833008 4.16602 1.5 5.49902c4.66699 13.333 13.167 24 25.5 32s26.5 12 42.5 12c10 0 22.333 -3.5 37 -10.5s26.667 -10.5 36 -10.5c8.66699 0 15.834 1.83301 21.501 5.5
s10.834 8.83398 15.501 15.501c1.33301 2.66699 3.66602 4.33398 6.99902 5.00098s4.66602 -0.333008 3.99902 -3c-3.33301 -18 -10.833 -31.333 -22.5 -40s-24.167 -13 -37.5 -13c-14 0 -27.167 4 -39.5 12s-26.166 12 -41.499 12c-10.667 0 -20.667 -4.33301 -30 -13
c-4.66699 -4 -8 -7.16699 -10 -9.5s-4 -3.5 -6 -3.5z" />
    <glyph glyph-name="Ograve" unicode="&#xd2;" horiz-adv-x="643" 
d="M199 -38c-115.333 0 -173.001 59 -173.001 177c0 80.667 26 157.334 78 230.001c52 73.333 116 122.333 192 147c2.66699 -0.666992 4 -2.66699 4 -6c0 -9.33301 -17.333 -22 -52 -38c-45.333 -20.667 -87.333 -67 -126 -139c-36.667 -66.667 -55 -127.334 -55 -182.001
c0 -100.667 54 -151 162 -151c84.667 0 168.334 29 251.001 87c90.667 62.667 136 134.667 136 216c0 58 -21.667 113.667 -65 167c-46 56 -97.333 84 -154 84c-11.333 0 -25 -3.33301 -41 -10c-16 -6 -24.667 -9 -26 -9c-4.66699 0 -7 2 -7 6c0 11.333 12 19.333 36 24
c17.333 4 33.333 6 48 6c67.333 0 126 -25.333 176 -76c50.667 -50.667 76 -109.667 76 -177c0 -102 -52.667 -188.667 -158 -260c-94 -64 -194.667 -96 -302 -96zM436.999 624c-2.66699 0 -8.50098 3.50098 -17.501 10.501l-39.5 31.5
c-16.667 13.333 -31 24.166 -43 32.499s-20.667 14.5 -26 18.5c-0.666992 2 -1.5 3.83301 -2.5 5.5s-1.5 3.5 -1.5 5.5v2c2.66699 10.667 9.33398 16 20.001 16c2 0 4 -1 6 -3l69 -71l23.5 -24c7 -7.33301 11.833 -14 14.5 -20c0 -2.66699 -1 -4 -3 -4z" />
    <glyph glyph-name="Oacute" unicode="&#xd3;" horiz-adv-x="643" 
d="M199 -38c-115.333 0 -173.001 59 -173.001 177c0 80.667 26 157.334 78 230.001c52 73.333 116 122.333 192 147c2.66699 -0.666992 4 -2.66699 4 -6c0 -9.33301 -17.333 -22 -52 -38c-45.333 -20.667 -87.333 -67 -126 -139c-36.667 -66.667 -55 -127.334 -55 -182.001
c0 -100.667 54 -151 162 -151c84.667 0 168.334 29 251.001 87c90.667 62.667 136 134.667 136 216c0 58 -21.667 113.667 -65 167c-46 56 -97.333 84 -154 84c-11.333 0 -25 -3.33301 -41 -10c-16 -6 -24.667 -9 -26 -9c-4.66699 0 -7 2 -7 6c0 11.333 12 19.333 36 24
c17.333 4 33.333 6 48 6c67.333 0 126 -25.333 176 -76c50.667 -50.667 76 -109.667 76 -177c0 -102 -52.667 -188.667 -158 -260c-94 -64 -194.667 -96 -302 -96zM372.999 624c-2.66699 -0.666992 -4.00195 0.666992 -4.00195 4c3.33301 6 8.33301 12.667 15 20
s14.334 15.333 23.001 24l69 71c2 2 4 3 6 3c10.667 0 17.334 -5.33301 20.001 -16v-2c0 -2 -0.333008 -3.83301 -1 -5.5s-1.66699 -3.5 -3 -5.5l-25.5 -18.5l-43.5 -32.5l-38 -29.5c-8.66699 -7 -14.667 -11.167 -18 -12.5z" />
    <glyph glyph-name="Ocircumflex" unicode="&#xd4;" horiz-adv-x="643" 
d="M199 -38c-115.333 0 -173.001 59 -173.001 177c0 80.667 26 157.334 78 230.001c52 73.333 116 122.333 192 147c2.66699 -0.666992 4 -2.66699 4 -6c0 -9.33301 -17.333 -22 -52 -38c-45.333 -20.667 -87.333 -67 -126 -139c-36.667 -66.667 -55 -127.334 -55 -182.001
c0 -100.667 54 -151 162 -151c84.667 0 168.334 29 251.001 87c90.667 62.667 136 134.667 136 216c0 58 -21.667 113.667 -65 167c-46 56 -97.333 84 -154 84c-11.333 0 -25 -3.33301 -41 -10c-16 -6 -24.667 -9 -26 -9c-4.66699 0 -7 2 -7 6c0 11.333 12 19.333 36 24
c17.333 4 33.333 6 48 6c67.333 0 126 -25.333 176 -76c50.667 -50.667 76 -109.667 76 -177c0 -102 -52.667 -188.667 -158 -260c-94 -64 -194.667 -96 -302 -96zM312.999 616c-2 0 -3.00195 2.66699 -3.00195 8c0 2.66699 3.66699 7 11 13l26 22l63 56c6 6 12.333 9 19 9
s12.334 -3 17.001 -9l49 -56c7.33301 -8 13.333 -15.333 18 -22s7 -11.667 7 -15c0 -5.33301 -2 -7.33301 -6 -6c-0.666992 0.666992 -5.5 4 -14.5 10s-20.833 15 -35.5 27c-8.66699 7.33301 -16.167 14.166 -22.5 20.499s-11.833 11.5 -16.5 15.5l-20.5 -15.5
c-8.33301 -6.33301 -17.833 -13.166 -28.5 -20.499l-40.5 -25.5c-8.33301 -5 -14.5 -8.5 -18.5 -10.5c-1.33301 -0.666992 -2.66602 -1 -3.99902 -1z" />
    <glyph glyph-name="Otilde" unicode="&#xd5;" horiz-adv-x="643" 
d="M199 -38c-115.333 0 -173.001 59 -173.001 177c0 80.667 26 157.334 78 230.001c52 73.333 116 122.333 192 147c2.66699 -0.666992 4 -2.66699 4 -6c0 -9.33301 -17.333 -22 -52 -38c-45.333 -20.667 -87.333 -67 -126 -139c-36.667 -66.667 -55 -127.334 -55 -182.001
c0 -100.667 54 -151 162 -151c84.667 0 168.334 29 251.001 87c90.667 62.667 136 134.667 136 216c0 58 -21.667 113.667 -65 167c-46 56 -97.333 84 -154 84c-11.333 0 -25 -3.33301 -41 -10c-16 -6 -24.667 -9 -26 -9c-4.66699 0 -7 2 -7 6c0 11.333 12 19.333 36 24
c17.333 4 33.333 6 48 6c67.333 0 126 -25.333 176 -76c50.667 -50.667 76 -109.667 76 -177c0 -102 -52.667 -188.667 -158 -260c-94 -64 -194.667 -96 -302 -96zM317.999 630c-2.66699 0 -3.83398 1.16602 -3.50098 3.49902s0.833008 4.16602 1.5 5.49902
c4.66699 13.333 13.167 24 25.5 32s26.5 12 42.5 12c10 0 22.333 -3.5 37 -10.5s26.667 -10.5 36 -10.5c8.66699 0 15.834 1.83301 21.501 5.5s10.834 8.83398 15.501 15.501c1.33301 2.66699 3.66602 4.33398 6.99902 5.00098s4.66602 -0.333008 3.99902 -3
c-3.33301 -18 -10.833 -31.333 -22.5 -40s-24.167 -13 -37.5 -13c-14 0 -27.167 4 -39.5 12s-26.166 12 -41.499 12c-10.667 0 -20.667 -4.33301 -30 -13c-4.66699 -4 -8 -7.16699 -10 -9.5s-4 -3.5 -6 -3.5z" />
    <glyph glyph-name="Odieresis" unicode="&#xd6;" horiz-adv-x="643" 
d="M199 -38c-115.333 0 -173.001 59 -173.001 177c0 80.667 26 157.334 78 230.001c52 73.333 116 122.333 192 147c2.66699 -0.666992 4 -2.66699 4 -6c0 -9.33301 -17.333 -22 -52 -38c-45.333 -20.667 -87.333 -67 -126 -139c-36.667 -66.667 -55 -127.334 -55 -182.001
c0 -100.667 54 -151 162 -151c84.667 0 168.334 29 251.001 87c90.667 62.667 136 134.667 136 216c0 58 -21.667 113.667 -65 167c-46 56 -97.333 84 -154 84c-11.333 0 -25 -3.33301 -41 -10c-16 -6 -24.667 -9 -26 -9c-4.66699 0 -7 2 -7 6c0 11.333 12 19.333 36 24
c17.333 4 33.333 6 48 6c67.333 0 126 -25.333 176 -76c50.667 -50.667 76 -109.667 76 -177c0 -102 -52.667 -188.667 -158 -260c-94 -64 -194.667 -96 -302 -96zM464.999 621c-9.33301 0 -14 8.33301 -14 25c0 10.667 5.16699 21 15.5 31s20.833 15 31.5 15
c3.33301 0 5 -0.666992 5 -2c0 -6 -1.83301 -14.667 -5.5 -26s-5.5 -19.333 -5.5 -24c0 -12.667 -9 -19 -27 -19zM348.999 621c-9.33301 0 -14 8.33301 -14 25c0 10.667 5.16699 21 15.5 31s20.833 15 31.5 15c3.33301 0 5 -0.666992 5 -2c0 -6 -1.83301 -14.667 -5.5 -26
s-5.5 -19.333 -5.5 -24c0 -12.667 -9 -19 -27 -19z" />
    <glyph glyph-name="multiply" unicode="&#xd7;" horiz-adv-x="365" 
d="M292 69c-4 0 -9.49902 1.50293 -16.499 4.50293s-15.167 8.83301 -24.5 17.5l-78 78l-32.5 -28.5c-11 -9.66699 -21.167 -18.167 -30.5 -25.5c-11.333 -10 -19.5 -17 -24.5 -21s-8.83301 -7.33301 -11.5 -10c-8 -6 -15.333 -9 -22 -9c-6 0 -9 2.33301 -9 7
c0 5.33301 4.83301 13.166 14.5 23.499s27.167 27.166 52.5 50.499l5.5 5.5c2.33301 2.33301 4.5 4.16602 6.5 5.49902l28 26l-94 94c-4 4 -6.83301 8.33301 -8.5 13s-0.833984 8.33398 2.49902 11.001c4 4.66699 11.667 3.5 23 -3.5s31.333 -24.167 60 -51.5
c3.33301 -2.66699 8.66602 -7.66699 15.999 -15l13.5 -12l11.5 -11h4l54.5 48.5l38.5 32.5c16.667 14.667 30.334 22 41.001 22c6.66699 0 10 -3 10 -9c0 -12.667 -9 -26.334 -27 -41.001l-93 -79l47.5 -46c12.333 -12 22.833 -22.667 31.5 -32c16 -16 24 -27.333 24 -34
c0 -3.33301 -1.33301 -6.33301 -4 -9c-1.33301 -1.33301 -4.33301 -2 -9 -2z" />
    <glyph glyph-name="Oslash" unicode="&#xd8;" horiz-adv-x="643" 
d="M199 -38c-115.333 0 -173 58.9971 -173 176.997c0 80.667 26 157.334 78 230.001c53.333 73.333 117.666 122.333 192.999 147c2 -2 3 -4 3 -6c0 -8.66699 -17.667 -21 -53 -37c-45.333 -21.333 -87.333 -68 -126 -140c-36 -68.667 -54 -129.667 -54 -183
c0 -49.333 14.667 -86.666 44 -111.999s69 -38 119 -38c84.667 0 168.334 29 251.001 87c90.667 62.667 136 134.667 136 216c0 58.667 -22 114.334 -66 167.001c-46 55.333 -97.333 83 -154 83c-10.667 0 -24 -3 -40 -9s-25 -9 -27 -9c-4.66699 0 -7 2 -7 6
c0 10 12 18 36 24c16 4 32 6 48 6c67.333 0 126 -25.333 176 -76c50 -50 75 -108.667 75 -176c0 -103.333 -52.333 -190.333 -157 -261c-94 -64 -194.667 -96 -302 -96z" />
    <glyph glyph-name="Ugrave" unicode="&#xd9;" horiz-adv-x="516" 
d="M430 -11c-40.667 0 -60.999 48.999 -60.999 146.999c0 14.667 0.666992 31.5 2 50.5s3.33301 40.167 6 63.5c8 71.333 12 109.333 12 114c-41.333 -79.333 -87 -152 -137 -218c-75.333 -97.333 -138 -146 -188 -146c-26 0 -39 29.667 -39 89c0 52 10.667 114 32 186
l23.5 70c10.333 30 23.833 66.667 40.5 110c-10.667 -8.66699 -21 -13 -31 -13c-7.33301 0 -14.833 3.16699 -22.5 9.5s-11.5 12.833 -11.5 19.5c0 3.33301 1.33301 5 4 5c1.33301 -0.666992 2.33301 -1 3 -1s1.33398 -0.333008 2.00098 -1c6 -8.66699 12.333 -13 19 -13
c14 0 27 12 39 36l10.5 20.5l14.5 28.5c1.33301 1.33301 3.33301 2 6 2c18 0 27 -7 27 -21c0 -1.33301 -0.666992 -4 -2 -8c-29.333 -52.667 -55.333 -114 -78 -184c-24.667 -76 -37 -140.667 -37 -194c0 -62 12 -93 36 -93c41.333 0 91.333 41.333 150 124
c19.333 27.333 37.833 55.833 55.5 85.5s34.5 60.834 50.5 93.501c6.66699 12.667 13 26.5 19 41.5s12 30.833 18 47.5c0.666992 8 1.66699 18 3 30s3 26 5 42c4.66699 36.667 16 55 34 55c16 0 24 -7.66699 24 -23l-10 -45c-14.667 -64.667 -25.334 -123.667 -32.001 -177
s-10 -101.333 -10 -144c0 -94.667 20.667 -142 62 -142c22 0 44.333 22.333 67 67c2 0 3.33301 -2.33301 4 -7c0 -1.33301 -0.333008 -2.33301 -1 -3c-12 -24 -26.667 -45.667 -44 -65c-22.667 -26 -44.334 -39 -65.001 -39zM338.001 612.999
c-2.66699 0 -8.50098 3.50098 -17.501 10.501l-39.5 31.5c-16.667 13.333 -31 24.166 -43 32.499s-20.667 14.5 -26 18.5c-0.666992 2 -1.5 3.83301 -2.5 5.5s-1.5 3.5 -1.5 5.5v2c2.66699 10.667 9.33398 16 20.001 16c2 0 4 -1 6 -3l69 -71l23.5 -24
c7 -7.33301 11.833 -14 14.5 -20c0 -2.66699 -1 -4 -3 -4z" />
    <glyph glyph-name="Uacute" unicode="&#xda;" horiz-adv-x="516" 
d="M430 -11c-40.667 0 -60.999 48.999 -60.999 146.999c0 14.667 0.666992 31.5 2 50.5s3.33301 40.167 6 63.5c8 71.333 12 109.333 12 114c-41.333 -79.333 -87 -152 -137 -218c-75.333 -97.333 -138 -146 -188 -146c-26 0 -39 29.667 -39 89c0 52 10.667 114 32 186
l23.5 70c10.333 30 23.833 66.667 40.5 110c-10.667 -8.66699 -21 -13 -31 -13c-7.33301 0 -14.833 3.16699 -22.5 9.5s-11.5 12.833 -11.5 19.5c0 3.33301 1.33301 5 4 5c1.33301 -0.666992 2.33301 -1 3 -1s1.33398 -0.333008 2.00098 -1c6 -8.66699 12.333 -13 19 -13
c14 0 27 12 39 36l10.5 20.5l14.5 28.5c1.33301 1.33301 3.33301 2 6 2c18 0 27 -7 27 -21c0 -1.33301 -0.666992 -4 -2 -8c-29.333 -52.667 -55.333 -114 -78 -184c-24.667 -76 -37 -140.667 -37 -194c0 -62 12 -93 36 -93c41.333 0 91.333 41.333 150 124
c19.333 27.333 37.833 55.833 55.5 85.5s34.5 60.834 50.5 93.501c6.66699 12.667 13 26.5 19 41.5s12 30.833 18 47.5c0.666992 8 1.66699 18 3 30s3 26 5 42c4.66699 36.667 16 55 34 55c16 0 24 -7.66699 24 -23l-10 -45c-14.667 -64.667 -25.334 -123.667 -32.001 -177
s-10 -101.333 -10 -144c0 -94.667 20.667 -142 62 -142c22 0 44.333 22.333 67 67c2 0 3.33301 -2.33301 4 -7c0 -1.33301 -0.333008 -2.33301 -1 -3c-12 -24 -26.667 -45.667 -44 -65c-22.667 -26 -44.334 -39 -65.001 -39zM274.001 612.999
c-2.66699 -0.666992 -4.00195 0.666992 -4.00195 4c3.33301 6 8.33301 12.667 15 20s14.334 15.333 23.001 24l69 71c2 2 4 3 6 3c10.667 0 17.334 -5.33301 20.001 -16v-2c0 -2 -0.333008 -3.83301 -1 -5.5s-1.66699 -3.5 -3 -5.5l-25.5 -18.5l-43.5 -32.5l-38 -29.5
c-8.66699 -7 -14.667 -11.167 -18 -12.5z" />
    <glyph glyph-name="Ucircumflex" unicode="&#xdb;" horiz-adv-x="516" 
d="M430 -11c-40.667 0 -60.999 48.999 -60.999 146.999c0 14.667 0.666992 31.5 2 50.5s3.33301 40.167 6 63.5c8 71.333 12 109.333 12 114c-41.333 -79.333 -87 -152 -137 -218c-75.333 -97.333 -138 -146 -188 -146c-26 0 -39 29.667 -39 89c0 52 10.667 114 32 186
l23.5 70c10.333 30 23.833 66.667 40.5 110c-10.667 -8.66699 -21 -13 -31 -13c-7.33301 0 -14.833 3.16699 -22.5 9.5s-11.5 12.833 -11.5 19.5c0 3.33301 1.33301 5 4 5c1.33301 -0.666992 2.33301 -1 3 -1s1.33398 -0.333008 2.00098 -1c6 -8.66699 12.333 -13 19 -13
c14 0 27 12 39 36l10.5 20.5l14.5 28.5c1.33301 1.33301 3.33301 2 6 2c18 0 27 -7 27 -21c0 -1.33301 -0.666992 -4 -2 -8c-29.333 -52.667 -55.333 -114 -78 -184c-24.667 -76 -37 -140.667 -37 -194c0 -62 12 -93 36 -93c41.333 0 91.333 41.333 150 124
c19.333 27.333 37.833 55.833 55.5 85.5s34.5 60.834 50.5 93.501c6.66699 12.667 13 26.5 19 41.5s12 30.833 18 47.5c0.666992 8 1.66699 18 3 30s3 26 5 42c4.66699 36.667 16 55 34 55c16 0 24 -7.66699 24 -23l-10 -45c-14.667 -64.667 -25.334 -123.667 -32.001 -177
s-10 -101.333 -10 -144c0 -94.667 20.667 -142 62 -142c22 0 44.333 22.333 67 67c2 0 3.33301 -2.33301 4 -7c0 -1.33301 -0.333008 -2.33301 -1 -3c-12 -24 -26.667 -45.667 -44 -65c-22.667 -26 -44.334 -39 -65.001 -39zM214.001 604.999
c-2 0 -3.00195 2.66699 -3.00195 8c0 2.66699 3.66699 7 11 13l26 22l63 56c6 6 12.333 9 19 9s12.334 -3 17.001 -9l49 -56c7.33301 -8 13.333 -15.333 18 -22s7 -11.667 7 -15c0 -5.33301 -2 -7.33301 -6 -6c-0.666992 0.666992 -5.5 4 -14.5 10s-20.833 15 -35.5 27
c-8.66699 7.33301 -16.167 14.166 -22.5 20.499s-11.833 11.5 -16.5 15.5l-20.5 -15.5c-8.33301 -6.33301 -17.833 -13.166 -28.5 -20.499l-40.5 -25.5c-8.33301 -5 -14.5 -8.5 -18.5 -10.5c-1.33301 -0.666992 -2.66602 -1 -3.99902 -1z" />
    <glyph glyph-name="Udieresis" unicode="&#xdc;" horiz-adv-x="516" 
d="M430 -11c-40.667 0 -60.999 48.999 -60.999 146.999c0 14.667 0.666992 31.5 2 50.5s3.33301 40.167 6 63.5c8 71.333 12 109.333 12 114c-41.333 -79.333 -87 -152 -137 -218c-75.333 -97.333 -138 -146 -188 -146c-26 0 -39 29.667 -39 89c0 52 10.667 114 32 186
l23.5 70c10.333 30 23.833 66.667 40.5 110c-10.667 -8.66699 -21 -13 -31 -13c-7.33301 0 -14.833 3.16699 -22.5 9.5s-11.5 12.833 -11.5 19.5c0 3.33301 1.33301 5 4 5c1.33301 -0.666992 2.33301 -1 3 -1s1.33398 -0.333008 2.00098 -1c6 -8.66699 12.333 -13 19 -13
c14 0 27 12 39 36l10.5 20.5l14.5 28.5c1.33301 1.33301 3.33301 2 6 2c18 0 27 -7 27 -21c0 -1.33301 -0.666992 -4 -2 -8c-29.333 -52.667 -55.333 -114 -78 -184c-24.667 -76 -37 -140.667 -37 -194c0 -62 12 -93 36 -93c41.333 0 91.333 41.333 150 124
c19.333 27.333 37.833 55.833 55.5 85.5s34.5 60.834 50.5 93.501c6.66699 12.667 13 26.5 19 41.5s12 30.833 18 47.5c0.666992 8 1.66699 18 3 30s3 26 5 42c4.66699 36.667 16 55 34 55c16 0 24 -7.66699 24 -23l-10 -45c-14.667 -64.667 -25.334 -123.667 -32.001 -177
s-10 -101.333 -10 -144c0 -94.667 20.667 -142 62 -142c22 0 44.333 22.333 67 67c2 0 3.33301 -2.33301 4 -7c0 -1.33301 -0.333008 -2.33301 -1 -3c-12 -24 -26.667 -45.667 -44 -65c-22.667 -26 -44.334 -39 -65.001 -39zM366.001 609.999c-9.33301 0 -14 8.33301 -14 25
c0 10.667 5.16699 21 15.5 31s20.833 15 31.5 15c3.33301 0 5 -0.666992 5 -2c0 -6 -1.83301 -14.667 -5.5 -26s-5.5 -19.333 -5.5 -24c0 -12.667 -9 -19 -27 -19zM250.001 609.999c-9.33301 0 -14 8.33301 -14 25c0 10.667 5.16699 21 15.5 31s20.833 15 31.5 15
c3.33301 0 5 -0.666992 5 -2c0 -6 -1.83301 -14.667 -5.5 -26s-5.5 -19.333 -5.5 -24c0 -12.667 -9 -19 -27 -19z" />
    <glyph glyph-name="Yacute" unicode="&#xdd;" horiz-adv-x="364" 
d="M161 -208c-32.667 0 -48.999 22.9961 -48.999 68.9961c0 54.667 38.667 158.334 116 311.001c31.333 61.333 61.333 117 90 167s56.334 94.667 83.001 134c7.33301 11.333 13.5 20.333 18.5 27s8.5 11 10.5 13c-1.33301 0 -2.33301 -0.333008 -3 -1
c-12.667 -4 -21 -6 -25 -6c-6.66699 0 -10 1.66699 -10 5c0 6.66699 5.33301 11.334 16 14.001c14.667 4.66699 27.667 10.334 39 17.001s20.666 14.667 27.999 24c8.66699 10.667 19 16 31 16c9.33301 0 14 -2.66699 14 -8c0 -1.33301 -1.66699 -4.33301 -5 -9
c-38.667 -44.667 -76.834 -94.167 -114.501 -148.5s-75.167 -113.166 -112.5 -176.499c-93.333 -159.333 -140 -278.333 -140 -357c0 -44.667 9.33301 -67 28 -67c9.33301 0 24.333 6 45 18c21.333 12 33 18 35 18c1.33301 0 2 -0.666992 2 -2c0 -4 -3.33301 -9 -10 -15
c-29.333 -28.667 -58.333 -43 -87 -43zM205.001 139.996c0.666992 3.33301 1 6.83398 1 10.501v10.5c0 52 -12.333 105.667 -37 161c-25.333 58 -57.333 102.667 -96 134c6 -18 9 -33 9 -45c0 -26 -13 -39 -39 -39c-6 0 -9 1.33301 -9 4c0 2 1.33301 4 4 6
c15.333 1.33301 23 8.33301 23 21c0 12 -9 30.333 -27 55c-17.333 25.333 -26 39.666 -26 42.999c0 16.667 9 25 27 25c47.333 0 91 -40.333 131 -121c33.333 -66.667 51.333 -128.667 54 -186l2 -40c0.666992 -21.333 -5 -34.333 -17 -39zM262.001 612.997
c-2.66699 -0.666992 -4.00195 0.666992 -4.00195 4c3.33301 6 8.33301 12.667 15 20s14.334 15.333 23.001 24l69 71c2 2 4 3 6 3c10.667 0 17.334 -5.33301 20.001 -16v-2c0 -2 -0.333008 -3.83301 -1 -5.5s-1.66699 -3.5 -3 -5.5l-25.5 -18.5l-43.5 -32.5l-38 -29.5
c-8.66699 -7 -14.667 -11.167 -18 -12.5z" />
    <glyph glyph-name="Thorn" unicode="&#xde;" horiz-adv-x="290" 
d="M8 -367c-4 1.33301 -5.99902 2.66992 -5.99902 4.00293c0 2 2.33301 8 7 18l9 19c6 21.333 12 81 18 179c2.66699 45.333 4.66699 81.666 6 108.999s1.66602 45.666 0.999023 54.999l-12 -65c-1.33301 -0.666992 -3 -1 -5 -1c-7.33301 0 -11 7.66699 -11 23
c0 9.33301 4.66699 26 14 50c10 23.333 15 38 15 44l-6 349c-1.33301 37.333 -7 56 -17 56c-4 0 -10.167 -1.83301 -18.5 -5.5s-14.166 -5.5 -17.499 -5.5c-2 0 -3 0.333008 -3 1c0.666992 1.33301 4.16699 4.66602 10.5 9.99902l26.5 22c23.333 19.333 35.666 29 36.999 29
c11.333 0 17.333 -25 18 -75l3 -187c48 70 96.667 105 146 105c48.667 0 73 -33.667 73 -101c0 -54 -15.667 -104.667 -47 -152c-34.667 -52.667 -78 -79 -130 -79c-24 0 -36 5.66699 -36 17c0 10.667 9.66699 16 29 16c43.333 0 81 20.667 113 62
c29.333 39.333 44 81 44 125c0 56.667 -25 85 -75 85c-16.667 0 -39.667 -13.667 -69 -41c-30 -28 -46.333 -50 -49 -66c0 -7.33301 -0.166992 -17.5 -0.5 -30.5s-0.833008 -28.5 -1.5 -46.5l-4 -148c0 -164 -10.667 -269.333 -32 -316c-3.33301 -8 -7.5 -17 -12.5 -27
s-10.833 -20.667 -17.5 -32z" />
    <glyph glyph-name="germandbls" unicode="&#xdf;" horiz-adv-x="370" 
d="M1 -329c-16 0 -34.335 7.33398 -55.002 22.001s-31 29.334 -31 44.001c0 5.33301 1.66699 8 5 8l26 -25c17.333 -17.333 32.333 -26 45 -26c42 0 66.333 77 73 231c1.33301 78.667 3.83301 154 7.5 226s9.83398 136 18.501 192s21 99.667 37 131c29.333 56 66 84 110 84
c28 0 50.333 -8 67 -24s29.167 -37.333 37.5 -64s13.833 -56 16.5 -88c0 -2.66699 -1.5 -6.16699 -4.5 -10.5s-6.5 -6.5 -10.5 -6.5c-30.667 0 -55 -8.66699 -73 -26s-27 -38.666 -27 -63.999c0 -12.667 2.5 -25.5 7.5 -38.5s12.833 -26.167 23.5 -39.5
c14 -16.667 28 -35.834 42 -57.501s21 -47.167 21 -76.5c0 -22.667 -5 -40.834 -15 -54.501s-21.833 -23.667 -35.5 -30s-26.834 -9.5 -39.501 -9.5c-31.333 0 -52.666 14.667 -63.999 44c-2.66699 6 -4 11 -4 15c0 4.66699 2.33301 7 7 7c2.66699 0 4.66699 -1.66699 6 -5
c9.33301 -29.333 26.333 -44 51 -44c13.333 0 26.833 7.5 40.5 22.5s20.5 33.167 20.5 54.5c0 27.333 -6.5 51 -19.5 71s-26.167 38.333 -39.5 55c-18.667 23.333 -28 48.333 -28 75c0 21.333 5.5 41 16.5 59s26 32.5 45 43.5s40.167 16.5 63.5 16.5
c-1.33301 7.33301 -3.16602 19.166 -5.49902 35.499s-7.16602 33.166 -14.499 50.499s-18.333 32.166 -33 44.499s-35 18.5 -61 18.5c-32.667 0 -57.834 -15.667 -75.501 -47s-30.334 -77.666 -38.001 -138.999s-12.5 -137.666 -14.5 -228.999
c-0.666992 -45.333 -1.5 -82.833 -2.5 -112.5s-1.83301 -51.167 -2.5 -64.5c-1.33301 -35.333 -3.66602 -67.5 -6.99902 -96.5s-7.33301 -54.833 -12 -77.5c-13.333 -63.333 -38.333 -95 -75 -95z" />
    <glyph glyph-name="agrave" unicode="&#xe0;" horiz-adv-x="277" 
d="M30 19c-19.333 0 -29 12.001 -29 36.001c0 31.333 16.333 70.333 49 117c14 20.667 28.333 39 43 55s29.334 30.333 44.001 43c19.333 16 37 24 53 24c10 0 18.333 -4.16699 25 -12.5s10 -17.5 10 -27.5c0 -4.66699 -1.33301 -7 -4 -7l-7 7
c-4.66699 4.66699 -12.334 7 -23.001 7c-15.333 0 -28.666 -3.66699 -39.999 -11c-29.333 -20.667 -56.333 -47 -81 -79c-28.667 -37.333 -43 -71 -43 -101c0 -15.333 5.33301 -23 16 -23c17.333 0 44.666 25.667 81.999 77c16 22.667 29.167 42.834 39.5 60.501
s17.833 32.834 22.5 45.501c4.66699 4.66699 10 7 16 7c3.33301 0 5.33301 -1.33301 6 -4c-4.66699 -8.66699 -7 -24.334 -7 -47.001c0 -28.667 3.33301 -54.334 10 -77.001c10 -35.333 24.333 -53 43 -53c12 0 24.667 10.333 38 31l21 32
c0.666992 -0.666992 1 -1.33398 1 -2.00098c0 -10.667 -10 -28.667 -30 -54c-20 -24.667 -35.333 -37 -46 -37c-17.333 0 -33.333 19.333 -48 58c-11.333 32 -17 59 -17 81c-65.333 -97.333 -113.333 -146 -144 -146zM210 347.001c-4.66699 0 -23.668 14 -57.001 42
c-6 5.33301 -14 11.333 -24 18s-17.667 12 -23 16c-0.666992 2 -1.5 3.83301 -2.5 5.5s-1.5 3.5 -1.5 5.5v2c2.66699 10.667 9.33398 16 20.001 16c2 0 4 -1 6 -3l47 -54l23 -24c7.33301 -7.33301 12.333 -14 15 -20c0 -2.66699 -1 -4 -3 -4z" />
    <glyph glyph-name="aacute" unicode="&#xe1;" horiz-adv-x="277" 
d="M30 19c-19.333 0 -29 12.001 -29 36.001c0 31.333 16.333 70.333 49 117c14 20.667 28.333 39 43 55s29.334 30.333 44.001 43c19.333 16 37 24 53 24c10 0 18.333 -4.16699 25 -12.5s10 -17.5 10 -27.5c0 -4.66699 -1.33301 -7 -4 -7l-7 7
c-4.66699 4.66699 -12.334 7 -23.001 7c-15.333 0 -28.666 -3.66699 -39.999 -11c-29.333 -20.667 -56.333 -47 -81 -79c-28.667 -37.333 -43 -71 -43 -101c0 -15.333 5.33301 -23 16 -23c17.333 0 44.666 25.667 81.999 77c16 22.667 29.167 42.834 39.5 60.501
s17.833 32.834 22.5 45.501c4.66699 4.66699 10 7 16 7c3.33301 0 5.33301 -1.33301 6 -4c-4.66699 -8.66699 -7 -24.334 -7 -47.001c0 -28.667 3.33301 -54.334 10 -77.001c10 -35.333 24.333 -53 43 -53c12 0 24.667 10.333 38 31l21 32
c0.666992 -0.666992 1 -1.33398 1 -2.00098c0 -10.667 -10 -28.667 -30 -54c-20 -24.667 -35.333 -37 -46 -37c-17.333 0 -33.333 19.333 -48 58c-11.333 32 -17 59 -17 81c-65.333 -97.333 -113.333 -146 -144 -146zM168 347.001
c-2.66699 -0.666992 -4.00098 0.666992 -4.00098 4c3.33301 6 8.5 12.667 15.5 20l22.5 24l47 54c2 2 4 3 6 3c10.667 0 17.334 -5.33301 20.001 -16v-2c0 -2 -0.333008 -3.83301 -1 -5.5s-1.66699 -3.5 -3 -5.5c-5.33301 -4 -13 -9.33301 -23 -16s-18 -12.667 -24 -18
c-31.333 -26 -50 -40 -56 -42z" />
    <glyph glyph-name="acircumflex" unicode="&#xe2;" horiz-adv-x="277" 
d="M30 19c-19.333 0 -29 12.001 -29 36.001c0 31.333 16.333 70.333 49 117c14 20.667 28.333 39 43 55s29.334 30.333 44.001 43c19.333 16 37 24 53 24c10 0 18.333 -4.16699 25 -12.5s10 -17.5 10 -27.5c0 -4.66699 -1.33301 -7 -4 -7l-7 7
c-4.66699 4.66699 -12.334 7 -23.001 7c-15.333 0 -28.666 -3.66699 -39.999 -11c-29.333 -20.667 -56.333 -47 -81 -79c-28.667 -37.333 -43 -71 -43 -101c0 -15.333 5.33301 -23 16 -23c17.333 0 44.666 25.667 81.999 77c16 22.667 29.167 42.834 39.5 60.501
s17.833 32.834 22.5 45.501c4.66699 4.66699 10 7 16 7c3.33301 0 5.33301 -1.33301 6 -4c-4.66699 -8.66699 -7 -24.334 -7 -47.001c0 -28.667 3.33301 -54.334 10 -77.001c10 -35.333 24.333 -53 43 -53c12 0 24.667 10.333 38 31l21 32
c0.666992 -0.666992 1 -1.33398 1 -2.00098c0 -10.667 -10 -28.667 -30 -54c-20 -24.667 -35.333 -37 -46 -37c-17.333 0 -33.333 19.333 -48 58c-11.333 32 -17 59 -17 81c-65.333 -97.333 -113.333 -146 -144 -146zM110 342.001c-2 0 -3.00195 2.66504 -3.00195 7.99805
c0 2.66699 3.5 7.33398 10.5 14.001l24.5 23l41 37c6 6 12.333 9 19 9s12.334 -3 17.001 -9l26 -35l17.5 -22.5c5 -6.33301 7.5 -11.166 7.5 -14.499c0 -5.33301 -2 -7.33301 -6 -6c-0.666992 0.666992 -4.66699 3.5 -12 8.5s-15.333 11.5 -24 19.5l-30 27l-16.5 -12
l-23.5 -17c-6 -4.66699 -13.833 -10.167 -23.5 -16.5s-16.5 -10.5 -20.5 -12.5c-1.33301 -0.666992 -2.66602 -1 -3.99902 -1z" />
    <glyph glyph-name="atilde" unicode="&#xe3;" horiz-adv-x="277" 
d="M30 19c-19.333 0 -29 12.001 -29 36.001c0 31.333 16.333 70.333 49 117c14 20.667 28.333 39 43 55s29.334 30.333 44.001 43c19.333 16 37 24 53 24c10 0 18.333 -4.16699 25 -12.5s10 -17.5 10 -27.5c0 -4.66699 -1.33301 -7 -4 -7l-7 7
c-4.66699 4.66699 -12.334 7 -23.001 7c-15.333 0 -28.666 -3.66699 -39.999 -11c-29.333 -20.667 -56.333 -47 -81 -79c-28.667 -37.333 -43 -71 -43 -101c0 -15.333 5.33301 -23 16 -23c17.333 0 44.666 25.667 81.999 77c16 22.667 29.167 42.834 39.5 60.501
s17.833 32.834 22.5 45.501c4.66699 4.66699 10 7 16 7c3.33301 0 5.33301 -1.33301 6 -4c-4.66699 -8.66699 -7 -24.334 -7 -47.001c0 -28.667 3.33301 -54.334 10 -77.001c10 -35.333 24.333 -53 43 -53c12 0 24.667 10.333 38 31l21 32
c0.666992 -0.666992 1 -1.33398 1 -2.00098c0 -10.667 -10 -28.667 -30 -54c-20 -24.667 -35.333 -37 -46 -37c-17.333 0 -33.333 19.333 -48 58c-11.333 32 -17 59 -17 81c-65.333 -97.333 -113.333 -146 -144 -146zM101 349.001
c-2.66699 0 -3.83398 1.16602 -3.50098 3.49902s0.833008 4.16602 1.5 5.49902c4.66699 13.333 12.334 24 23.001 32s24 12 40 12c10 0 19.833 -3.5 29.5 -10.5s19.167 -10.5 28.5 -10.5c8.66699 0 15.834 1.83301 21.501 5.5s10.834 8.83398 15.501 15.501
c1.33301 2.66699 3.66602 4.33398 6.99902 5.00098s4.66602 -0.333008 3.99902 -3c-3.33301 -18 -10.833 -31.333 -22.5 -40s-24.167 -13 -37.5 -13c-9.33301 0 -17 2 -23 6l-18.5 12c-6.33301 4 -14.5 6 -24.5 6c-6 0 -10.333 -1 -13 -3s-6.66699 -5.33301 -12 -10
c-4.66699 -4 -8 -7.16699 -10 -9.5s-4 -3.5 -6 -3.5z" />
    <glyph glyph-name="adieresis" unicode="&#xe4;" horiz-adv-x="277" 
d="M30 19c-19.333 0 -29 12.001 -29 36.001c0 31.333 16.333 70.333 49 117c14 20.667 28.333 39 43 55s29.334 30.333 44.001 43c19.333 16 37 24 53 24c10 0 18.333 -4.16699 25 -12.5s10 -17.5 10 -27.5c0 -4.66699 -1.33301 -7 -4 -7l-7 7
c-4.66699 4.66699 -12.334 7 -23.001 7c-15.333 0 -28.666 -3.66699 -39.999 -11c-29.333 -20.667 -56.333 -47 -81 -79c-28.667 -37.333 -43 -71 -43 -101c0 -15.333 5.33301 -23 16 -23c17.333 0 44.666 25.667 81.999 77c16 22.667 29.167 42.834 39.5 60.501
s17.833 32.834 22.5 45.501c4.66699 4.66699 10 7 16 7c3.33301 0 5.33301 -1.33301 6 -4c-4.66699 -8.66699 -7 -24.334 -7 -47.001c0 -28.667 3.33301 -54.334 10 -77.001c10 -35.333 24.333 -53 43 -53c12 0 24.667 10.333 38 31l21 32
c0.666992 -0.666992 1 -1.33398 1 -2.00098c0 -10.667 -10 -28.667 -30 -54c-20 -24.667 -35.333 -37 -46 -37c-17.333 0 -33.333 19.333 -48 58c-11.333 32 -17 59 -17 81c-65.333 -97.333 -113.333 -146 -144 -146zM238 344.001c-9.33301 0 -14 8.33301 -14 25
c0 10.667 5.16699 21 15.5 31s20.833 15 31.5 15c3.33301 0 5 -0.666992 5 -2c0 -6 -1.83301 -14.667 -5.5 -26s-5.5 -19.333 -5.5 -24c0 -12.667 -9 -19 -27 -19zM122 344.001c-9.33301 0 -14 8.33301 -14 25c0 10.667 5.16699 21 15.5 31s20.833 15 31.5 15
c3.33301 0 5 -0.666992 5 -2c0 -6 -1.83301 -14.667 -5.5 -26s-5.5 -19.333 -5.5 -24c0 -12.667 -9 -19 -27 -19z" />
    <glyph glyph-name="aring" unicode="&#xe5;" horiz-adv-x="277" 
d="M30 19c-19.333 0 -29 12.001 -29 36.001c0 31.333 16.333 70.333 49 117c14 20.667 28.333 39 43 55s29.334 30.333 44.001 43c19.333 16 37 24 53 24c10 0 18.333 -4.16699 25 -12.5s10 -17.5 10 -27.5c0 -4.66699 -1.33301 -7 -4 -7l-7 7
c-4.66699 4.66699 -12.334 7 -23.001 7c-15.333 0 -28.666 -3.66699 -39.999 -11c-29.333 -20.667 -56.333 -47 -81 -79c-28.667 -37.333 -43 -71 -43 -101c0 -15.333 5.33301 -23 16 -23c17.333 0 44.666 25.667 81.999 77c16 22.667 29.167 42.834 39.5 60.501
s17.833 32.834 22.5 45.501c4.66699 4.66699 10 7 16 7c3.33301 0 5.33301 -1.33301 6 -4c-4.66699 -8.66699 -7 -24.334 -7 -47.001c0 -28.667 3.33301 -54.334 10 -77.001c10 -35.333 24.333 -53 43 -53c12 0 24.667 10.333 38 31l21 32
c0.666992 -0.666992 1 -1.33398 1 -2.00098c0 -10.667 -10 -28.667 -30 -54c-20 -24.667 -35.333 -37 -46 -37c-17.333 0 -33.333 19.333 -48 58c-11.333 32 -17 59 -17 81c-65.333 -97.333 -113.333 -146 -144 -146zM187 344.001c-17.333 0 -30 4.16699 -38 12.5
s-12 18.833 -12 31.5c0 17.333 5.83301 31.833 17.5 43.5s28.5 17.5 50.5 17.5c17.333 0 30 -4.66699 38 -14s12 -20.666 12 -33.999c0 -16.667 -5.83301 -30.334 -17.5 -41.001s-28.5 -16 -50.5 -16zM190 359.001c12.667 0 22 3.83203 28 11.499s9 17.834 9 30.501
c0 8 -1.5 15.333 -4.5 22s-9.16699 10 -18.5 10c-13.333 0 -22.833 -4.33301 -28.5 -13s-8.5 -19 -8.5 -31c0 -8 1.83301 -15 5.5 -21s9.5 -9 17.5 -9z" />
    <glyph glyph-name="ae" unicode="&#xe6;" horiz-adv-x="370" 
d="M232 -11c-46 0 -68.998 34.335 -68.998 103.002c0 22 2.66699 44.667 8 68h-1c-64 -93.333 -110.333 -140 -139 -140c-20 0 -30 11.667 -30 35c0 34 22.667 81.667 68 143c47.333 64 87.666 96 120.999 96c13.333 0 23 -6 29 -18c13.333 22 23 33 29 33
c12 0 20.333 -5 25 -15c4 9.33301 8.66699 14 14 14c18.667 0 28 -11.667 28 -35c0 -16.667 -3.33301 -31.667 -10 -45l78 12c1.33301 -0.666992 2.33301 -1.33398 3 -2.00098l2 -2c-0.666992 -1.33301 -2.16699 -2.33301 -4.5 -3s-8.83301 -2 -19.5 -4
c-16 -3.33301 -30.167 -7.33301 -42.5 -12s-22.833 -10.334 -31.5 -17.001c-0.666992 -2.66699 -4.33398 -8.33398 -11.001 -17.001c-18.667 -26.667 -35 -40 -49 -40c-4 0 -6.66699 0.666992 -8 2l1 2c8.66699 8.66699 19.334 23.334 32.001 44.001
c-26.667 -9.33301 -44.334 -19.333 -53.001 -30c-7.33301 -8.66699 -11 -34 -11 -76c0 -51.333 11.667 -77 35 -77c22.667 0 48 23.667 76 71l42 71c1.33301 0 2 -1 2 -3c0 -2.66699 -1 -6.66699 -3 -12c-9.33301 -21.333 -17.666 -39.5 -24.999 -54.5
s-13.333 -26.5 -18 -34.5c-22.667 -38 -45.334 -57 -68.001 -57zM215.002 196.002c24 6.66699 41.001 13.332 51.001 19.999c3.33301 2.66699 7.66602 10.667 12.999 24c4.66699 12 7 21.667 7 29c0 8.66699 -3 13 -9 13c-7.33301 0 -19.333 -12.333 -36 -37
c-17.333 -25.333 -26 -41.666 -26 -48.999zM43.0029 47c18 0 45.667 25.668 83 77.001c31.333 44.667 51.666 80 60.999 106c4 4 8 6.33301 12 7l10 21c-4 2 -9.66699 3 -17 3c-15.333 0 -28.666 -3.66699 -39.999 -11c-30 -20 -57 -46 -81 -78
c-28.667 -36.667 -43 -70.334 -43 -101.001c0 -16 5 -24 15 -24z" />
    <glyph glyph-name="ccedilla" unicode="&#xe7;" horiz-adv-x="193" 
d="M80 -11c-42.667 0 -64.001 32.332 -64.001 96.999c0 32 4.66699 62 14 90l11.5 28.5c4.33301 10.333 9.83301 21.833 16.5 34.5c16.667 32.667 29 49 37 49c11.333 0 19.333 -4.33301 24 -13c1.33301 4 4.33301 6 9 6c9.33301 0 18.333 -4.33301 27 -13
s13 -17.667 13 -27c0 -10 -4 -19.833 -12 -29.5s-17 -14.5 -27 -14.5c-1.33301 0 -2.66602 0.666992 -3.99902 2c14 22 21 38.333 21 49c0 12 -4.33301 18 -13 18c-22.667 0 -45.667 -31.667 -69 -95c-15.333 -42.667 -23 -77 -23 -103c0 -42 16.333 -63 49 -63
c37.333 0 75 25 113 75c12.667 16.667 19.667 25.334 21 26.001c2 0 3 -1.33301 3 -4c0 -0.666992 -0.666992 -3 -2 -7c-36.667 -70.667 -85 -106 -145 -106zM63.999 -162.001c-12 0 -24.999 1.00098 -38.999 3.00098c-4 0 -6 3 -6 9c0 3.33301 2 6 6 8
c13.333 -2 24.666 -3 33.999 -3c28 0 42 9.66699 42 29c0 10.667 -3 18.167 -9 22.5s-12.167 9.16602 -18.5 14.499s-9.5 14.666 -9.5 27.999s3 23.833 9 31.5s16.333 13.834 31 18.501c6 2 9.66699 1.33301 11 -2c-11.333 -6 -19.333 -13 -24 -21s-7 -15 -7 -21
c0 -8.66699 4.16699 -15.5 12.5 -20.5s16.833 -11 25.5 -18s13 -17.833 13 -32.5c0 -16.667 -6 -28.5 -18 -35.5s-29.667 -10.5 -53 -10.5z" />
    <glyph glyph-name="egrave" unicode="&#xe8;" horiz-adv-x="193" 
d="M82 -11c-46 0 -69.001 34.665 -69.001 103.998c0 11.333 0.5 22.5 1.5 33.5s2.83301 21.833 5.5 32.5c-8 5.33301 -12 9.66602 -12 12.999c0 6 7 11.333 21 16c6.66699 20 16.334 42.667 29.001 68c18 34.667 31.667 52 41 52c10.667 0 18.667 -4.66699 24 -14
c4 9.33301 8.66699 14 14 14c18.667 0 28 -11.333 28 -34c0 -17.333 -3.33301 -32.666 -10 -45.999c4.66699 -5.33301 7 -10.333 7 -15c0 -1.33301 -1 -2.66602 -3 -3.99902l-56 -18c-10.667 -3.33301 -20.167 -7.66602 -28.5 -12.999s-15.833 -11 -22.5 -17
c-7.33301 -22 -11 -45.667 -11 -71c0 -56 17.333 -84 52 -84c46 0 89.333 37.333 130 112c2 3.33301 3.66699 5 5 5c2 0 3 -2 3 -6c0 -3.33301 -1 -7 -3 -11c-16 -32 -35.333 -58.333 -58 -79c-28.667 -25.333 -58 -38 -88 -38zM63.999 195.998
c6.66699 2 14.501 4.5 23.501 7.5s18.833 6.83301 29.5 11.5c3.33301 2.66699 7.66602 11 12.999 25c4.66699 12 7 21.667 7 29c0 8.66699 -3.33301 13 -10 13c-7.33301 0 -19.333 -12.333 -36 -37c-17.333 -24 -26.333 -40.333 -27 -49zM153 367.998
c-4.66699 0 -23.668 14 -57.001 42c-6 5.33301 -14 11.333 -24 18s-17.667 12 -23 16c-0.666992 2 -1.5 3.83301 -2.5 5.5s-1.5 3.5 -1.5 5.5v2c2.66699 10.667 9.33398 16 20.001 16c2 0 4 -1 6 -3l47 -54l23 -24c7.33301 -7.33301 12.333 -14 15 -20
c0 -2.66699 -1 -4 -3 -4z" />
    <glyph glyph-name="eacute" unicode="&#xe9;" horiz-adv-x="193" 
d="M82 -11c-46 0 -69.001 34.665 -69.001 103.998c0 11.333 0.5 22.5 1.5 33.5s2.83301 21.833 5.5 32.5c-8 5.33301 -12 9.66602 -12 12.999c0 6 7 11.333 21 16c6.66699 20 16.334 42.667 29.001 68c18 34.667 31.667 52 41 52c10.667 0 18.667 -4.66699 24 -14
c4 9.33301 8.66699 14 14 14c18.667 0 28 -11.333 28 -34c0 -17.333 -3.33301 -32.666 -10 -45.999c4.66699 -5.33301 7 -10.333 7 -15c0 -1.33301 -1 -2.66602 -3 -3.99902l-56 -18c-10.667 -3.33301 -20.167 -7.66602 -28.5 -12.999s-15.833 -11 -22.5 -17
c-7.33301 -22 -11 -45.667 -11 -71c0 -56 17.333 -84 52 -84c46 0 89.333 37.333 130 112c2 3.33301 3.66699 5 5 5c2 0 3 -2 3 -6c0 -3.33301 -1 -7 -3 -11c-16 -32 -35.333 -58.333 -58 -79c-28.667 -25.333 -58 -38 -88 -38zM63.999 195.998
c6.66699 2 14.501 4.5 23.501 7.5s18.833 6.83301 29.5 11.5c3.33301 2.66699 7.66602 11 12.999 25c4.66699 12 7 21.667 7 29c0 8.66699 -3.33301 13 -10 13c-7.33301 0 -19.333 -12.333 -36 -37c-17.333 -24 -26.333 -40.333 -27 -49zM111 367.998
c-2.66699 -0.666992 -4.00098 0.666992 -4.00098 4c3.33301 6 8.5 12.667 15.5 20l22.5 24l47 54c2 2 4 3 6 3c10.667 0 17.334 -5.33301 20.001 -16v-2c0 -2 -0.333008 -3.83301 -1 -5.5s-1.66699 -3.5 -3 -5.5c-5.33301 -4 -13 -9.33301 -23 -16s-18 -12.667 -24 -18
c-31.333 -26 -50 -40 -56 -42z" />
    <glyph glyph-name="ecircumflex" unicode="&#xea;" horiz-adv-x="193" 
d="M82 -11c-46 0 -69.001 34.665 -69.001 103.998c0 11.333 0.5 22.5 1.5 33.5s2.83301 21.833 5.5 32.5c-8 5.33301 -12 9.66602 -12 12.999c0 6 7 11.333 21 16c6.66699 20 16.334 42.667 29.001 68c18 34.667 31.667 52 41 52c10.667 0 18.667 -4.66699 24 -14
c4 9.33301 8.66699 14 14 14c18.667 0 28 -11.333 28 -34c0 -17.333 -3.33301 -32.666 -10 -45.999c4.66699 -5.33301 7 -10.333 7 -15c0 -1.33301 -1 -2.66602 -3 -3.99902l-56 -18c-10.667 -3.33301 -20.167 -7.66602 -28.5 -12.999s-15.833 -11 -22.5 -17
c-7.33301 -22 -11 -45.667 -11 -71c0 -56 17.333 -84 52 -84c46 0 89.333 37.333 130 112c2 3.33301 3.66699 5 5 5c2 0 3 -2 3 -6c0 -3.33301 -1 -7 -3 -11c-16 -32 -35.333 -58.333 -58 -79c-28.667 -25.333 -58 -38 -88 -38zM63.999 195.998
c6.66699 2 14.501 4.5 23.501 7.5s18.833 6.83301 29.5 11.5c3.33301 2.66699 7.66602 11 12.999 25c4.66699 12 7 21.667 7 29c0 8.66699 -3.33301 13 -10 13c-7.33301 0 -19.333 -12.333 -36 -37c-17.333 -24 -26.333 -40.333 -27 -49zM53 362.998
c-2 0 -3.00195 2.66504 -3.00195 7.99805c0 2.66699 3.5 7.33398 10.5 14.001l24.5 23l41 37c6 6 12.333 9 19 9s12.334 -3 17.001 -9l26 -35l17.5 -22.5c5 -6.33301 7.5 -11.166 7.5 -14.499c0 -5.33301 -2 -7.33301 -6 -6c-0.666992 0.666992 -4.66699 3.5 -12 8.5
s-15.333 11.5 -24 19.5l-30 27l-16.5 -12l-23.5 -17c-6 -4.66699 -13.833 -10.167 -23.5 -16.5s-16.5 -10.5 -20.5 -12.5c-1.33301 -0.666992 -2.66602 -1 -3.99902 -1z" />
    <glyph glyph-name="edieresis" unicode="&#xeb;" horiz-adv-x="193" 
d="M82 -11c-46 0 -69.001 34.665 -69.001 103.998c0 11.333 0.5 22.5 1.5 33.5s2.83301 21.833 5.5 32.5c-8 5.33301 -12 9.66602 -12 12.999c0 6 7 11.333 21 16c6.66699 20 16.334 42.667 29.001 68c18 34.667 31.667 52 41 52c10.667 0 18.667 -4.66699 24 -14
c4 9.33301 8.66699 14 14 14c18.667 0 28 -11.333 28 -34c0 -17.333 -3.33301 -32.666 -10 -45.999c4.66699 -5.33301 7 -10.333 7 -15c0 -1.33301 -1 -2.66602 -3 -3.99902l-56 -18c-10.667 -3.33301 -20.167 -7.66602 -28.5 -12.999s-15.833 -11 -22.5 -17
c-7.33301 -22 -11 -45.667 -11 -71c0 -56 17.333 -84 52 -84c46 0 89.333 37.333 130 112c2 3.33301 3.66699 5 5 5c2 0 3 -2 3 -6c0 -3.33301 -1 -7 -3 -11c-16 -32 -35.333 -58.333 -58 -79c-28.667 -25.333 -58 -38 -88 -38zM63.999 195.998
c6.66699 2 14.501 4.5 23.501 7.5s18.833 6.83301 29.5 11.5c3.33301 2.66699 7.66602 11 12.999 25c4.66699 12 7 21.667 7 29c0 8.66699 -3.33301 13 -10 13c-7.33301 0 -19.333 -12.333 -36 -37c-17.333 -24 -26.333 -40.333 -27 -49zM181 364.998
c-9.33301 0 -14 8.33301 -14 25c0 10.667 5.16699 21 15.5 31s20.833 15 31.5 15c3.33301 0 5 -0.666992 5 -2c0 -6 -1.83301 -14.667 -5.5 -26s-5.5 -19.333 -5.5 -24c0 -12.667 -9 -19 -27 -19zM65 364.998c-9.33301 0 -14 8.33301 -14 25c0 10.667 5.16699 21 15.5 31
s20.833 15 31.5 15c3.33301 0 5 -0.666992 5 -2c0 -6 -1.83301 -14.667 -5.5 -26s-5.5 -19.333 -5.5 -24c0 -12.667 -9 -19 -27 -19z" />
    <glyph glyph-name="igrave" unicode="&#xec;" horiz-adv-x="170" 
d="M78 -11c-23.333 0 -34.999 22.001 -34.999 66.001c0 8.66699 0.5 19.5 1.5 32.5s2.83301 28.167 5.5 45.5s4.5 32.666 5.5 45.999s1.5 24.333 1.5 33c0 57.333 -14.333 86 -43 86c-2 0 -5.16699 -0.5 -9.5 -1.5s-7.5 -1.5 -9.5 -1.5c-3.33301 0 -5 1.66699 -5 5
c0 4 11.667 10 35 18c22 7.33301 36.333 11 43 11c10.667 0 16 -12.667 16 -38c0 -10.667 -0.666992 -24.334 -2 -41.001s-3.33301 -36 -6 -58s-4.5 -41.167 -5.5 -57.5s-1.5 -30.166 -1.5 -41.499c0 -53.333 11.667 -80 35 -80c15.333 0 31.666 10.667 48.999 32
c2 0 3 -1.66699 3 -5c0 -8 -10.667 -18.667 -32 -32c-20.667 -12.667 -36 -19 -46 -19zM92.001 376.001c-4.66699 0 -23.668 14 -57.001 42c-6 5.33301 -14 11.333 -24 18s-17.667 12 -23 16c-0.666992 2 -1.5 3.83301 -2.5 5.5s-1.5 3.5 -1.5 5.5v2
c2.66699 10.667 9.33398 16 20.001 16c2 0 4 -1 6 -3l47 -54l23 -24c7.33301 -7.33301 12.333 -14 15 -20c0 -2.66699 -1 -4 -3 -4z" />
    <glyph glyph-name="iacute" unicode="&#xed;" horiz-adv-x="170" 
d="M78 -11c-23.333 0 -34.999 22.001 -34.999 66.001c0 8.66699 0.5 19.5 1.5 32.5s2.83301 28.167 5.5 45.5s4.5 32.666 5.5 45.999s1.5 24.333 1.5 33c0 57.333 -14.333 86 -43 86c-2 0 -5.16699 -0.5 -9.5 -1.5s-7.5 -1.5 -9.5 -1.5c-3.33301 0 -5 1.66699 -5 5
c0 4 11.667 10 35 18c22 7.33301 36.333 11 43 11c10.667 0 16 -12.667 16 -38c0 -10.667 -0.666992 -24.334 -2 -41.001s-3.33301 -36 -6 -58s-4.5 -41.167 -5.5 -57.5s-1.5 -30.166 -1.5 -41.499c0 -53.333 11.667 -80 35 -80c15.333 0 31.666 10.667 48.999 32
c2 0 3 -1.66699 3 -5c0 -8 -10.667 -18.667 -32 -32c-20.667 -12.667 -36 -19 -46 -19zM50.001 376.001c-2.66699 -0.666992 -4.00098 0.666992 -4.00098 4c3.33301 6 8.5 12.667 15.5 20l22.5 24l47 54c2 2 4 3 6 3c10.667 0 17.334 -5.33301 20.001 -16v-2
c0 -2 -0.333008 -3.83301 -1 -5.5s-1.66699 -3.5 -3 -5.5c-5.33301 -4 -13 -9.33301 -23 -16s-18 -12.667 -24 -18c-31.333 -26 -50 -40 -56 -42z" />
    <glyph glyph-name="icircumflex" unicode="&#xee;" horiz-adv-x="170" 
d="M78 -11c-23.333 0 -34.999 22.001 -34.999 66.001c0 8.66699 0.5 19.5 1.5 32.5s2.83301 28.167 5.5 45.5s4.5 32.666 5.5 45.999s1.5 24.333 1.5 33c0 57.333 -14.333 86 -43 86c-2 0 -5.16699 -0.5 -9.5 -1.5s-7.5 -1.5 -9.5 -1.5c-3.33301 0 -5 1.66699 -5 5
c0 4 11.667 10 35 18c22 7.33301 36.333 11 43 11c10.667 0 16 -12.667 16 -38c0 -10.667 -0.666992 -24.334 -2 -41.001s-3.33301 -36 -6 -58s-4.5 -41.167 -5.5 -57.5s-1.5 -30.166 -1.5 -41.499c0 -53.333 11.667 -80 35 -80c15.333 0 31.666 10.667 48.999 32
c2 0 3 -1.66699 3 -5c0 -8 -10.667 -18.667 -32 -32c-20.667 -12.667 -36 -19 -46 -19zM-7.99902 371.001c-2 0 -3.00195 2.66504 -3.00195 7.99805c0 2.66699 3.5 7.33398 10.5 14.001l24.5 23l41 37c6 6 12.333 9 19 9s12.334 -3 17.001 -9l26 -35l17.5 -22.5
c5 -6.33301 7.5 -11.166 7.5 -14.499c0 -5.33301 -2 -7.33301 -6 -6c-0.666992 0.666992 -4.66699 3.5 -12 8.5s-15.333 11.5 -24 19.5l-30 27l-16.5 -12l-23.5 -17c-6 -4.66699 -13.833 -10.167 -23.5 -16.5s-16.5 -10.5 -20.5 -12.5
c-1.33301 -0.666992 -2.66602 -1 -3.99902 -1z" />
    <glyph glyph-name="idieresis" unicode="&#xef;" horiz-adv-x="170" 
d="M78 -11c-23.333 0 -34.999 22.001 -34.999 66.001c0 8.66699 0.5 19.5 1.5 32.5s2.83301 28.167 5.5 45.5s4.5 32.666 5.5 45.999s1.5 24.333 1.5 33c0 57.333 -14.333 86 -43 86c-2 0 -5.16699 -0.5 -9.5 -1.5s-7.5 -1.5 -9.5 -1.5c-3.33301 0 -5 1.66699 -5 5
c0 4 11.667 10 35 18c22 7.33301 36.333 11 43 11c10.667 0 16 -12.667 16 -38c0 -10.667 -0.666992 -24.334 -2 -41.001s-3.33301 -36 -6 -58s-4.5 -41.167 -5.5 -57.5s-1.5 -30.166 -1.5 -41.499c0 -53.333 11.667 -80 35 -80c15.333 0 31.666 10.667 48.999 32
c2 0 3 -1.66699 3 -5c0 -8 -10.667 -18.667 -32 -32c-20.667 -12.667 -36 -19 -46 -19zM120.001 373.001c-9.33301 0 -14 8.33301 -14 25c0 10.667 5.16699 21 15.5 31s20.833 15 31.5 15c3.33301 0 5 -0.666992 5 -2c0 -6 -1.83301 -14.667 -5.5 -26s-5.5 -19.333 -5.5 -24
c0 -12.667 -9 -19 -27 -19zM4.00098 373.001c-9.33301 0 -14 8.33301 -14 25c0 10.667 5.16699 21 15.5 31s20.833 15 31.5 15c3.33301 0 5 -0.666992 5 -2c0 -6 -1.83301 -14.667 -5.5 -26s-5.5 -19.333 -5.5 -24c0 -12.667 -9 -19 -27 -19z" />
    <glyph glyph-name="eth" unicode="&#xf0;" horiz-adv-x="217" 
d="M90 2c-40 0 -59.9971 38.0039 -59.9971 114.004c0 41.333 6 81.333 18 120c6 19.333 17.333 35.666 34 48.999s35 20 55 20c6 0 9 -1.66699 9 -5c0 -2 -2.66699 -3.66699 -8 -5c-22 -4.66699 -38.667 -23.334 -50 -56.001c-15.333 -47.333 -23 -90.666 -23 -129.999
c0 -51.333 13 -77 39 -77c16 0 30.667 13.667 44 41c11.333 24 17 45 17 63c0 105.333 -13.667 187 -41 245c-82.667 -43.333 -129 -65 -139 -65l-2 1c0 20.667 14 38 42 52l69 26l18 8c-24.667 44 -52.667 66 -84 66c-14.667 0 -33.667 -8.66699 -57 -26
c-4 0 -6 1.66699 -6 5c0 1.33301 0.666992 2.66602 2 3.99902c21.333 22 45.666 33 72.999 33c40.667 0 74 -23.333 100 -70l105 44c2.66699 0 4 -0.666992 4 -2c0 -7.33301 -32.667 -28 -98 -62c9.33301 -20.667 16.666 -42.834 21.999 -66.501s9.33301 -48.834 12 -75.501
v-13.5c0 -5.66699 0.333008 -12.167 1 -19.5l2 -23c0 -41.333 -7 -81 -21 -119c-18.667 -50.667 -44.334 -76 -77.001 -76z" />
    <glyph glyph-name="ntilde" unicode="&#xf1;" horiz-adv-x="261" 
d="M16 -30c-1.33301 1.33301 -1.99902 2.33398 -1.99902 3.00098l3.5 25l6.5 49c5.33301 40 9.33301 75 12 105s4 55 4 75c0 20.667 -1.66699 36.667 -5 48c-2.66699 2.66699 -8 4 -16 4c-4 0 -10 -1 -18 -3s-13.667 -3 -17 -3s-5 1 -5 3c0 2.66699 9.33301 8 28 16
c32 17.333 48 26.333 48 27c12.667 0 19 -19 19 -57c0 -16.667 -3 -42 -9 -76c-2.66699 -16.667 -4.66699 -31.167 -6 -43.5s-2 -22.833 -2 -31.5v-3c6 10.667 13.833 23.167 23.5 37.5l33.5 47.5c27.333 36 48.333 61 63 75c2.66699 2.66699 9.5 6.33398 20.5 11.001
s18.5 7 22.5 7c2 0 3 -0.666992 3 -2c-16 -30.667 -26 -53.667 -30 -69c-5.33301 -20 -8 -45.667 -8 -77c0 -54.667 11.667 -82 35 -82c8 0 17.333 6.33301 28 19c1.33301 2.66699 3.5 5.5 6.5 8.5s6.16699 6.83301 9.5 11.5l1 -4c0 -7.33301 -7.66699 -20.666 -23 -39.999
c-14.667 -18.667 -26.334 -28 -35.001 -28c-32.667 0 -49 34.667 -49 104c0 19.333 0.5 37.666 1.5 54.999s2.83301 33.666 5.5 48.999c-16.667 -16 -31.834 -33 -45.501 -51s-26.167 -37 -37.5 -57c-27.333 -48.667 -39.666 -91.334 -36.999 -128.001
c-3.33301 -4 -7.5 -8 -12.5 -12zM126.001 341.001c-2.66699 0 -3.83398 1.16602 -3.50098 3.49902s0.833008 4.16602 1.5 5.49902c4.66699 13.333 12.334 24 23.001 32s24 12 40 12c10 0 19.833 -3.5 29.5 -10.5s19.167 -10.5 28.5 -10.5
c8.66699 0 15.834 1.83301 21.501 5.5s10.834 8.83398 15.501 15.501c1.33301 2.66699 3.66602 4.33398 6.99902 5.00098s4.66602 -0.333008 3.99902 -3c-3.33301 -18 -10.833 -31.333 -22.5 -40s-24.167 -13 -37.5 -13c-9.33301 0 -17 2 -23 6l-18.5 12
c-6.33301 4 -14.5 6 -24.5 6c-6 0 -10.333 -1 -13 -3s-6.66699 -5.33301 -12 -10c-4.66699 -4 -8 -7.16699 -10 -9.5s-4 -3.5 -6 -3.5z" />
    </font>
</defs>
</svg>
